<svg width="169" height="157" viewBox="0 0 169 157" fill="none" xmlns="http://www.w3.org/2000/svg">
<rect width="169" height="157" fill="white"/>
<rect x="14.5" y="10.5" width="140" height="130" rx="29.5" stroke="#232F3E"/>
<path d="M63.733 69.817C63.733 70.9844 63.8592 71.9308 64.0801 72.6249C64.3325 73.319 64.648 74.0762 65.0897 74.8965C65.2474 75.1489 65.3105 75.4013 65.3105 75.6222C65.3105 75.9377 65.1212 76.2532 64.7111 76.5687L62.7234 77.8938C62.4395 78.0831 62.1555 78.1778 61.9031 78.1778C61.5876 78.1778 61.2721 78.02 60.9566 77.736C60.5149 77.2628 60.1363 76.758 59.8208 76.2532C59.5053 75.7168 59.1898 75.1174 58.8428 74.3918C56.3819 77.2944 53.29 78.7456 49.5671 78.7456C46.9169 78.7456 44.803 77.9884 43.2571 76.474C41.7111 74.9596 40.9224 72.9404 40.9224 70.4164C40.9224 67.7347 41.8689 65.5577 43.7934 63.9171C45.718 62.2765 48.2735 61.4562 51.5232 61.4562C52.5959 61.4562 53.7001 61.5509 54.8675 61.7086C56.0348 61.8664 57.2337 62.1188 58.4957 62.4027V60.0996C58.4957 57.7018 57.9909 56.0296 57.0129 55.0516C56.0033 54.0735 54.2996 53.6003 51.8702 53.6003C50.766 53.6003 49.6302 53.7265 48.4628 54.0104C47.2955 54.2944 46.1597 54.6414 45.0554 55.0831C44.5506 55.304 44.172 55.4302 43.9512 55.4933C43.7303 55.5564 43.5726 55.5879 43.4464 55.5879C43.0047 55.5879 42.7838 55.2724 42.7838 54.6099V53.0639C42.7838 52.5591 42.8469 52.1805 43.0047 51.9597C43.1624 51.7388 43.4464 51.518 43.8881 51.2971C44.9923 50.7292 46.3174 50.256 47.8634 49.8774C49.4093 49.4672 51.0499 49.2779 52.7852 49.2779C56.5396 49.2779 59.2845 50.1298 61.0513 51.8335C62.7865 53.5372 63.6699 56.1243 63.6699 59.5948V69.817H63.733ZM50.9237 74.6126C51.9649 74.6126 53.0376 74.4233 54.1734 74.0447C55.3092 73.6661 56.3188 72.972 57.1706 72.0255C57.6754 71.4261 58.054 70.7635 58.2433 70.0063C58.4326 69.2491 58.5588 68.3341 58.5588 67.2614V65.9363C57.6439 65.7155 56.6658 65.5262 55.6562 65.4C54.6466 65.2738 53.6686 65.2107 52.6905 65.2107C50.5767 65.2107 49.0307 65.6208 47.9896 66.4727C46.9484 67.3245 46.4436 68.5234 46.4436 70.1009C46.4436 71.5838 46.8222 72.6881 47.611 73.4453C48.3682 74.234 49.4724 74.6126 50.9237 74.6126ZM76.2584 78.02C75.6905 78.02 75.3119 77.9254 75.0595 77.7045C74.8071 77.5152 74.5862 77.0735 74.3969 76.474L66.9827 52.0859C66.7934 51.4549 66.6987 51.0447 66.6987 50.8239C66.6987 50.3191 66.9511 50.0351 67.4559 50.0351H70.5478C71.1473 50.0351 71.5574 50.1298 71.7783 50.3506C72.0307 50.5399 72.22 50.9816 72.4093 51.5811L77.7097 72.4672L82.6315 51.5811C82.7892 50.9501 82.9785 50.5399 83.2309 50.3506C83.4833 50.1613 83.925 50.0351 84.4929 50.0351H87.0169C87.6164 50.0351 88.0265 50.1298 88.2789 50.3506C88.5313 50.5399 88.7522 50.9816 88.8784 51.5811L93.8633 72.7196L99.3214 51.5811C99.5107 50.9501 99.7316 50.5399 99.9524 50.3506C100.205 50.1613 100.615 50.0351 101.183 50.0351H104.117C104.622 50.0351 104.906 50.2875 104.906 50.8239C104.906 50.9816 104.874 51.1394 104.843 51.3287C104.811 51.518 104.748 51.7704 104.622 52.1174L97.0183 76.5056C96.829 77.1366 96.6081 77.5467 96.3557 77.736C96.1033 77.9253 95.6932 78.0515 95.1568 78.0515H92.4435C91.8441 78.0515 91.4339 77.9569 91.1815 77.736C90.9291 77.5152 90.7083 77.105 90.5821 76.474L85.6918 56.1243L80.8331 76.4425C80.6754 77.0735 80.4861 77.4837 80.2337 77.7045C79.9813 77.9254 79.5396 78.02 78.9717 78.02H76.2584ZM116.8 78.8718C115.16 78.8718 113.519 78.6825 111.941 78.3039C110.364 77.9253 109.133 77.5152 108.313 77.0419C107.808 76.758 107.461 76.4425 107.335 76.1585C107.209 75.8746 107.146 75.5591 107.146 75.2751V73.6661C107.146 73.0035 107.398 72.688 107.871 72.688C108.061 72.688 108.25 72.7196 108.439 72.7827C108.629 72.8458 108.913 72.972 109.228 73.0982C110.301 73.5714 111.468 73.95 112.699 74.2024C113.961 74.4548 115.191 74.581 116.453 74.581C118.441 74.581 119.987 74.234 121.059 73.5399C122.132 72.8458 122.7 71.8362 122.7 70.5426C122.7 69.6592 122.416 68.9336 121.848 68.3341C121.28 67.7347 120.208 67.1983 118.662 66.6935L114.087 65.2738C111.784 64.5481 110.08 63.4754 109.039 62.0557C107.998 60.6675 107.461 59.1215 107.461 57.4809C107.461 56.1558 107.745 54.9885 108.313 53.9789C108.881 52.9693 109.638 52.0859 110.585 51.3918C111.531 50.6661 112.604 50.1298 113.866 49.7512C115.128 49.3726 116.453 49.2148 117.841 49.2148C118.535 49.2148 119.261 49.2464 119.955 49.341C120.681 49.4357 121.343 49.5619 122.006 49.6881C122.637 49.8458 123.236 50.0036 123.804 50.1929C124.372 50.3822 124.814 50.5715 125.129 50.7608C125.571 51.0132 125.887 51.2656 126.076 51.5495C126.265 51.8019 126.36 52.149 126.36 52.5907V54.0735C126.36 54.7361 126.107 55.0831 125.634 55.0831C125.382 55.0831 124.972 54.9569 124.435 54.7045C122.637 53.8842 120.618 53.4741 118.378 53.4741C116.579 53.4741 115.16 53.758 114.181 54.3575C113.203 54.9569 112.699 55.8719 112.699 57.1654C112.699 58.0488 113.014 58.806 113.645 59.4055C114.276 60.0049 115.443 60.6044 117.116 61.1407L121.596 62.5605C123.867 63.2861 125.508 64.2957 126.486 65.5893C127.464 66.8828 127.937 68.3657 127.937 70.0063C127.937 71.3629 127.653 72.5934 127.117 73.6661C126.549 74.7388 125.792 75.6853 124.814 76.4425C123.836 77.2313 122.668 77.7991 121.312 78.2093C119.892 78.651 118.409 78.8718 116.8 78.8718Z" fill="#232F3E"/>
<path d="M122.763 94.2053C112.383 101.872 97.3022 105.942 84.3351 105.942C66.1623 105.942 49.7879 99.2217 37.4203 88.053C36.4422 87.1696 37.3256 85.9707 38.4929 86.6648C51.8701 94.4261 68.3708 99.1271 85.4394 99.1271C96.9551 99.1271 109.607 96.7293 121.249 91.8075C122.984 91.0187 124.467 92.9433 122.763 94.2053Z" fill="#FF9900"/>
<path d="M127.085 89.2835C125.76 87.5798 118.314 88.4632 114.939 88.8733C113.929 88.9995 113.771 88.1161 114.686 87.4536C120.618 83.289 130.367 84.4879 131.502 85.8761C132.638 87.2958 131.187 97.0448 125.634 101.714C124.782 102.44 123.962 102.061 124.34 101.115C125.602 97.9913 128.41 90.9556 127.085 89.2835Z" fill="#FF9900"/>
<rect x="76" y="129" width="82" height="20" fill="white"/>
<rect width="66" height="20.5839" transform="translate(92 115)" fill="white"/>
<path d="M100.41 120.091H101.099V125.241C101.099 126.26 100.838 127.039 100.316 127.575C99.7942 128.111 99.0388 128.38 98.0502 128.381C97.0606 128.381 96.3049 128.112 95.7829 127.575C95.261 127.038 95 126.26 95 125.241V120.091H95.6889V125.369C95.6889 126.131 95.8918 126.716 96.2975 127.125C96.7032 127.534 97.2874 127.74 98.0502 127.743C98.8129 127.743 99.3971 127.537 99.8028 127.125C100.209 126.713 100.411 126.128 100.41 125.369V120.091Z" fill="#A166FF"/>
<path d="M105.746 126.641C105.748 126.54 105.728 126.441 105.689 126.348C105.65 126.256 105.592 126.173 105.518 126.104C105.294 125.915 105.033 125.772 104.753 125.684L103.689 125.286C102.855 124.977 102.439 124.467 102.44 123.758C102.433 123.533 102.479 123.311 102.573 123.107C102.667 122.903 102.808 122.724 102.983 122.584C103.346 122.285 103.819 122.135 104.403 122.135C104.689 122.137 104.975 122.168 105.255 122.228C105.536 122.286 105.81 122.372 106.074 122.485V123.034C105.524 122.845 104.948 122.743 104.367 122.73C103.946 122.73 103.627 122.812 103.41 122.977C103.299 123.065 103.211 123.178 103.154 123.307C103.097 123.436 103.072 123.577 103.082 123.718C103.074 123.831 103.09 123.945 103.129 124.051C103.169 124.158 103.23 124.255 103.309 124.336C103.462 124.48 103.76 124.638 104.204 124.809L105.139 125.159C105.574 125.324 105.892 125.524 106.091 125.761C106.293 126.009 106.399 126.322 106.389 126.642C106.399 126.882 106.351 127.121 106.251 127.339C106.15 127.557 105.999 127.749 105.81 127.897C105.427 128.206 104.904 128.36 104.242 128.36C103.583 128.371 102.931 128.227 102.338 127.939V127.391C102.962 127.626 103.622 127.751 104.289 127.761C104.764 127.761 105.126 127.666 105.376 127.476C105.501 127.377 105.599 127.249 105.663 127.104C105.728 126.958 105.756 126.799 105.746 126.641Z" fill="#A166FF"/>
<path d="M107.935 125.357C107.943 126.174 108.122 126.777 108.472 127.166C108.823 127.555 109.364 127.75 110.096 127.75C110.761 127.752 111.418 127.612 112.024 127.341V127.89C111.417 128.215 110.735 128.376 110.045 128.357C109.118 128.357 108.421 128.094 107.954 127.569C107.487 127.043 107.253 126.263 107.253 125.228C107.253 124.248 107.488 123.487 107.959 122.946C108.43 122.405 109.089 122.134 109.938 122.135C110.647 122.135 111.19 122.338 111.567 122.742C111.944 123.146 112.133 123.726 112.135 124.482C112.139 124.775 112.116 125.068 112.064 125.357H107.935ZM109.886 122.73C108.655 122.73 108.005 123.426 107.935 124.819H111.488C111.495 124.71 111.499 124.582 111.499 124.435C111.499 123.874 111.362 123.45 111.089 123.162C110.816 122.875 110.415 122.73 109.886 122.73Z" fill="#A166FF"/>
<path d="M113.496 128.181V122.304H114.081L114.151 123.157C114.392 122.873 114.686 122.637 115.017 122.462C115.319 122.323 115.648 122.253 115.981 122.259C116.141 122.26 116.301 122.272 116.46 122.293V122.889C116.257 122.873 116.074 122.865 115.911 122.865C115.582 122.859 115.257 122.926 114.958 123.063C114.651 123.221 114.379 123.439 114.158 123.706V128.176L113.496 128.181Z" fill="#A166FF"/>
<path d="M124.212 127.669C124.741 127.677 125.269 127.607 125.777 127.459V124.75H123.697V124.132H126.466V127.81C125.725 128.157 124.914 128.328 124.095 128.311C121.517 128.311 120.228 126.93 120.228 124.168C120.228 122.814 120.554 121.78 121.208 121.068C121.862 120.355 122.811 119.999 124.053 120C124.792 120 125.522 120.154 126.198 120.451V121.047C125.829 120.918 125.452 120.813 125.07 120.732C124.753 120.669 124.43 120.638 124.106 120.638C123.034 120.638 122.24 120.91 121.723 121.456C121.206 122.001 120.949 122.853 120.951 124.012V124.304C120.951 125.448 121.218 126.295 121.751 126.843C122.285 127.392 123.105 127.667 124.212 127.669Z" fill="#A166FF"/>
<path d="M128.126 128.181V122.304H128.71L128.781 123.157C129.022 122.872 129.316 122.637 129.646 122.463C129.948 122.323 130.277 122.253 130.61 122.259C130.77 122.26 130.93 122.272 131.089 122.293V122.889C130.886 122.873 130.703 122.865 130.539 122.865C130.211 122.859 129.886 122.927 129.587 123.063C129.28 123.221 129.007 123.44 128.787 123.706V128.176L128.126 128.181Z" fill="#A166FF"/>
<path d="M134.318 128.36C133.461 128.36 132.795 128.085 132.319 127.537C131.843 126.988 131.606 126.223 131.607 125.243C131.607 124.262 131.844 123.499 132.319 122.955C132.794 122.41 133.46 122.137 134.318 122.135C135.174 122.135 135.84 122.408 136.316 122.952C136.791 123.497 137.029 124.259 137.028 125.241C137.028 126.221 136.791 126.985 136.316 127.534C135.841 128.083 135.175 128.358 134.318 128.36ZM134.318 127.753C135.665 127.753 136.339 126.916 136.339 125.243C136.339 123.57 135.665 122.736 134.318 122.742C132.97 122.742 132.296 123.575 132.296 125.241C132.296 126.906 132.97 127.743 134.318 127.75V127.753Z" fill="#A166FF"/>
<path d="M142.499 128.182L142.428 127.54C141.688 128.087 140.922 128.36 140.131 128.36C139.57 128.36 139.139 128.208 138.84 127.904C138.541 127.6 138.391 127.157 138.39 126.574V122.305H139.057V126.286C139.057 126.8 139.153 127.171 139.348 127.398C139.544 127.626 139.851 127.743 140.271 127.743C140.637 127.745 141 127.686 141.346 127.568C141.728 127.426 142.09 127.234 142.421 126.995V122.305H143.088V128.177L142.499 128.182Z" fill="#A166FF"/>
<path d="M144.788 130.584V122.305H145.372L145.431 122.958C145.746 122.696 146.098 122.484 146.477 122.328C146.81 122.197 147.165 122.13 147.523 122.13C148.278 122.13 148.873 122.401 149.31 122.941C149.747 123.481 149.965 124.223 149.965 125.165C149.965 126.123 149.735 126.886 149.276 127.454C148.816 128.021 148.198 128.305 147.42 128.305C146.687 128.302 145.982 128.021 145.45 127.517V130.584H144.788ZM147.394 122.74C146.747 122.74 146.1 122.989 145.454 123.487V126.906C145.733 127.153 146.048 127.356 146.389 127.508C146.692 127.637 147.018 127.702 147.347 127.701C147.986 127.701 148.467 127.493 148.791 127.077C149.115 126.661 149.277 126.04 149.276 125.215C149.276 123.567 148.649 122.743 147.394 122.742V122.74Z" fill="#A166FF"/>
<path d="M154.356 126.641C154.357 126.54 154.338 126.441 154.299 126.348C154.259 126.256 154.201 126.173 154.128 126.104C153.903 125.915 153.643 125.772 153.362 125.684L152.299 125.286C151.465 124.977 151.048 124.467 151.048 123.758C151.042 123.533 151.088 123.311 151.182 123.107C151.277 122.903 151.417 122.724 151.592 122.584C151.955 122.285 152.429 122.135 153.012 122.135C153.299 122.137 153.584 122.168 153.865 122.228C154.145 122.286 154.419 122.372 154.682 122.485V123.034C154.133 122.845 153.557 122.742 152.976 122.73C152.556 122.73 152.237 122.812 152.019 122.977C151.909 123.065 151.821 123.178 151.764 123.307C151.707 123.436 151.682 123.577 151.691 123.718C151.683 123.831 151.699 123.945 151.739 124.052C151.778 124.158 151.839 124.255 151.919 124.336C152.071 124.48 152.369 124.638 152.813 124.809L153.748 125.159C154.184 125.324 154.501 125.524 154.701 125.761C154.903 126.009 155.009 126.322 154.999 126.642C155.008 126.882 154.961 127.121 154.86 127.339C154.76 127.557 154.609 127.749 154.42 127.897C154.036 128.206 153.512 128.36 152.85 128.36C152.191 128.371 151.539 128.227 150.945 127.939V127.391C151.57 127.625 152.23 127.751 152.897 127.761C153.372 127.761 153.735 127.666 153.985 127.476C154.109 127.377 154.208 127.249 154.272 127.104C154.337 126.958 154.366 126.799 154.356 126.641Z" fill="#A166FF"/>
<path d="M87.938 144.734C87.2007 145.023 86.3607 145.168 85.418 145.168C83.8687 145.168 82.6973 144.757 81.904 143.936C81.12 143.115 80.728 141.901 80.728 140.296C80.728 138.644 81.134 137.375 81.946 136.488C82.7673 135.592 83.9433 135.144 85.474 135.144C86.314 135.144 87.0887 135.27 87.798 135.522V136.922C86.874 136.726 86.1507 136.628 85.628 136.628C84.5733 136.628 83.7893 136.903 83.276 137.454C82.7627 138.005 82.506 138.854 82.506 140.002V140.338C82.506 141.477 82.758 142.321 83.262 142.872C83.7753 143.413 84.5547 143.684 85.6 143.684C86.188 143.684 86.9673 143.567 87.938 143.334V144.734ZM95.5905 145L94.7785 142.564H91.0545L90.2705 145H88.5065L92.0345 135.298H93.8825L97.3965 145H95.5905ZM91.4605 141.318H94.3865L92.9165 136.838L91.4605 141.318ZM106.726 145V137.734L104.192 142.564H102.652L100.202 137.762V145H98.6617V135.298H100.538L103.464 141.08L106.446 135.298H108.266V145H106.726ZM110.556 145V135.298H116.73V136.67H112.264V139.33H115.974V140.702H112.264V143.628H116.73V145H110.556ZM118.5 145V135.298H122.126C123.078 135.298 123.838 135.559 124.408 136.082C124.986 136.595 125.276 137.291 125.276 138.168C125.276 138.803 125.112 139.349 124.786 139.806C124.468 140.263 124.002 140.613 123.386 140.856L125.892 145H124.1L121.832 141.15H120.166V145H118.5ZM120.166 139.834H121.916C123.036 139.834 123.596 139.297 123.596 138.224C123.596 137.151 123.05 136.614 121.958 136.614H120.166V139.834ZM128.388 140.156C128.388 141.351 128.635 142.261 129.13 142.886C129.624 143.502 130.343 143.81 131.286 143.81C132.228 143.81 132.947 143.502 133.442 142.886C133.936 142.261 134.184 141.351 134.184 140.156C134.184 138.961 133.936 138.056 133.442 137.44C132.947 136.815 132.228 136.502 131.286 136.502C130.343 136.502 129.624 136.815 129.13 137.44C128.635 138.056 128.388 138.961 128.388 140.156ZM126.652 140.156C126.652 139.129 126.834 138.233 127.198 137.468C127.562 136.703 128.094 136.115 128.794 135.704C129.494 135.284 130.324 135.074 131.286 135.074C132.219 135.074 133.031 135.275 133.722 135.676C134.422 136.077 134.963 136.661 135.346 137.426C135.728 138.191 135.92 139.101 135.92 140.156C135.92 141.183 135.738 142.079 135.374 142.844C135.01 143.609 134.478 144.202 133.778 144.622C133.078 145.033 132.247 145.238 131.286 145.238C130.352 145.238 129.536 145.037 128.836 144.636C128.145 144.235 127.608 143.651 127.226 142.886C126.843 142.121 126.652 141.211 126.652 140.156ZM139.107 140.156C139.107 141.351 139.354 142.261 139.849 142.886C140.343 143.502 141.062 143.81 142.005 143.81C142.947 143.81 143.666 143.502 144.161 142.886C144.655 142.261 144.903 141.351 144.903 140.156C144.903 138.961 144.655 138.056 144.161 137.44C143.666 136.815 142.947 136.502 142.005 136.502C141.062 136.502 140.343 136.815 139.849 137.44C139.354 138.056 139.107 138.961 139.107 140.156ZM137.371 140.156C137.371 139.129 137.553 138.233 137.917 137.468C138.281 136.703 138.813 136.115 139.513 135.704C140.213 135.284 141.043 135.074 142.005 135.074C142.938 135.074 143.75 135.275 144.441 135.676C145.141 136.077 145.682 136.661 146.065 137.426C146.447 138.191 146.639 139.101 146.639 140.156C146.639 141.183 146.457 142.079 146.093 142.844C145.729 143.609 145.197 144.202 144.497 144.622C143.797 145.033 142.966 145.238 142.005 145.238C141.071 145.238 140.255 145.037 139.555 144.636C138.864 144.235 138.327 143.651 137.945 142.886C137.562 142.121 137.371 141.211 137.371 140.156ZM150.049 137.678V145H148.509V135.298H150.343L154.781 142.62V135.298H156.321V145H154.487L150.049 137.678Z" fill="#232F3E"/>
</svg>
