<svg width="2295" height="654" viewBox="0 0 2295 654" fill="none" xmlns="http://www.w3.org/2000/svg">
<path d="M95.3639 502.99C64.3293 502.99 40.7427 494.786 24.5983 478.367C8.44815 461.955 0.374512 437.961 0.374512 406.393C0.374512 375.368 8.80979 351.287 25.6803 334.149C42.548 317.013 66.0428 308.441 96.1733 308.441C110.607 308.441 124.137 310.335 136.768 314.124C139.653 315.028 141.59 316.244 142.586 317.777C143.576 319.312 144.076 321.794 144.076 325.218V347.947C144.076 352.817 142.181 355.253 138.39 355.253C137.486 355.253 135.233 354.803 131.625 353.899C122.785 351.913 113.942 350.923 105.105 350.923C88.5043 350.923 75.9677 355.296 67.4893 364.046C59.0081 372.796 54.769 385.739 54.769 402.875V408.827C54.769 425.603 58.8704 438.414 67.0818 447.25C75.2903 456.089 87.4194 460.509 103.481 460.509C114.665 460.509 125.13 459.338 134.874 456.993C137.758 456.273 139.831 455.908 141.099 455.908C144.885 455.908 146.779 458.342 146.779 463.215V485.944C146.779 489.373 146.28 491.855 145.292 493.385C144.299 494.918 142.356 496.137 139.472 497.038C127.202 501.004 112.501 502.99 95.3639 502.99Z" fill="white"/>
<path d="M255.292 462.675C268.999 462.675 279.332 457.896 286.278 448.334C293.223 438.775 296.699 424.704 296.699 406.122C296.699 387.182 293.177 372.887 286.143 363.236C279.108 353.585 268.824 348.761 255.292 348.761C241.762 348.761 231.521 353.542 224.579 363.101C217.63 372.664 214.16 386.734 214.16 405.313C214.16 424.076 217.63 438.324 224.579 448.062C231.521 457.805 241.762 462.675 255.292 462.675ZM255.292 504.074C235.626 504.074 218.666 499.97 204.416 491.763C190.166 483.555 179.34 472.059 171.944 457.262C164.544 442.474 160.848 425.158 160.848 405.313C160.848 384.929 164.725 367.386 172.483 352.684C180.241 337.982 191.199 326.753 205.363 318.996C219.524 311.241 236.168 307.359 255.292 307.359C274.955 307.359 291.914 311.419 306.17 319.538C320.418 327.657 331.29 339.11 338.778 353.901C346.26 368.695 350.008 386.097 350.008 406.122C350.008 426.509 346.125 444.096 338.37 458.886C330.612 473.68 319.605 484.91 305.355 492.575C291.105 500.24 274.412 504.074 255.292 504.074Z" fill="white"/>
<path d="M392.763 499.475C389.876 499.475 387.8 498.843 386.538 497.581C385.275 496.321 384.643 494.246 384.643 491.356V320.078C384.643 317.013 385.275 314.895 386.538 313.719C387.8 312.548 389.876 311.962 392.763 311.962H433.355C435.878 311.962 437.821 312.367 439.173 313.176C440.527 313.991 441.833 315.748 443.096 318.454L485.585 413.699L528.611 318.454C529.871 315.748 531.183 313.991 532.535 313.176C533.889 312.367 535.827 311.962 538.355 311.962H577.053C580.116 311.962 582.237 312.548 583.413 313.719C584.581 314.895 585.17 317.013 585.17 320.078V491.356C585.17 494.246 584.581 496.321 583.413 497.581C582.237 498.843 580.116 499.475 577.053 499.475H548.366C545.479 499.475 543.401 498.843 542.144 497.581C540.878 496.321 540.25 494.246 540.25 491.356V383.667L510.751 450.229C509.488 452.932 508.182 454.694 506.827 455.507C505.475 456.316 503.535 456.723 501.009 456.723H468.807C466.275 456.723 464.338 456.316 462.989 455.507C461.634 454.694 460.323 452.932 459.065 450.229L429.566 383.667V491.356C429.566 494.246 428.978 496.321 427.807 497.581C426.633 498.843 424.515 499.475 421.447 499.475H392.763Z" fill="white"/>
<path d="M633.337 499.475C630.45 499.475 628.375 498.843 627.115 497.581C625.852 496.321 625.22 494.246 625.22 491.356V320.078C625.22 317.013 625.852 314.895 627.115 313.719C628.375 312.548 630.45 311.962 633.337 311.962H673.932C676.455 311.962 678.395 312.367 679.75 313.176C681.104 313.991 682.41 315.748 683.673 318.454L726.159 413.699L769.188 318.454C770.445 315.748 771.76 313.991 773.112 313.176C774.464 312.367 776.401 311.962 778.929 311.962H817.627C820.693 311.962 822.814 312.548 823.987 313.719C825.158 314.895 825.747 317.013 825.747 320.078V491.356C825.747 494.246 825.158 496.321 823.987 497.581C822.814 498.843 820.693 499.475 817.627 499.475H788.943C786.053 499.475 783.978 498.843 782.718 497.581C781.452 496.321 780.824 494.246 780.824 491.356V383.667L751.325 450.229C750.062 452.932 748.756 454.694 747.401 455.507C746.049 456.316 744.109 456.723 741.586 456.723H709.381C706.852 456.723 704.915 456.316 703.563 455.507C702.208 454.694 700.9 452.932 699.64 450.229L670.141 383.667V491.356C670.141 494.246 669.555 496.321 668.384 497.581C667.207 498.843 665.089 499.475 662.024 499.475H633.337Z" fill="white"/>
<path d="M946.71 504.072C920.729 504.072 900.57 497.713 886.228 485C871.886 472.281 864.713 454.195 864.713 430.743V320.076C864.713 317.014 865.342 314.896 866.607 313.716C867.867 312.545 869.942 311.96 872.833 311.96H908.824C911.889 311.96 914.005 312.545 915.184 313.716C916.355 314.896 916.941 317.014 916.941 320.076V432.371C916.941 442.291 919.466 449.822 924.521 454.964C929.566 460.104 936.965 462.673 946.71 462.673C966.737 462.673 976.748 452.574 976.748 432.371V320.076C976.748 317.014 977.38 314.896 978.642 313.716C979.9 312.545 981.978 311.96 984.868 311.96H1020.86C1023.92 311.96 1026.04 312.545 1027.22 313.716C1028.39 314.896 1028.98 317.014 1028.98 320.076V431.016C1028.98 454.284 1021.76 472.281 1007.33 485C992.893 497.713 972.69 504.072 946.71 504.072Z" fill="white"/>
<path d="M1076.06 499.475C1073.17 499.475 1071.1 498.843 1069.84 497.581C1068.57 496.321 1067.94 494.246 1067.94 491.356V320.078C1067.94 317.013 1068.57 314.895 1069.84 313.719C1071.1 312.548 1073.17 311.962 1076.06 311.962H1114.22C1117.28 311.962 1119.58 312.413 1121.12 313.314C1122.65 314.218 1124.05 315.748 1125.31 317.914L1187.82 430.476V320.078C1187.82 317.013 1188.45 314.895 1189.72 313.719C1190.98 312.548 1193.06 311.962 1195.95 311.962H1224.63C1227.69 311.962 1229.81 312.548 1230.99 313.719C1232.16 314.895 1232.75 317.013 1232.75 320.078V491.356C1232.75 494.246 1232.16 496.321 1230.99 497.581C1229.81 498.843 1227.69 499.475 1224.63 499.475H1186.47C1183.4 499.475 1181.1 499.027 1179.57 498.12C1178.04 497.222 1176.64 495.686 1175.38 493.523L1112.86 382.04V491.356C1112.86 494.246 1112.28 496.321 1111.11 497.581C1109.93 498.843 1107.81 499.475 1104.75 499.475H1076.06Z" fill="white"/>
<path d="M1282 499.475C1279.11 499.475 1277.04 498.843 1275.78 497.581C1274.51 496.321 1273.88 494.246 1273.88 491.356V320.078C1273.88 317.013 1274.51 314.895 1275.78 313.719C1277.04 312.548 1279.11 311.962 1282 311.962H1317.99C1321.05 311.962 1323.18 312.548 1324.35 313.719C1325.52 314.895 1326.11 317.013 1326.11 320.078V491.356C1326.11 494.246 1325.52 496.321 1324.35 497.581C1323.18 498.843 1321.05 499.475 1317.99 499.475H1282Z" fill="white"/>
<path d="M1412.16 499.475C1409.28 499.475 1407.2 498.843 1405.94 497.581C1404.68 496.321 1404.05 494.246 1404.05 491.356V352.817H1357.77C1354.88 352.817 1352.8 352.188 1351.55 350.923C1350.28 349.663 1349.65 347.588 1349.65 344.698V320.078C1349.65 317.013 1350.28 314.895 1351.55 313.719C1352.8 312.548 1354.88 311.962 1357.77 311.962H1502.55C1505.62 311.962 1507.73 312.548 1508.91 313.719C1510.08 314.895 1510.67 317.013 1510.67 320.078V344.698C1510.67 347.588 1510.08 349.663 1508.91 350.923C1507.73 352.188 1505.62 352.817 1502.55 352.817H1456.28V491.356C1456.28 494.246 1455.69 496.321 1454.52 497.581C1453.34 498.843 1451.22 499.475 1448.16 499.475H1412.16Z" fill="white"/>
<path d="M1595.64 499.475C1592.75 499.475 1590.67 498.843 1589.41 497.581C1588.15 496.321 1587.52 494.246 1587.52 491.356V428.852L1530.96 325.491C1528.79 321.702 1527.71 318.996 1527.71 317.372C1527.71 313.768 1530.05 311.962 1534.75 311.962H1573.17C1576.06 311.962 1578.36 312.502 1580.07 313.584C1581.79 314.666 1583.19 316.471 1584.27 318.996L1615.12 391.51L1646.51 318.996C1647.59 316.471 1648.99 314.666 1650.71 313.584C1652.42 312.502 1654.72 311.962 1657.61 311.962H1693.33C1698.02 311.962 1700.36 313.768 1700.36 317.372C1700.36 318.996 1699.28 321.702 1697.12 325.491L1639.74 429.394V491.356C1639.74 494.246 1639.16 496.321 1637.99 497.581C1636.81 498.843 1634.69 499.475 1631.63 499.475H1595.64Z" fill="white"/>
<path d="M1827.27 459.428H1845.14C1872.38 459.428 1886 442.289 1886 408.015V403.145C1886 369.052 1872.55 352.003 1845.68 352.003H1827.27V459.428ZM1783.16 499.473C1780.28 499.473 1778.2 498.841 1776.94 497.579C1775.67 496.319 1775.05 494.244 1775.05 491.354V320.076C1775.05 317.014 1775.67 314.893 1776.94 313.717C1778.2 312.546 1780.28 311.96 1783.16 311.96H1848.38C1877.24 311.96 1899.62 320.076 1915.49 336.311C1931.37 352.545 1939.31 375.638 1939.31 405.579C1939.31 425.245 1935.79 442.154 1928.75 456.314C1921.72 470.479 1911.66 481.209 1898.58 488.516C1885.5 495.822 1869.85 499.473 1851.63 499.473H1783.16Z" fill="white"/>
<path d="M2059.46 426.415L2039.98 356.878L2021.03 426.415H2059.46ZM1955.27 499.475C1950.58 499.475 1948.24 497.672 1948.24 494.062C1948.24 492.622 1948.96 489.915 1950.4 485.944L2010.21 318.454C2011.11 315.928 2012.19 314.218 2013.46 313.314C2014.72 312.413 2016.79 311.962 2019.68 311.962H2062.98C2065.86 311.962 2067.94 312.413 2069.2 313.314C2070.46 314.218 2071.55 315.928 2072.45 318.454L2132.53 485.944C2133.97 489.915 2134.69 492.622 2134.69 494.062C2134.69 497.672 2132.35 499.475 2127.66 499.475H2087.06C2084.17 499.475 2082.06 498.935 2080.7 497.853C2079.35 496.768 2078.22 494.605 2077.32 491.356L2069.2 463.215H2011.29L2003.44 491.356C2002.54 494.605 2001.41 496.768 2000.06 497.853C1998.71 498.935 1996.58 499.475 1993.7 499.475H1955.27Z" fill="white"/>
<path d="M2189.9 499.475C2187.01 499.475 2184.93 498.843 2183.67 497.581C2182.41 496.321 2181.78 494.246 2181.78 491.356V428.852L2125.22 325.491C2123.05 321.702 2121.97 318.996 2121.97 317.372C2121.97 313.768 2124.31 311.962 2129.01 311.962H2167.44C2170.32 311.962 2172.62 312.502 2174.33 313.584C2176.05 314.666 2177.45 316.471 2178.53 318.996L2209.38 391.51L2240.77 318.996C2241.85 316.471 2243.25 314.666 2244.97 313.584C2246.68 312.502 2248.98 311.962 2251.87 311.962H2287.59C2292.28 311.962 2294.62 313.768 2294.62 317.372C2294.62 318.996 2293.54 321.702 2291.38 325.491L2234 429.394V491.356C2234 494.246 2233.42 496.321 2232.25 497.581C2231.07 498.843 2228.95 499.475 2225.89 499.475H2189.9Z" fill="white"/>
<path d="M1299.2 124.684C1292.28 124.684 1285.51 123.912 1278.91 122.379C1272.29 120.844 1267.22 119.073 1263.69 117.076C1261.53 115.845 1260.19 114.619 1259.65 113.385C1259.11 112.157 1258.84 110.929 1258.84 109.695V103.008C1258.84 100.242 1259.84 98.8583 1261.84 98.8583C1262.61 98.8583 1263.41 99.0133 1264.26 99.3204C1265.1 99.6303 1266.22 100.089 1267.61 100.704C1272.06 102.701 1276.91 104.239 1282.14 105.313C1287.36 106.392 1292.59 106.928 1297.82 106.928C1306.12 106.928 1312.54 105.47 1317.08 102.549C1321.61 99.6303 1323.88 95.4777 1323.88 90.0969C1323.88 86.4063 1322.69 83.3328 1320.31 80.8705C1317.92 78.4139 1313.5 76.1095 1307.04 73.9543L1287.9 67.9593C1278.22 64.8857 1271.18 60.429 1266.8 54.5832C1262.42 48.746 1260.23 42.3636 1260.23 35.4446C1260.23 29.9116 1261.42 25.033 1263.8 20.8029C1266.18 16.5785 1269.34 12.9626 1273.26 9.96368C1277.18 6.96762 1281.75 4.70048 1286.98 3.16227C1292.2 1.6298 1297.74 0.857834 1303.58 0.857834C1306.5 0.857834 1309.46 1.05011 1312.46 1.43466C1315.46 1.81921 1318.3 2.31856 1320.99 2.93269C1323.68 3.5497 1326.18 4.24132 1328.49 5.00755C1330.8 5.77953 1332.64 6.54576 1334.02 7.31487C1335.87 8.39104 1337.17 9.47008 1337.95 10.5434C1338.71 11.6196 1339.1 13.0774 1339.1 14.9227V21.1473C1339.1 23.9166 1338.1 25.2998 1336.1 25.2998C1335.02 25.2998 1333.33 24.7632 1331.03 23.687C1323.49 20.3064 1315.04 18.6132 1305.66 18.6132C1298.13 18.6132 1292.28 19.8444 1288.13 22.3009C1283.98 24.7632 1281.91 28.6833 1281.91 34.0613C1281.91 37.7519 1283.21 40.8627 1285.83 43.3996C1288.44 45.9365 1293.28 48.3586 1300.35 50.6659L1319.03 56.6609C1328.56 59.7373 1335.37 63.9645 1339.44 69.3425C1343.51 74.7263 1345.55 80.8705 1345.55 87.7896C1345.55 93.4775 1344.4 98.5914 1342.1 103.123C1339.79 107.66 1336.6 111.54 1332.52 114.768C1328.45 117.997 1323.57 120.459 1317.88 122.147C1312.19 123.837 1305.96 124.684 1299.2 124.684ZM1129.93 121.225C1127.62 121.225 1125.93 120.804 1124.86 119.957C1123.78 119.113 1122.86 117.386 1122.09 114.768L1091.19 12.8478C1090.41 10.2363 1090.03 8.46564 1090.03 7.54444C1090.03 5.39497 1091.11 4.31593 1093.26 4.31593H1106.18C1108.63 4.31593 1110.36 4.74066 1111.36 5.58438C1112.36 6.43097 1113.24 8.15858 1114.02 10.773L1136.16 97.9371L1156.68 10.773C1157.29 8.15858 1158.14 6.43097 1159.22 5.58438C1160.29 4.74066 1162.06 4.31593 1164.52 4.31593H1175.13C1177.59 4.31593 1179.36 4.74066 1180.43 5.58438C1181.51 6.43097 1182.35 8.15858 1182.97 10.773L1203.72 99.0908L1226.56 10.773C1227.33 8.15858 1228.21 6.43097 1229.21 5.58438C1230.21 4.74066 1231.93 4.31593 1234.4 4.31593H1246.62C1248.77 4.31593 1249.85 5.39497 1249.85 7.54444C1249.85 8.15858 1249.77 8.85307 1249.62 9.6193C1249.47 10.3913 1249.16 11.4646 1248.7 12.8478L1216.87 114.768C1216.1 117.386 1215.18 119.113 1214.11 119.957C1213.03 120.804 1211.34 121.225 1209.03 121.225H1197.73C1195.27 121.225 1193.5 120.763 1192.43 119.842C1191.35 118.918 1190.5 117.153 1189.89 114.539L1169.37 29.682L1149.07 114.539C1148.45 117.153 1147.61 118.918 1146.53 119.842C1145.46 120.763 1143.69 121.225 1141.23 121.225H1129.93ZM1024.07 106.928C1028.38 106.928 1032.91 106.122 1037.68 104.506C1042.45 102.893 1046.6 100.089 1050.14 96.0919C1052.29 93.6353 1053.79 90.8258 1054.63 87.6748C1055.48 84.5237 1055.9 80.7213 1055.9 76.2587V70.7258C1052.06 69.8017 1048.02 69.0756 1043.79 68.5361C1039.56 67.9995 1035.45 67.7297 1031.46 67.7297C1022.69 67.7297 1016.16 69.4975 1011.85 73.0302C1007.55 76.5687 1005.4 81.6425 1005.4 88.2516C1005.4 94.4016 1007.01 99.0535 1010.24 102.202C1013.47 105.356 1018.08 106.928 1024.07 106.928ZM1077.58 86.8684C1077.58 91.79 1078.08 95.7073 1079.08 98.6259C1080.08 101.547 1081.5 104.701 1083.35 108.082C1083.96 109.158 1084.27 110.157 1084.27 111.078C1084.27 112.461 1083.42 113.77 1081.73 114.998L1073.43 120.534C1072.2 121.3 1071.04 121.688 1069.97 121.688C1068.58 121.688 1067.28 121.073 1066.05 119.842C1064.2 117.997 1062.63 115.959 1061.32 113.732C1060.01 111.506 1058.67 108.928 1057.29 106.007C1046.98 118.152 1034.07 124.224 1018.54 124.224C1007.47 124.224 998.709 121.073 992.251 114.768C985.793 108.466 982.564 100.012 982.564 89.4024C982.564 78.1844 986.563 69.1503 994.556 62.3087C1002.55 55.47 1013.31 52.0463 1026.84 52.0463C1031.3 52.0463 1035.95 52.3935 1040.8 53.0852C1045.64 53.7768 1050.67 54.7382 1055.9 55.9693V46.2838C1055.9 36.2911 1053.83 29.2602 1049.68 25.1851C1045.52 21.1128 1038.37 19.0753 1028.23 19.0753C1023.62 19.0753 1018.89 19.6492 1014.04 20.8029C1009.2 21.9565 1004.47 23.4546 999.863 25.2998C997.707 26.221 996.172 26.7979 995.25 27.0303C994.326 27.2599 993.634 27.3747 993.175 27.3747C991.327 27.3747 990.406 25.9915 990.406 23.225V16.768C990.406 14.6156 990.713 13.0774 991.327 12.1562C991.941 11.2321 993.175 10.3109 995.018 9.38972C999.63 7.08241 1005.17 5.08791 1011.62 3.39472C1018.08 1.70442 1024.92 0.857834 1032.15 0.857834C1047.83 0.857834 1059.32 4.43073 1066.62 11.5794C1073.93 18.728 1077.58 29.5299 1077.58 43.9764V86.8684Z" fill="white"/>
<path fill-rule="evenodd" clip-rule="evenodd" d="M1324.13 189.573C1280.74 221.589 1217.83 238.615 1163.67 238.615C1087.76 238.615 1019.39 210.557 967.661 163.851C963.597 160.184 967.219 155.176 972.104 158.014C1027.92 190.489 1096.94 210.046 1168.23 210.046C1216.32 210.046 1269.18 200.068 1317.82 179.437C1325.15 176.326 1331.31 184.27 1324.13 189.573Z" fill="#FF9900"/>
<path fill-rule="evenodd" clip-rule="evenodd" d="M1342.18 168.963C1336.63 161.86 1305.5 165.597 1291.51 167.273C1287.27 167.78 1286.62 164.078 1290.44 161.398C1315.27 143.955 1355.97 148.992 1360.7 154.832C1365.46 160.721 1359.45 201.518 1336.17 220.986C1332.59 223.98 1329.19 222.384 1330.77 218.429C1336.01 205.352 1347.74 176.071 1342.18 168.963Z" fill="#FF9900"/>
<path d="M691.195 600.205H186.533H691.195Z" fill="white"/>
<path d="M691.195 600.205H186.533" stroke="white" stroke-width="2.66667" stroke-miterlimit="10"/>
<path d="M2110.1 600.205H1605.44H2110.1Z" fill="white"/>
<path d="M2110.1 600.205H1605.44" stroke="white" stroke-width="2.66667" stroke-miterlimit="10"/>
<path d="M860.14 649.523C853.221 652.166 845.491 653.488 836.949 653.488C822.513 653.488 811.579 649.651 804.147 641.975C796.716 634.215 793 622.872 793 607.948C793 593.194 796.887 581.766 804.66 573.664C812.433 565.563 823.367 561.512 837.461 561.512C844.978 561.512 852.111 562.706 858.859 565.094V580.188C851.086 578.483 844.722 577.63 839.767 577.63C830.884 577.63 824.221 579.975 819.779 584.666C815.423 589.356 813.245 596.52 813.245 606.157V609.099C813.245 618.651 815.38 625.772 819.651 630.462C823.922 635.067 830.457 637.37 839.255 637.37C844.209 637.37 851.171 636.389 860.14 634.428V649.523Z" fill="#FF9900"/>
<path d="M927.695 651.825L921.416 631.613H891.049L885.027 651.825H864.911L896.175 563.175H917.316L948.58 651.825H927.695ZM895.15 617.798H917.444L906.169 580.7L895.15 617.798Z" fill="#FF9900"/>
<path d="M1032.89 651.825V590.422L1013.29 630.206H996.121L976.517 590.422V651.825H959.604V563.175H980.617L1004.83 613.576L1029.18 563.175H1049.81V651.825H1032.89Z" fill="#FF9900"/>
<path d="M1070.34 651.825V563.175H1128.77V578.014H1089.56V598.993H1121.47V613.832H1089.56V636.986H1128.77V651.825H1070.34Z" fill="#FF9900"/>
<path d="M1144.42 651.825V563.175H1178.63C1187.85 563.175 1195.16 565.605 1200.54 570.466C1205.92 575.327 1208.61 581.937 1208.61 590.294C1208.61 595.411 1207.2 600.017 1204.38 604.11C1201.56 608.204 1197.59 611.402 1192.47 613.704L1214.5 651.825H1194.64L1175.42 617.414H1162.87V651.825H1144.42ZM1162.87 604.11H1176.19C1185.16 604.11 1189.65 599.59 1189.65 590.55C1189.65 581.681 1185.25 577.246 1176.45 577.246H1162.87V604.11Z" fill="#FF9900"/>
<path d="M1240.67 607.436C1240.67 617.499 1242.67 625.175 1246.69 630.462C1250.7 635.75 1256.55 638.393 1264.24 638.393C1271.93 638.393 1277.78 635.75 1281.8 630.462C1285.81 625.175 1287.82 617.499 1287.82 607.436C1287.82 597.373 1285.81 589.74 1281.8 584.538C1277.78 579.25 1271.93 576.607 1264.24 576.607C1256.55 576.607 1250.7 579.25 1246.69 584.538C1242.67 589.74 1240.67 597.373 1240.67 607.436ZM1220.93 607.436C1220.93 598.055 1222.6 589.868 1225.93 582.875C1229.35 575.882 1234.3 570.509 1240.79 566.757C1247.37 562.919 1255.19 561 1264.24 561C1273.04 561 1280.69 562.834 1287.18 566.501C1293.67 570.168 1298.67 575.498 1302.17 582.491C1305.76 589.399 1307.55 597.714 1307.55 607.436C1307.55 616.817 1305.84 625.004 1302.42 631.997C1299.09 638.99 1294.14 644.406 1287.56 648.243C1281.07 652.081 1273.3 654 1264.24 654C1255.44 654 1247.8 652.166 1241.31 648.499C1234.81 644.832 1229.77 639.502 1226.19 632.509C1222.69 625.516 1220.93 617.158 1220.93 607.436Z" fill="#FF9900"/>
<path d="M1342.64 607.436C1342.64 617.499 1344.65 625.175 1348.67 630.462C1352.68 635.75 1358.53 638.393 1366.22 638.393C1373.91 638.393 1379.76 635.75 1383.77 630.462C1387.79 625.175 1389.8 617.499 1389.8 607.436C1389.8 597.373 1387.79 589.74 1383.77 584.538C1379.76 579.25 1373.91 576.607 1366.22 576.607C1358.53 576.607 1352.68 579.25 1348.67 584.538C1344.65 589.74 1342.64 597.373 1342.64 607.436ZM1322.91 607.436C1322.91 598.055 1324.58 589.868 1327.91 582.875C1331.33 575.882 1336.28 570.509 1342.77 566.757C1349.35 562.919 1357.17 561 1366.22 561C1375.02 561 1382.66 562.834 1389.16 566.501C1395.65 570.168 1400.64 575.498 1404.15 582.491C1407.73 589.399 1409.53 597.714 1409.53 607.436C1409.53 616.817 1407.82 625.004 1404.4 631.997C1401.07 638.99 1396.12 644.406 1389.54 648.243C1383.05 652.081 1375.27 654 1366.22 654C1357.42 654 1349.78 652.166 1343.29 648.499C1336.79 644.832 1331.75 639.502 1328.17 632.509C1324.66 625.516 1322.91 617.158 1322.91 607.436Z" fill="#FF9900"/>
<path d="M1444.37 590.294V651.825H1427.45V563.175H1447.95L1484.09 625.217V563.175H1501V651.825H1480.5L1444.37 590.294Z" fill="#FF9900"/>
</svg>
