<svg width="2586" height="723" viewBox="0 0 2586 723" fill="none" xmlns="http://www.w3.org/2000/svg">
<path d="M107.619 566.688C72.6476 566.688 46.0692 557.442 27.877 538.941C9.67829 520.447 0.580566 493.41 0.580566 457.838C0.580566 422.877 10.0858 395.742 29.0963 376.43C48.1035 357.121 74.5784 347.462 108.531 347.462C124.795 347.462 140.041 349.596 154.275 353.864C157.525 354.883 159.708 356.254 160.83 357.981C161.946 359.711 162.509 362.508 162.509 366.366V391.978C162.509 397.466 160.374 400.211 156.102 400.211C155.083 400.211 152.545 399.704 148.479 398.685C138.518 396.447 128.553 395.331 118.595 395.331C99.889 395.331 85.7622 400.26 76.2084 410.12C66.6514 419.98 61.8746 434.564 61.8746 453.873V460.58C61.8746 479.485 66.4962 493.92 75.7492 503.877C84.9989 513.837 98.6665 518.818 116.765 518.818C129.368 518.818 141.16 517.498 152.14 514.856C155.391 514.044 157.726 513.634 159.155 513.634C163.421 513.634 165.556 516.376 165.556 521.867V547.479C165.556 551.343 164.993 554.14 163.88 555.864C162.761 557.591 160.572 558.965 157.321 559.981C143.495 564.45 126.93 566.688 107.619 566.688Z" fill="#252F3E"/>
<path d="M287.833 521.255C303.279 521.255 314.922 515.871 322.749 505.096C330.576 494.324 334.492 478.469 334.492 457.53C334.492 436.187 330.524 420.079 322.597 409.204C314.67 398.329 303.082 392.893 287.833 392.893C272.587 392.893 261.047 398.28 253.224 409.052C245.394 419.827 241.484 435.682 241.484 456.618C241.484 477.761 245.394 493.817 253.224 504.789C261.047 515.768 272.587 521.255 287.833 521.255ZM287.833 567.906C265.672 567.906 246.562 563.282 230.504 554.033C214.446 544.785 202.247 531.83 193.912 515.156C185.575 498.493 181.409 478.98 181.409 456.618C181.409 433.648 185.779 413.88 194.521 397.313C203.262 380.747 215.611 368.093 231.571 359.352C247.529 350.614 266.284 346.239 287.833 346.239C309.99 346.239 329.101 350.815 345.165 359.963C361.219 369.111 373.47 382.018 381.908 398.685C390.34 415.355 394.564 434.965 394.564 457.53C394.564 480.503 390.188 500.32 381.449 516.987C372.707 533.657 360.304 546.311 344.246 554.948C328.189 563.586 309.379 567.906 287.833 567.906Z" fill="#252F3E"/>
<path d="M442.741 562.723C439.487 562.723 437.149 562.011 435.726 560.588C434.303 559.169 433.591 556.831 433.591 553.574V360.571C433.591 357.117 434.303 354.731 435.726 353.405C437.149 352.086 439.487 351.426 442.741 351.426H488.482C491.324 351.426 493.514 351.882 495.037 352.794C496.564 353.712 498.035 355.691 499.458 358.741L547.337 466.068L595.821 358.741C597.24 355.691 598.718 353.712 600.242 352.794C601.768 351.882 603.951 351.426 606.801 351.426H650.407C653.858 351.426 656.248 352.086 657.574 353.405C658.89 354.731 659.553 357.117 659.553 360.571V553.574C659.553 556.831 658.89 559.169 657.574 560.588C656.248 562.011 653.858 562.723 650.407 562.723H618.081C614.828 562.723 612.486 562.011 611.07 560.588C609.643 559.169 608.935 556.831 608.935 553.574V432.226L575.694 507.231C574.271 510.277 572.8 512.262 571.273 513.178C569.75 514.089 567.564 514.549 564.718 514.549H528.43C525.578 514.549 523.395 514.089 521.874 513.178C520.348 512.262 518.87 510.277 517.453 507.231L484.213 432.226V553.574C484.213 556.831 483.55 559.169 482.23 560.588C480.907 562.011 478.52 562.723 475.063 562.723H442.741Z" fill="#252F3E"/>
<path d="M713.83 562.723C710.576 562.723 708.238 562.011 706.818 560.588C705.395 559.169 704.684 556.831 704.684 553.574V360.571C704.684 357.117 705.395 354.731 706.818 353.405C708.238 352.086 710.576 351.426 713.83 351.426H759.574C762.417 351.426 764.603 351.882 766.13 352.794C767.656 353.712 769.128 355.691 770.551 358.741L818.426 466.068L866.913 358.741C868.329 355.691 869.811 353.712 871.334 352.794C872.857 351.882 875.04 351.426 877.89 351.426H921.496C924.95 351.426 927.34 352.086 928.663 353.405C929.982 354.731 930.645 357.117 930.645 360.571V553.574C930.645 556.831 929.982 559.169 928.663 560.588C927.34 562.011 924.95 562.723 921.496 562.723H889.174C885.917 562.723 883.578 562.011 882.159 560.588C880.732 559.169 880.024 556.831 880.024 553.574V432.226L846.783 507.231C845.36 510.277 843.889 512.262 842.362 513.178C840.839 514.089 838.653 514.549 835.81 514.549H799.519C796.67 514.549 794.487 514.089 792.964 513.178C791.437 512.262 789.962 510.277 788.542 507.231L755.302 432.226V553.574C755.302 556.831 754.642 559.169 753.322 560.588C751.996 562.011 749.609 562.723 746.155 562.723H713.83Z" fill="#252F3E"/>
<path d="M1066.95 567.906C1037.68 567.906 1014.96 560.74 998.798 546.414C982.636 532.082 974.554 511.703 974.554 485.276V360.571C974.554 357.12 975.262 354.734 976.689 353.405C978.109 352.085 980.447 351.426 983.704 351.426H1024.26C1027.71 351.426 1030.1 352.085 1031.43 353.405C1032.75 354.734 1033.41 357.12 1033.41 360.571V487.11C1033.41 498.289 1036.25 506.774 1041.95 512.569C1047.63 518.361 1055.97 521.255 1066.95 521.255C1089.52 521.255 1100.8 509.876 1100.8 487.11V360.571C1100.8 357.12 1101.51 354.734 1102.93 353.405C1104.35 352.085 1106.69 351.426 1109.95 351.426H1150.51C1153.96 351.426 1156.35 352.085 1157.67 353.405C1158.99 354.734 1159.65 357.12 1159.65 360.571V485.583C1159.65 511.803 1151.52 532.082 1135.26 546.414C1118.99 560.74 1096.23 567.906 1066.95 567.906Z" fill="#252F3E"/>
<path d="M1212.71 562.723C1209.46 562.723 1207.12 562.011 1205.69 560.588C1204.27 559.169 1203.56 556.831 1203.56 553.574V360.571C1203.56 357.117 1204.27 354.731 1205.69 353.405C1207.12 352.086 1209.46 351.426 1212.71 351.426H1255.71C1259.16 351.426 1261.75 351.934 1263.48 352.949C1265.21 353.968 1266.78 355.691 1268.21 358.133L1338.65 484.972V360.571C1338.65 357.117 1339.36 354.731 1340.79 353.405C1342.21 352.086 1344.55 351.426 1347.8 351.426H1380.12C1383.58 351.426 1385.96 352.086 1387.29 353.405C1388.61 354.731 1389.27 357.117 1389.27 360.571V553.574C1389.27 556.831 1388.61 559.169 1387.29 560.588C1385.96 562.011 1383.58 562.723 1380.12 562.723H1337.13C1333.66 562.723 1331.08 562.218 1329.35 561.196C1327.62 560.184 1326.04 558.454 1324.62 556.016L1254.18 430.392V553.574C1254.18 556.831 1253.52 559.169 1252.2 560.588C1250.88 562.011 1248.49 562.723 1245.04 562.723H1212.71Z" fill="#252F3E"/>
<path d="M1444.77 562.723C1441.51 562.723 1439.18 562.011 1437.76 560.588C1436.33 559.169 1435.62 556.831 1435.62 553.574V360.571C1435.62 357.117 1436.33 354.731 1437.76 353.405C1439.18 352.086 1441.51 351.426 1444.77 351.426H1485.33C1488.78 351.426 1491.17 352.086 1492.49 353.405C1493.81 354.731 1494.47 357.117 1494.47 360.571V553.574C1494.47 556.831 1493.81 559.169 1492.49 560.588C1491.17 562.011 1488.78 562.723 1485.33 562.723H1444.77Z" fill="#252F3E"/>
<path d="M1591.45 562.723C1588.19 562.723 1585.85 562.011 1584.43 560.588C1583.01 559.169 1582.3 556.831 1582.3 553.574V397.462H1530.15C1526.9 397.462 1524.56 396.754 1523.14 395.328C1521.71 393.908 1521.01 391.57 1521.01 388.314V360.571C1521.01 357.117 1521.71 354.731 1523.14 353.405C1524.56 352.086 1526.9 351.426 1530.15 351.426H1693.3C1696.75 351.426 1699.14 352.086 1700.46 353.405C1701.78 354.731 1702.44 357.117 1702.44 360.571V388.314C1702.44 391.57 1701.78 393.908 1700.46 395.328C1699.14 396.754 1696.75 397.462 1693.3 397.462H1641.15V553.574C1641.15 556.831 1640.49 559.169 1639.17 560.588C1637.85 562.011 1635.46 562.723 1632 562.723H1591.45Z" fill="#252F3E"/>
<path d="M1798.19 562.723C1794.93 562.723 1792.6 562.011 1791.18 560.588C1789.75 559.169 1789.04 556.831 1789.04 553.574V483.142L1725.31 366.67C1722.87 362.401 1721.65 359.352 1721.65 357.522C1721.65 353.46 1724.29 351.426 1729.58 351.426H1772.88C1776.13 351.426 1778.72 352.034 1780.66 353.253C1782.59 354.472 1784.16 356.506 1785.38 359.352L1820.14 441.064L1855.52 359.352C1856.74 356.506 1858.31 354.472 1860.24 353.253C1862.18 352.034 1864.77 351.426 1868.02 351.426H1908.27C1913.56 351.426 1916.2 353.46 1916.2 357.522C1916.2 359.352 1914.98 362.401 1912.54 366.67L1847.89 483.753V553.574C1847.89 556.831 1847.23 559.169 1845.91 560.588C1844.59 562.011 1842.2 562.723 1838.75 562.723H1798.19Z" fill="#252F3E"/>
<path d="M2059.21 517.598H2079.34C2110.03 517.598 2125.38 498.286 2125.38 459.665V454.177C2125.38 415.759 2110.23 396.547 2079.94 396.547H2059.21V517.598ZM2009.5 562.723C2006.25 562.723 2003.91 562.011 2002.49 560.588C2001.06 559.169 2000.36 556.831 2000.36 553.574V360.571C2000.36 357.121 2001.06 354.731 2002.49 353.405C2003.91 352.086 2006.25 351.426 2009.5 351.426H2082.99C2115.52 351.426 2140.73 360.571 2158.62 378.865C2176.51 397.158 2185.46 423.181 2185.46 456.919C2185.46 479.08 2181.49 498.134 2173.56 514.089C2165.63 530.052 2154.3 542.143 2139.56 550.376C2124.82 558.609 2107.19 562.723 2086.65 562.723H2009.5Z" fill="#252F3E"/>
<path d="M2320.85 480.396L2298.89 402.038L2277.54 480.396H2320.85ZM2203.44 562.723C2198.15 562.723 2195.52 560.692 2195.52 556.624C2195.52 555 2196.32 551.951 2197.95 547.475L2265.35 358.741C2266.36 355.895 2267.58 353.968 2269.01 352.949C2270.43 351.934 2272.77 351.426 2276.02 351.426H2324.81C2328.06 351.426 2330.4 351.934 2331.83 352.949C2333.24 353.968 2334.47 355.895 2335.48 358.741L2403.18 547.475C2404.81 551.951 2405.62 555 2405.62 556.624C2405.62 560.692 2402.98 562.723 2397.69 562.723H2351.95C2348.7 562.723 2346.31 562.115 2344.78 560.896C2343.26 559.673 2341.99 557.235 2340.97 553.574L2331.83 521.864H2266.57L2257.72 553.574C2256.7 557.235 2255.44 559.673 2253.91 560.896C2252.39 562.115 2250 562.723 2246.74 562.723H2203.44Z" fill="#252F3E"/>
<path d="M2467.83 562.723C2464.57 562.723 2462.24 562.011 2460.81 560.588C2459.39 559.169 2458.68 556.831 2458.68 553.574V483.142L2394.94 366.67C2392.51 362.401 2391.29 359.352 2391.29 357.522C2391.29 353.46 2393.92 351.426 2399.21 351.426H2442.52C2445.77 351.426 2448.36 352.034 2450.29 353.253C2452.22 354.472 2453.8 356.506 2455.02 359.352L2489.78 441.064L2525.16 359.352C2526.38 356.506 2527.95 354.472 2529.88 353.253C2531.81 352.034 2534.4 351.426 2537.66 351.426H2577.91C2583.19 351.426 2585.84 353.46 2585.84 357.522C2585.84 359.352 2584.62 362.401 2582.18 366.67L2517.53 483.753V553.574C2517.53 556.831 2516.87 559.169 2515.55 560.588C2514.22 562.011 2511.84 562.723 2508.38 562.723H2467.83Z" fill="#252F3E"/>
<path d="M1464.15 140.395C1456.36 140.395 1448.73 139.525 1441.28 137.798C1433.83 136.068 1428.12 134.072 1424.13 131.822C1421.71 130.434 1420.19 129.054 1419.59 127.663C1418.98 126.279 1418.67 124.895 1418.67 123.504V115.97C1418.67 112.852 1419.8 111.294 1422.05 111.294C1422.92 111.294 1423.83 111.468 1424.78 111.814C1425.73 112.163 1426.99 112.681 1428.55 113.373C1433.57 115.624 1439.03 117.357 1444.92 118.566C1450.81 119.782 1456.7 120.387 1462.59 120.387C1471.95 120.387 1479.18 118.744 1484.3 115.452C1489.4 112.163 1491.96 107.484 1491.96 101.421C1491.96 97.2621 1490.62 93.7987 1487.93 91.0241C1485.24 88.2559 1480.26 85.6592 1472.99 83.2306L1451.42 76.4752C1440.51 73.0118 1432.58 67.9897 1427.64 61.4024C1422.71 54.8249 1420.24 47.6329 1420.24 39.8362C1420.24 33.6014 1421.58 28.1039 1424.26 23.3373C1426.95 18.5771 1430.5 14.5026 1434.92 11.1232C1439.33 7.74715 1444.49 5.19244 1450.38 3.45912C1456.27 1.73227 1462.5 0.862381 1469.09 0.862381C1472.38 0.862381 1475.72 1.07904 1479.1 1.51237C1482.48 1.94571 1485.68 2.50839 1488.71 3.20042C1491.74 3.89569 1494.55 4.67503 1497.16 5.53845C1499.76 6.40836 1501.83 7.27177 1503.39 8.13844C1505.47 9.35112 1506.94 10.567 1507.81 11.7765C1508.68 12.9891 1509.11 14.6319 1509.11 16.7112V23.7254C1509.11 26.846 1507.98 28.4047 1505.73 28.4047C1504.52 28.4047 1502.61 27.8 1500.02 26.5873C1491.52 22.7779 1482 20.8699 1471.43 20.8699C1462.94 20.8699 1456.36 22.2572 1451.68 25.0254C1447 27.8 1444.66 32.2173 1444.66 38.2775C1444.66 42.4362 1446.14 45.9416 1449.08 48.8003C1452.03 51.659 1457.48 54.3883 1465.45 56.9883L1486.5 63.7437C1497.24 67.2103 1504.91 71.9737 1509.5 78.0339C1514.09 84.1005 1516.39 91.0241 1516.39 98.8208C1516.39 105.23 1515.09 110.993 1512.49 116.099C1509.89 121.212 1506.29 125.584 1501.7 129.222C1497.11 132.86 1491.61 135.634 1485.2 137.536C1478.79 139.441 1471.77 140.395 1464.15 140.395ZM1273.41 136.498C1270.81 136.498 1268.9 136.022 1267.69 135.068C1266.48 134.118 1265.44 132.171 1264.58 129.222L1229.75 14.3732C1228.88 11.4305 1228.45 9.43518 1228.45 8.39714C1228.45 5.97502 1229.66 4.75911 1232.09 4.75911H1246.65C1249.41 4.75911 1251.36 5.23772 1252.49 6.18845C1253.62 7.14243 1254.61 9.08917 1255.48 12.0352L1280.43 110.255L1303.55 12.0352C1304.25 9.08917 1305.2 7.14243 1306.42 6.18845C1307.63 5.23772 1309.62 4.75911 1312.39 4.75911H1324.34C1327.12 4.75911 1329.11 5.23772 1330.32 6.18845C1331.53 7.14243 1332.48 9.08917 1333.18 12.0352L1356.57 111.555L1382.29 12.0352C1383.16 9.08917 1384.16 7.14243 1385.28 6.18845C1386.41 5.23772 1388.35 4.75911 1391.13 4.75911H1404.9C1407.33 4.75911 1408.54 5.97502 1408.54 8.39714C1408.54 9.08917 1408.45 9.87175 1408.28 10.7352C1408.11 11.6051 1407.76 12.8145 1407.24 14.3732L1371.38 129.222C1370.51 132.171 1369.47 134.118 1368.26 135.068C1367.05 136.022 1365.15 136.498 1362.55 136.498H1349.81C1347.04 136.498 1345.05 135.977 1343.84 134.939C1342.62 133.898 1341.67 131.909 1340.98 128.963L1317.85 33.3427L1294.98 128.963C1294.29 131.909 1293.33 133.898 1292.12 134.939C1290.91 135.977 1288.91 136.498 1286.14 136.498H1273.41ZM1154.13 120.387C1158.98 120.387 1164.09 119.478 1169.46 117.658C1174.83 115.84 1179.51 112.681 1183.5 108.176C1185.92 105.408 1187.61 102.242 1188.56 98.6914C1189.51 95.1407 1189.99 90.8559 1189.99 85.8273V79.5926C1185.66 78.5513 1181.11 77.7331 1176.35 77.1252C1171.58 76.5204 1166.95 76.2165 1162.45 76.2165C1152.57 76.2165 1145.21 78.2085 1140.36 82.1893C1135.51 86.1766 1133.08 91.8939 1133.08 99.3414C1133.08 106.271 1134.9 111.513 1138.54 115.061C1142.18 118.615 1147.37 120.387 1154.13 120.387ZM1214.42 97.7827C1214.42 103.329 1214.98 107.743 1216.11 111.032C1217.23 114.324 1218.84 117.878 1220.92 121.687C1221.61 122.9 1221.96 124.025 1221.96 125.063C1221.96 126.622 1221 128.096 1219.1 129.48L1209.74 135.718C1208.35 136.582 1207.05 137.018 1205.84 137.018C1204.28 137.018 1202.81 136.326 1201.43 134.939C1199.35 132.86 1197.57 130.564 1196.1 128.054C1194.63 125.545 1193.11 122.641 1191.55 119.349C1179.94 133.034 1165.39 139.877 1147.89 139.877C1135.42 139.877 1125.55 136.326 1118.27 129.222C1110.99 122.12 1107.35 112.594 1107.35 100.638C1107.35 87.9972 1111.86 77.8172 1120.87 70.1078C1129.87 62.4017 1142 58.5437 1157.25 58.5437C1162.27 58.5437 1167.51 58.935 1172.97 59.7144C1178.43 60.4937 1184.1 61.577 1189.99 62.9643V52.0503C1189.99 40.7901 1187.65 32.8673 1182.98 28.2753C1178.3 23.6866 1170.24 21.3906 1158.81 21.3906C1153.61 21.3906 1148.28 22.0373 1142.83 23.3373C1137.37 24.6373 1132.04 26.3253 1126.85 28.4047C1124.42 29.4427 1122.69 30.0927 1121.65 30.3547C1120.61 30.6134 1119.83 30.7427 1119.31 30.7427C1117.23 30.7427 1116.19 29.184 1116.19 26.0666V18.7906C1116.19 16.3652 1116.54 14.6319 1117.23 13.5939C1117.92 12.5526 1119.31 11.5145 1121.39 10.4765C1126.58 7.8765 1132.82 5.629 1140.1 3.72105C1147.37 1.81635 1155.08 0.862381 1163.23 0.862381C1180.9 0.862381 1193.84 4.88847 1202.08 12.9439C1210.3 20.9993 1214.42 33.1713 1214.42 49.4503V97.7827Z" fill="#252F3E"/>
<path fill-rule="evenodd" clip-rule="evenodd" d="M1492.24 213.513C1443.35 249.589 1372.47 268.775 1311.43 268.775C1225.89 268.775 1148.85 237.158 1090.56 184.528C1085.98 180.396 1090.06 174.753 1095.57 177.951C1158.46 214.545 1236.24 236.583 1316.57 236.583C1370.76 236.583 1430.32 225.339 1485.14 202.091C1493.4 198.586 1500.33 207.537 1492.24 213.513Z" fill="#FF9900"/>
<path fill-rule="evenodd" clip-rule="evenodd" d="M1512.59 190.288C1506.33 182.285 1471.25 186.495 1455.49 188.383C1450.71 188.956 1449.97 184.784 1454.28 181.764C1482.26 162.109 1528.12 167.784 1533.45 174.365C1538.82 181.001 1532.04 226.972 1505.81 248.911C1501.78 252.283 1497.94 250.485 1499.73 246.029C1505.63 231.293 1518.85 198.298 1512.59 190.288Z" fill="#FF9900"/>
<path d="M779.026 676.232H210.352H779.026Z" fill="#FF9900"/>
<path d="M779.026 676.232H210.352" stroke="#FF9900" stroke-width="5" stroke-miterlimit="10"/>
<path d="M2377.91 676.232H1809.23H2377.91Z" fill="#FF9900"/>
<path d="M2377.91 676.232H1809.23" stroke="#FF9900" stroke-width="5" stroke-miterlimit="10"/>
<path d="M966.778 718.089C959.175 720.989 950.68 722.439 941.294 722.439C925.431 722.439 913.416 718.23 905.249 709.812C897.083 701.3 893 688.86 893 672.491C893 656.309 897.271 643.776 905.813 634.89C914.354 626.004 926.369 621.561 941.857 621.561C950.117 621.561 957.955 622.871 965.37 625.49V642.045C956.828 640.175 949.836 639.239 944.391 639.239C934.629 639.239 927.308 641.812 922.427 646.956C917.64 652.1 915.246 659.957 915.246 670.527V673.754C915.246 684.23 917.593 692.04 922.286 697.184C926.979 702.235 934.16 704.761 943.828 704.761C949.272 704.761 956.922 703.685 966.778 701.534V718.089Z" fill="#FF9900"/>
<path d="M1041.01 720.615L1034.11 698.447H1000.74L994.126 720.615H972.021L1006.38 623.385H1029.61L1063.96 720.615H1041.01ZM1005.25 683.294H1029.75L1017.36 642.607L1005.25 683.294Z" fill="#FF9900"/>
<path d="M1156.61 720.615V653.27L1135.07 696.904H1116.2L1094.66 653.27V720.615H1076.08V623.385H1099.17L1125.78 678.664L1152.53 623.385H1175.2V720.615H1156.61Z" fill="#FF9900"/>
<path d="M1197.76 720.615V623.385H1261.97V639.66H1218.88V662.67H1253.94V678.945H1218.88V704.34H1261.97V720.615H1197.76Z" fill="#FF9900"/>
<path d="M1279.16 720.615V623.385H1316.75C1326.89 623.385 1334.92 626.051 1340.83 631.382C1346.74 636.714 1349.7 643.963 1349.7 653.129C1349.7 658.741 1348.15 663.792 1345.05 668.282C1341.96 672.772 1337.59 676.279 1331.96 678.805L1356.18 720.615H1334.35L1313.23 682.873H1299.44V720.615H1279.16ZM1299.44 668.282H1314.08C1323.93 668.282 1328.86 663.325 1328.86 653.41C1328.86 643.682 1324.03 638.818 1314.36 638.818H1299.44V668.282Z" fill="#FF9900"/>
<path d="M1384.93 671.93C1384.93 682.967 1387.13 691.385 1391.54 697.184C1395.96 702.983 1402.39 705.883 1410.83 705.883C1419.28 705.883 1425.71 702.983 1430.12 697.184C1434.53 691.385 1436.74 682.967 1436.74 671.93C1436.74 660.893 1434.53 652.521 1430.12 646.816C1425.71 641.017 1419.28 638.117 1410.83 638.117C1402.39 638.117 1395.96 641.017 1391.54 646.816C1387.13 652.521 1384.93 660.893 1384.93 671.93ZM1363.24 671.93C1363.24 661.641 1365.07 652.662 1368.73 644.992C1372.49 637.322 1377.93 631.429 1385.07 627.314C1392.3 623.105 1400.88 621 1410.83 621C1420.5 621 1428.9 623.011 1436.04 627.033C1443.17 631.055 1448.66 636.901 1452.51 644.571C1456.45 652.147 1458.42 661.267 1458.42 671.93C1458.42 682.219 1456.55 691.198 1452.79 698.868C1449.13 706.538 1443.69 712.477 1436.46 716.686C1429.33 720.895 1420.78 723 1410.83 723C1401.17 723 1392.76 720.989 1385.63 716.967C1378.5 712.945 1372.96 707.099 1369.02 699.429C1365.17 691.759 1363.24 682.593 1363.24 671.93Z" fill="#FF9900"/>
<path d="M1496.99 671.93C1496.99 682.967 1499.19 691.385 1503.61 697.184C1508.02 702.983 1514.45 705.883 1522.89 705.883C1531.34 705.883 1537.77 702.983 1542.18 697.184C1546.6 691.385 1548.8 682.967 1548.8 671.93C1548.8 660.893 1546.6 652.521 1542.18 646.816C1537.77 641.017 1531.34 638.117 1522.89 638.117C1514.45 638.117 1508.02 641.017 1503.61 646.816C1499.19 652.521 1496.99 660.893 1496.99 671.93ZM1475.3 671.93C1475.3 661.641 1477.14 652.662 1480.8 644.992C1484.55 637.322 1489.99 631.429 1497.13 627.314C1504.36 623.105 1512.94 621 1522.89 621C1532.56 621 1540.96 623.011 1548.1 627.033C1555.23 631.055 1560.72 636.901 1564.57 644.571C1568.51 652.147 1570.48 661.267 1570.48 671.93C1570.48 682.219 1568.61 691.198 1564.85 698.868C1561.19 706.538 1555.75 712.477 1548.52 716.686C1541.39 720.895 1532.84 723 1522.89 723C1513.23 723 1504.83 720.989 1497.69 716.967C1490.56 712.945 1485.02 707.099 1481.08 699.429C1477.23 691.759 1475.3 682.593 1475.3 671.93Z" fill="#FF9900"/>
<path d="M1608.77 653.129V720.615H1590.18V623.385H1612.71L1652.41 691.432V623.385H1671V720.615H1648.47L1608.77 653.129Z" fill="#FF9900"/>
</svg>
