<?xml version="1.0" encoding="UTF-8"?>
<svg id="Layer_3" data-name="Layer 3" xmlns="http://www.w3.org/2000/svg" xmlns:xlink="http://www.w3.org/1999/xlink" viewBox="0 0 1590 768">
  <defs>
    <style>
      .cls-1 {
        fill: #fff;
      }

      .cls-2, .cls-3 {
        stroke-width: 2.5px;
      }

      .cls-2, .cls-3, .cls-4, .cls-5, .cls-6, .cls-7, .cls-8, .cls-9 {
        fill: none;
      }

      .cls-2, .cls-3, .cls-4, .cls-5, .cls-6, .cls-8, .cls-10, .cls-9 {
        stroke-linejoin: round;
      }

      .cls-2, .cls-3, .cls-6, .cls-8, .cls-9 {
        stroke-linecap: round;
      }

      .cls-2, .cls-4, .cls-10, .cls-9 {
        stroke: #a166ff;
      }

      .cls-3, .cls-5, .cls-8 {
        stroke: #fff;
      }

      .cls-4, .cls-5, .cls-8, .cls-9 {
        stroke-width: 2.01px;
      }

      .cls-6 {
        stroke: #fefdff;
        stroke-width: 2px;
      }

      .cls-11 {
        clip-path: url(#clippath);
      }

      .cls-12 {
        fill: #a166ff;
      }

      .cls-10 {
        fill: #232f3e;
        stroke-width: 3.52px;
      }
    </style>
    <clipPath id="clippath">
      <path class="cls-7" d="M64.77,233.92v286.33l248.19,143.16,248.19-143.16V233.92L312.96,90.76,64.77,233.92Z"/>
    </clipPath>
  </defs>
  <g>
    <g>
      <path class="cls-12" d="M706.14,330.63h10.41v77.8c0,15.41-3.94,27.17-11.83,35.27s-19.3,12.16-34.24,12.17c-14.95,0-26.37-4.06-34.25-12.17-7.89-8.11-11.83-19.87-11.83-35.27v-77.8h10.41v79.74c0,11.51,3.06,20.36,9.19,26.53,6.13,6.17,14.96,9.29,26.48,9.33,11.52,0,20.35-3.11,26.48-9.33,6.13-6.22,9.19-15.07,9.17-26.53v-79.74Z"/>
      <path class="cls-12" d="M786.76,429.58c.03-1.52-.27-3.02-.86-4.42-.59-1.4-1.47-2.65-2.58-3.69-3.4-2.86-7.33-5.02-11.57-6.35l-16.07-6.01c-12.6-4.68-18.89-12.38-18.88-23.1-.1-3.39,.59-6.76,2.01-9.83,1.42-3.08,3.54-5.78,6.19-7.9,5.48-4.52,12.63-6.78,21.45-6.78,4.33,.02,8.64,.49,12.88,1.4,4.24,.88,8.39,2.18,12.37,3.88v8.29c-8.31-2.85-17.01-4.4-25.79-4.59-6.35,0-11.18,1.24-14.47,3.73-1.67,1.33-2.99,3.04-3.85,4.99-.86,1.95-1.24,4.08-1.1,6.21-.12,1.71,.13,3.43,.72,5.04,.59,1.61,1.52,3.07,2.72,4.3,2.3,2.18,6.81,4.56,13.51,7.15l14.13,5.28c6.58,2.49,11.38,5.52,14.39,9.09,3.05,3.75,4.65,8.48,4.5,13.31,.15,3.63-.57,7.24-2.09,10.54-1.52,3.3-3.8,6.19-6.66,8.43-5.79,4.65-13.69,6.98-23.7,6.98-9.95,.17-19.81-2-28.76-6.35v-8.29c9.43,3.55,19.4,5.44,29.47,5.6,7.18,0,12.65-1.44,16.43-4.31,1.88-1.5,3.37-3.43,4.34-5.63,.97-2.2,1.4-4.6,1.25-6.99Z"/>
      <path class="cls-12" d="M819.84,410.18c.11,12.35,2.82,21.46,8.11,27.33,5.29,5.88,13.47,8.82,24.54,8.83,10.04,.02,19.97-2.08,29.13-6.18v8.29c-9.18,4.91-19.49,7.35-29.9,7.06-14.02,0-24.55-3.97-31.6-11.91-7.05-7.94-10.58-19.73-10.6-35.36,0-14.81,3.56-26.31,10.67-34.48,7.11-8.18,17.08-12.26,29.9-12.25,10.71,0,18.92,3.05,24.61,9.17,5.69,6.11,8.55,14.87,8.58,26.29,.07,4.43-.28,8.86-1.07,13.22h-62.38Zm29.47-39.69c-18.6,0-28.42,10.52-29.47,31.57h53.67c.11-1.64,.17-3.58,.17-5.81,0-8.48-2.06-14.89-6.19-19.23-4.12-4.34-10.18-6.52-18.18-6.54Z"/>
      <path class="cls-12" d="M903.86,452.86v-88.8h8.84l1.05,12.88c3.65-4.3,8.09-7.86,13.08-10.49,4.57-2.11,9.55-3.16,14.58-3.08,2.42,.03,4.83,.2,7.23,.52v9c-3.07-.24-5.83-.35-8.3-.35-4.96-.1-9.88,.92-14.39,2.99-4.65,2.38-8.76,5.69-12.09,9.71v67.55l-10,.07Z"/>
      <path class="cls-12" d="M1065.75,445.12c8,.13,15.98-.94,23.66-3.17v-40.92h-31.43v-9.33h41.84v55.56c-11.2,5.24-23.46,7.83-35.83,7.58-38.96,0-58.43-20.87-58.43-62.6,0-20.46,4.94-36.08,14.82-46.84,9.88-10.77,24.2-16.14,42.98-16.13,11.16,0,22.19,2.32,32.4,6.81v9c-5.57-1.94-11.27-3.53-17.04-4.76-4.8-.94-9.67-1.42-14.56-1.42-16.2,0-28.2,4.12-36.01,12.36-7.81,8.24-11.7,21.12-11.66,38.63v4.41c0,17.29,4.03,30.08,12.09,38.37,8.06,8.29,20.45,12.45,37.17,12.47Z"/>
      <path class="cls-12" d="M1124.9,452.86v-88.8h8.82l1.06,12.88c3.65-4.3,8.09-7.86,13.08-10.49,4.56-2.11,9.54-3.17,14.56-3.08,2.42,.03,4.84,.2,7.23,.52v9c-3.06-.24-5.83-.35-8.29-.35-4.96-.1-9.88,.92-14.39,2.99-4.65,2.39-8.76,5.69-12.09,9.71v67.55l-9.98,.07Z"/>
      <path class="cls-12" d="M1218.45,455.55c-12.95,0-23.01-4.14-30.2-12.43-7.19-8.29-10.78-19.84-10.77-34.65,0-14.82,3.59-26.35,10.77-34.58,7.17-8.23,17.24-12.35,30.2-12.38,12.93,0,22.99,4.11,30.18,12.34,7.19,8.23,10.78,19.75,10.76,34.58,0,14.81-3.58,26.36-10.76,34.65s-17.24,12.45-30.18,12.47Zm0-9.17c20.36,0,30.53-12.64,30.53-37.92s-10.17-37.88-30.53-37.79c-20.37,0-30.56,12.58-30.56,37.75s10.19,37.81,30.56,37.92v.04Z"/>
      <path class="cls-12" d="M1342.05,452.86l-1.07-9.69c-11.18,8.25-22.75,12.38-34.7,12.38-8.48,0-14.99-2.3-19.51-6.89-4.52-4.59-6.79-11.29-6.8-20.09v-64.51h10.07v60.15c0,7.77,1.46,13.37,4.41,16.8,2.95,3.44,7.59,5.21,13.94,5.21,5.53,.03,11.02-.86,16.24-2.65,5.78-2.14,11.24-5.04,16.24-8.64v-70.87h10.08v88.72l-8.9,.07Z"/>
      <path class="cls-12" d="M1376.64,489.16v-125.09h8.82l.9,9.88c4.75-3.96,10.07-7.17,15.79-9.52,5.04-1.98,10.4-2.99,15.81-2.99,11.4,0,20.4,4.08,27,12.25,6.61,8.17,9.9,19.37,9.89,33.61,0,14.48-3.47,26-10.41,34.58-6.94,8.58-16.28,12.86-28.03,12.86-11.08-.04-21.73-4.3-29.77-11.91v46.34h-10Zm39.38-118.52c-9.78,0-19.56,3.77-29.33,11.3v51.66c4.23,3.73,8.99,6.8,14.13,9.09,4.58,1.94,9.51,2.93,14.49,2.91,9.64,0,16.91-3.14,21.8-9.43,4.9-6.29,7.34-15.66,7.33-28.14,0-24.89-9.47-37.35-28.42-37.36v-.04Z"/>
      <path class="cls-12" d="M1521.19,429.58c.03-1.52-.27-3.02-.86-4.42-.59-1.4-1.47-2.65-2.58-3.69-3.39-2.86-7.33-5.02-11.57-6.35l-16.07-6.01c-12.59-4.68-18.89-12.38-18.89-23.1-.09-3.39,.6-6.76,2.02-9.83,1.43-3.08,3.55-5.78,6.2-7.9,5.48-4.52,12.64-6.78,21.46-6.78,4.33,.02,8.64,.49,12.87,1.4,4.24,.87,8.38,2.17,12.35,3.88v8.29c-8.3-2.85-16.99-4.4-25.77-4.59-6.35,0-11.17,1.24-14.46,3.73-1.67,1.33-2.99,3.04-3.86,4.99-.86,1.95-1.23,4.08-1.09,6.21-.12,1.71,.12,3.43,.71,5.04,.6,1.61,1.52,3.08,2.73,4.3,2.29,2.18,6.79,4.56,13.51,7.15l14.13,5.28c6.57,2.49,11.37,5.52,14.39,9.09,3.05,3.75,4.65,8.48,4.5,13.31,.15,3.63-.57,7.24-2.09,10.54-1.52,3.3-3.8,6.19-6.66,8.43-5.8,4.65-13.71,6.98-23.71,6.98-9.96,.17-19.82-2.01-28.78-6.35v-8.29c9.43,3.55,19.41,5.44,29.49,5.6,7.17,0,12.65-1.44,16.43-4.31,1.88-1.5,3.37-3.43,4.35-5.62,.97-2.2,1.4-4.6,1.25-7Z"/>
    </g>
    <g>
      <path class="cls-1" d="M657.98,290.6l-3.36-10.85h-16.3l-3.23,10.85h-10.8l16.82-47.59h11.34l16.82,47.59h-11.29Zm-17.46-18.26h11.96l-6.05-19.92-5.91,19.92Z"/>
      <path class="cls-1" d="M707.07,290.6l-7.57-33.61-7.29,33.61h-11.21l-13.21-47.59h11.42l7.57,36.41,7.48-35.25h10.88l7.7,35.1,7.48-36.26h11.21l-13.08,47.59h-11.36Z"/>
      <path class="cls-1" d="M747.23,269.79c-3.37-1.07-6.41-3-8.8-5.6-2.06-2.79-2.99-6.25-2.6-9.7,.39-3.45,2.07-6.62,4.7-8.88,3.7-2.72,8.23-4.08,12.82-3.85,4.52,0,9,.84,13.21,2.46v7.84c-4-1.31-8.18-2.01-12.39-2.07-5.4,0-8.11,1.75-8.11,5.23-.02,.6,.1,1.19,.35,1.74,.25,.55,.61,1.03,1.07,1.41,1.59,1.17,3.36,2.05,5.25,2.61l5.08,1.87c3.45,1.04,6.58,2.91,9.12,5.45,1.88,2.29,2.84,5.18,2.71,8.14,.1,2.14-.31,4.26-1.19,6.21-.88,1.95-2.22,3.66-3.89,4.99-4.04,2.93-8.97,4.38-13.96,4.09-2.58,0-5.16-.25-7.7-.73-2.27-.36-4.48-.98-6.6-1.87v-7.82c2.41,.72,4.87,1.27,7.36,1.64,2.34,.39,4.71,.59,7.08,.62,2.18,.13,4.35-.38,6.24-1.48,.71-.45,1.28-1.07,1.67-1.81,.39-.74,.57-1.57,.53-2.41,.03-.62-.07-1.25-.3-1.83-.23-.58-.59-1.1-1.04-1.53-1.62-1.21-3.45-2.14-5.38-2.74l-5.23-2Z"/>
    </g>
    <g>
      <path class="cls-12" d="M627,553.78v-74.78h25.61c5.78,0,10.2,.36,13.24,1.07,4.26,.99,7.9,2.77,10.9,5.36,3.92,3.33,6.85,7.6,8.78,12.8,1.96,5.17,2.94,11.08,2.94,17.75,0,5.68-.66,10.71-1.98,15.1-1.32,4.39-3.01,8.03-5.07,10.91-2.06,2.86-4.33,5.12-6.8,6.78-2.43,1.63-5.39,2.87-8.88,3.72-3.45,.85-7.42,1.28-11.92,1.28h-26.83Zm9.84-8.82h15.88c4.9,0,8.74-.46,11.51-1.38,2.81-.92,5.04-2.21,6.69-3.88,2.33-2.35,4.14-5.49,5.43-9.44,1.32-3.98,1.98-8.79,1.98-14.43,0-7.82-1.28-13.82-3.85-18.01-2.54-4.22-5.63-7.04-9.28-8.47-2.64-1.02-6.88-1.53-12.73-1.53h-15.62v57.13Z"/>
      <path class="cls-12" d="M697.5,526.69c0-10.03,2.77-17.46,8.32-22.29,4.63-4.01,10.28-6.02,16.94-6.02,7.41,0,13.46,2.45,18.16,7.35,4.7,4.86,7.05,11.6,7.05,20.2,0,6.97-1.05,12.46-3.14,16.47-2.06,3.98-5.09,7.07-9.08,9.28-3.96,2.21-8.29,3.32-12.99,3.32-7.54,0-13.64-2.43-18.31-7.29-4.63-4.86-6.95-11.87-6.95-21.02Zm9.38,0c0,6.94,1.51,12.14,4.51,15.61,3.01,3.43,6.8,5.15,11.36,5.15s8.3-1.73,11.31-5.2c3.01-3.47,4.51-8.76,4.51-15.86,0-6.7-1.52-11.77-4.57-15.2-3.01-3.47-6.76-5.2-11.26-5.2s-8.35,1.72-11.36,5.15c-3.01,3.43-4.51,8.62-4.51,15.56Z"/>
      <path class="cls-12" d="M794.02,553.78v-7.96c-4.19,6.12-9.89,9.18-17.09,9.18-3.18,0-6.15-.61-8.93-1.84-2.74-1.22-4.78-2.76-6.14-4.59-1.32-1.87-2.25-4.15-2.79-6.84-.37-1.8-.56-4.66-.56-8.57v-33.56h9.13v30.04c0,4.79,.19,8.02,.56,9.69,.58,2.41,1.79,4.32,3.65,5.71,1.86,1.36,4.16,2.04,6.9,2.04s5.31-.7,7.71-2.09c2.4-1.43,4.09-3.35,5.07-5.76,1.01-2.45,1.52-5.98,1.52-10.61v-29.02h9.13v54.17h-8.17Z"/>
      <path class="cls-12" d="M851.69,547.09c-3.38,2.89-6.64,4.93-9.79,6.12-3.11,1.19-6.46,1.78-10.04,1.78-5.92,0-10.46-1.45-13.64-4.34-3.18-2.92-4.77-6.65-4.77-11.17,0-2.65,.59-5.07,1.77-7.24,1.22-2.21,2.79-3.98,4.72-5.3,1.96-1.33,4.16-2.33,6.59-3.01,1.79-.48,4.5-.93,8.12-1.38,7.37-.88,12.8-1.94,16.28-3.16,.03-1.26,.05-2.06,.05-2.4,0-3.74-.86-6.38-2.59-7.91-2.33-2.07-5.8-3.11-10.4-3.11-4.29,0-7.47,.76-9.53,2.3-2.03,1.5-3.53,4.16-4.51,8.01l-8.93-1.22c.81-3.84,2.15-6.94,4.01-9.28,1.86-2.38,4.55-4.2,8.06-5.46,3.52-1.29,7.59-1.94,12.22-1.94s8.33,.54,11.21,1.63c2.87,1.09,4.99,2.46,6.34,4.13,1.35,1.63,2.3,3.71,2.84,6.22,.3,1.56,.46,4.39,.46,8.47v12.24c0,8.53,.19,13.94,.56,16.22,.4,2.24,1.18,4.4,2.33,6.48h-9.54c-.95-1.9-1.55-4.13-1.83-6.68Zm-.76-20.51c-3.31,1.36-8.29,2.52-14.91,3.47-3.75,.54-6.41,1.16-7.96,1.84s-2.76,1.68-3.6,3.01c-.85,1.29-1.27,2.74-1.27,4.34,0,2.45,.91,4.49,2.74,6.12,1.86,1.63,4.57,2.45,8.11,2.45s6.64-.76,9.38-2.29c2.74-1.56,4.75-3.69,6.04-6.38,.98-2.07,1.47-5.14,1.47-9.18v-3.37Z"/>
      <path class="cls-12" d="M874.16,553.78v-74.78h9.13v74.78h-9.13Z"/>
      <path class="cls-12" d="M932.64,547.09c-3.38,2.89-6.64,4.93-9.79,6.12-3.11,1.19-6.46,1.78-10.04,1.78-5.92,0-10.47-1.45-13.64-4.34-3.18-2.92-4.77-6.65-4.77-11.17,0-2.65,.59-5.07,1.78-7.24,1.22-2.21,2.79-3.98,4.72-5.3,1.96-1.33,4.16-2.33,6.59-3.01,1.79-.48,4.5-.93,8.12-1.38,7.37-.88,12.8-1.94,16.28-3.16,.03-1.26,.05-2.06,.05-2.4,0-3.74-.86-6.38-2.59-7.91-2.33-2.07-5.8-3.11-10.4-3.11-4.29,0-7.47,.76-9.53,2.3-2.03,1.5-3.53,4.16-4.51,8.01l-8.93-1.22c.81-3.84,2.15-6.94,4.01-9.28,1.86-2.38,4.55-4.2,8.06-5.46,3.52-1.29,7.59-1.94,12.22-1.94s8.34,.54,11.21,1.63c2.87,1.09,4.99,2.46,6.34,4.13,1.35,1.63,2.3,3.71,2.84,6.22,.3,1.56,.46,4.39,.46,8.47v12.24c0,8.53,.19,13.94,.56,16.22,.41,2.24,1.18,4.4,2.33,6.48h-9.53c-.95-1.9-1.56-4.13-1.83-6.68Zm-.76-20.51c-3.31,1.36-8.28,2.52-14.91,3.47-3.75,.54-6.41,1.16-7.96,1.84-1.55,.68-2.76,1.68-3.6,3.01-.84,1.29-1.27,2.74-1.27,4.34,0,2.45,.91,4.49,2.74,6.12,1.86,1.63,4.57,2.45,8.11,2.45s6.64-.76,9.38-2.29c2.74-1.56,4.75-3.69,6.04-6.38,.98-2.07,1.47-5.14,1.47-9.18v-3.37Z"/>
    </g>
  </g>
  <g>
    <path class="cls-10" d="M64.77,233.92v286.33l248.19,143.16,248.19-143.16V233.92L312.96,90.76,64.77,233.92Z"/>
    <path class="cls-4" d="M559.75,255.06c-1.83,3.42-2.93,7.18-3.25,11.04-3.82-3.4-8.55-5.63-13.6-6.41-5.06-.78-10.24-.08-14.91,2.01-4.67,2.09-8.64,5.49-11.41,9.79-2.78,4.29-4.26,9.3-4.25,14.41v1.31c-2.11-.97-4.42-1.41-6.73-1.29-2.32,.12-4.57,.81-6.55,2-1.99,1.19-3.66,2.85-4.86,4.83-1.2,1.98-1.9,4.23-2.04,6.54-3.75,.57-7.15,2.53-9.51,5.49-2.36,2.96-3.52,6.71-3.24,10.49,.28,3.78,1.98,7.31,4.76,9.89,2.78,2.58,6.43,4.02,10.22,4.02h65.38"/>
    <path class="cls-5" d="M127.69,289.36h39.01c1.62-.07,3.21-.48,4.65-1.22,1.44-.74,2.71-1.78,3.71-3.06,1-1.28,1.71-2.75,2.09-4.33,.37-1.58,.4-3.22,.07-4.81-.32-1.59-.99-3.09-1.95-4.4-.96-1.31-2.19-2.39-3.61-3.18-1.42-.78-3-1.25-4.61-1.37-1.62-.12-3.24,.12-4.76,.69-.54-1.7-1.41-3.28-2.56-4.64-1.15-1.36-2.56-2.49-4.14-3.31-1.58-.82-3.31-1.32-5.09-1.47-1.78-.15-3.57,.05-5.27,.59-1.61,.5-3.1,1.31-4.41,2.37-.35-1.99-1.09-3.88-2.19-5.58-1.1-1.69-2.52-3.15-4.19-4.28-1.67-1.13-3.55-1.92-5.53-2.32-1.98-.39-4.02-.39-5.99,.02-1.98,.41-3.85,1.21-5.51,2.35-1.66,1.14-3.08,2.61-4.16,4.31s-1.82,3.6-2.15,5.59c-.33,1.99-.27,4.02,.2,5.99,0,.16,0,.31,0,.47-1.38,.49-2.64,1.24-3.74,2.2"/>
    <path class="cls-5" d="M562.99,391.92c-1.98,.39-3.86,1.18-5.53,2.32-1.67,1.13-3.09,2.59-4.19,4.28-1.1,1.69-1.84,3.59-2.19,5.58-1.31-1.06-2.8-1.87-4.41-2.37-1.7-.54-3.49-.74-5.27-.59-1.78,.15-3.51,.65-5.09,1.47-1.58,.82-2.99,1.94-4.14,3.31-1.15,1.36-2.02,2.94-2.56,4.64-1.52-.57-3.14-.81-4.76-.69-1.62,.12-3.19,.58-4.61,1.37-1.42,.78-2.65,1.87-3.61,3.18-.96,1.31-1.63,2.81-1.95,4.4-.32,1.59-.3,3.23,.07,4.81,.37,1.58,1.09,3.06,2.09,4.33,1,1.28,2.27,2.32,3.71,3.06,1.44,.74,3.03,1.16,4.65,1.22h35.06"/>
    <g>
      <path class="cls-9" d="M224.5,163.35v35.87"/>
      <path class="cls-9" d="M242.43,181.27h-35.88"/>
    </g>
    <g>
      <path class="cls-8" d="M184.22,217.34v20.07"/>
      <path class="cls-8" d="M194.29,227.37h-20.12"/>
    </g>
    <g>
      <path class="cls-9" d="M454.25,248.76v25.58"/>
      <path class="cls-9" d="M467.04,261.54h-25.58"/>
    </g>
    <g>
      <path class="cls-8" d="M381.34,167.57v34.78"/>
      <path class="cls-8" d="M398.75,184.96h-34.82"/>
    </g>
    <path class="cls-4" d="M64.43,243.93l.32,.19c3.78,2.22,6.96,5.34,9.24,9.08,2.28,3.74,3.6,7.99,3.84,12.37,4.03-1.43,8.35-1.81,12.56-1.1,4.21,.71,8.17,2.48,11.51,5.15v.03c.81-.16,1.65-.24,2.5-.24,7.22,0,13.08,5.86,13.08,13.08,0,.7-.05,1.38-.16,2.05,0,0,6.97,.29,10.05,4.82,1.33,2.19,2.02,4.7,2,7.26v.67c3.48,0,6.83,1.38,9.29,3.84,2.46,2.46,3.85,5.8,3.85,9.28s-1.38,6.82-3.85,9.28c-2.46,2.46-5.81,3.84-9.29,3.84H64.43"/>
    <g>
      <polyline class="cls-3" points="318.96 438.82 328.07 435.91 322.93 414.4"/>
      <polyline class="cls-3" points="299.77 436.67 289.09 434.89 288.4 425.66"/>
      <path class="cls-2" d="M337.06,418.82c-2.02-11.26-29.82-.63-46.83,6.07-14.17,5.59-12.78,11.77-12.78,11.77l-3.21-11.45s-2.49-5.46,5.64-10.33c7.88-4.72,50.99-19.03,52.79-10.59l4.39,14.52Z"/>
      <polyline class="cls-2" points="295.92 423.5 302.25 445.14 320.1 447.17 313.77 417.02"/>
      <polyline class="cls-3" points="277.59 440.51 275.3 450.71 277.13 454.89 273.65 475.01 281.12 469.57 288.4 429.07"/>
      <path class="cls-3" d="M323.52,507.6s11.77-8.16,16.2-8.67c4.43-.51,14.3,8.35,14.3,8.35l1.65-3.16c-18.86-17.34-37.34-42.78-37.34-42.78,0,0-2.91,30.37-7.47,39.23,0,0,2.09,11.39,0,19.49"/>
      <path class="cls-2" d="M334.88,453.33s24.68,31.89,28.35,46.19"/>
      <path class="cls-3" d="M329.34,418.19s35.07,24.87,42.24,63.79"/>
      <path class="cls-3" d="M363.17,457.93s25.14,21.64,27.29,57.71"/>
      <circle class="cls-2" cx="379.13" cy="521.9" r="8.61"/>
      <path class="cls-3" d="M389.33,532.85s-17.09,11.21-59.99,4.88"/>
      <path class="cls-3" d="M277.37,481.23s2.87,11.18,6.54,14.72c0,0-1.74,15.38-.47,26.65"/>
      <path class="cls-2" d="M280.57,528.51s-5.89,.92-3.21,3.47c2.68,2.55,44.81,6.73,34.82-1.73"/>
      <path class="cls-2" d="M277.89,558.77s9.34-8.73,18.74-8.73,15.85,9.78,15.85,9.78"/>
      <path class="cls-3" d="M278.47,538.24s-2.77,5.37-.42,12.48"/>
      <path class="cls-3" d="M314.06,538.63s1.45,8.17-1.11,13.94"/>
      <path class="cls-2" d="M284.55,594.49c-32.12,1.25-55.07,4.54-55.07,8.41,0,4.94,37.45,8.94,83.66,8.94s83.66-4,83.66-8.94-37.45-8.94-83.66-8.94c-1.73,0-2.92,0-4.62,.02"/>
      <line class="cls-2" x1="396.79" y1="602.9" x2="396.79" y2="614.04"/>
      <line class="cls-2" x1="229.48" y1="602.9" x2="229.48" y2="615.24"/>
      <path class="cls-2" d="M301.9,451.47s-.05,11.58-5.68,21.64c-5.63,10.06,0,28.29,0,28.29"/>
      <path class="cls-3" d="M243.28,357.44s14.59,28.3,41.13,24.43c27.78-4.05,57.78-16.45,53.6-59.17"/>
      <path class="cls-3" d="M249.92,351.93s9.57,29.05,38.48,22.02c28.91-7.02,46-22.97,41.82-49.17l-21.45,4.75c6.45,14.05-12.15,21.07-24.87,24.11-12.72,3.04-16.71-9.68-16.71-9.68l-17.28,7.97Z"/>
      <path class="cls-2" d="M258.94,358.7l8.26-4.3,4.18,4.18-5.96,6.81s-5.14-3.46-6.47-6.68Z"/>
      <path class="cls-2" d="M279.05,369.58l1.98-9.3,5.91-1.33,3.16,9.06s-7.05,2.77-11.05,1.57Z"/>
      <path class="cls-2" d="M305.27,362.56l-4.29-8.16,6.25-3.42,6.27,6.43s-5.73,4.96-8.23,5.15Z"/>
      <path class="cls-2" d="M321.66,349.01l-9.47-4.48,1.9-4.56,10.38-1.13s.36,7.45-2.8,10.17Z"/>
      <path class="cls-3" d="M275.68,410.92s-3.8-9.11-7.72-13.42c0,0-8.48-4.43-19.24-23.67"/>
      <path class="cls-3" d="M329.34,398.7s17.21-32.57,11.64-46.22c0,0,24.89-35.36,24.13-48.46"/>
      <path class="cls-3" d="M370.09,305.85s15.44-10.24,9.87-25.3"/>
      <path class="cls-3" d="M357.56,272.77s-18.58,16-19.16,35.88c0,.32-.01,.63-.01,.95"/>
      <path class="cls-2" d="M303.95,317.63c0-2.2-6.56-3.99-14.64-3.99s-14.64,1.78-14.64,3.99"/>
      <ellipse class="cls-3" cx="289.31" cy="324.79" rx="14.64" ry="3.99"/>
      <path class="cls-3" d="M274.66,324.79v-16.2c0-2.2,6.56-3.99,14.64-3.99s14.64,1.78,14.64,3.99v16.2"/>
      <path class="cls-3" d="M382.05,267.45l4.75-13.48s-31.7-22.78-46.89-26.96c0,0-9.43-.44-13.54,1.39l-10.01-2.71"/>
      <path class="cls-3" d="M354.14,270.11s-35.25-17.09-50.64-29.75"/>
      <path class="cls-2" d="M322.82,237.65s43.89,22.02,48.71,26.39"/>
      <circle class="cls-2" cx="368.19" cy="286.06" r="6.33"/>
      <circle class="cls-2" cx="375.03" cy="272.64" r="4.94"/>
      <path class="cls-3" d="M303.5,240.36c-1.94-.7-2.21-4.9-.59-9.37,1.61-4.48,4.5-7.54,6.44-6.84l7.01,1.55c-1.94-.7-5.03,2.94-6.91,8.13-1.87,5.19-1.82,9.96,.13,10.66"/>
      <path class="cls-3" d="M256.06,340.97s-2.91-4.41-14.3-1.18c-11.39,3.23-58.13,15.31-49.74,34.17,7.54,16.95,13.49,24.46,16.71,26.49"/>
      <path class="cls-2" d="M209.76,358.48s4.59-4.08,16.11,1.81c13.77,7.03,15.53,5.1,15.53,5.1"/>
      <circle class="cls-2" cx="202.84" cy="369.02" r="5.89"/>
      <rect class="cls-3" x="242.78" y="409.53" width="8.8" height="15.91" transform="translate(124.77 -51.99) rotate(16.01)"/>
      <path class="cls-3" d="M239.1,423.12s-27.04-13.98-26.13-27.96"/>
      <path class="cls-3" d="M245.15,408.62s-18.39-15.49-21.78-26.9"/>
      <path class="cls-3" d="M242.67,371.55s-15.11,.35-23.27,5.67"/>
      <rect class="cls-3" x="290.15" y="385.25" width="19.26" height="11.31" transform="translate(-90.14 89.84) rotate(-14.84)"/>
      <circle class="cls-3" cx="289.9" cy="278.97" r="18.62"/>
      <path class="cls-3" d="M283.03,286.97c.95,2.82,3.61,4.85,6.75,4.85,3.44,0,6.31-2.44,6.98-5.69"/>
      <line class="cls-3" x1="289.9" y1="276.57" x2="289.9" y2="284.54"/>
      <circle class="cls-2" cx="290.17" cy="176.71" r="39.68"/>
      <ellipse class="cls-2" cx="290.17" cy="176.71" rx="15.22" ry="39.68"/>
      <ellipse class="cls-2" cx="290.17" cy="177.83" rx="39.68" ry="10.73"/>
      <line class="cls-2" x1="274.35" y1="343.67" x2="305.39" y2="332.19"/>
      <path class="cls-3" d="M228.53,533.73s-5.51,.26-6.64,.77,2.66,11.01,6.07,12.59,14.93,.03,18.1-2.74"/>
      <path class="cls-3" d="M246.06,544.35s21.5,.72,26.32-1.88"/>
      <path class="cls-3" d="M276.66,521.84l-6.68-1.77s-6.48,3.54-19.36,3.76c-12.58,.22-18.1-1.99-22.08-3.76l-10.82,1.96-1.14,3.8,3.92,1.96s9.59,2.53,16.17,2.4"/>
      <line class="cls-3" x1="312.24" y1="288.46" x2="324.2" y2="294.28"/>
      <line class="cls-3" x1="314.83" y1="276.57" x2="323.25" y2="276.57"/>
      <line class="cls-3" x1="311.12" y1="265.55" x2="321.22" y2="257.96"/>
      <line class="cls-3" x1="269.69" y1="264.54" x2="260.2" y2="257.96"/>
      <line class="cls-3" x1="264.82" y1="277.07" x2="255.58" y2="276.06"/>
      <line class="cls-3" x1="267.25" y1="287.96" x2="257.32" y2="293.78"/>
      <path class="cls-3" d="M332.37,306.69s-9.24,8.23-12.53,12.91l-10.11,2.34"/>
      <path class="cls-3" d="M273.08,330.1s-3.08,7.06-10.44,8.73"/>
      <path class="cls-3" d="M298.9,233.53s-15.25,2.72-22.27,1.01-11.52-10.5-11.52-10.5"/>
      <path class="cls-3" d="M265.11,223.79l1.46-2.02s3.61,1.47,4.18,2.29"/>
      <path class="cls-3" d="M302.82,226.26s-8.67-6.45-14.74-6.58"/>
      <path class="cls-3" d="M274.66,225.6s10.86-2.23,12.88-2.29"/>
      <circle class="cls-2" cx="262.53" cy="424.45" r="6.71"/>
      <line class="cls-3" x1="294.44" y1="276.57" x2="301.18" y2="276.57"/>
      <line class="cls-3" x1="277.73" y1="276.57" x2="284.47" y2="276.57"/>
      <path class="cls-2" d="M317.14,506.15s-3.16,11.46,8,34.92"/>
      <path class="cls-3" d="M280.08,563.61s.76,22.4,6.83,38.47"/>
      <path class="cls-3" d="M311.33,564.27s1.61,17.72-5.69,38.63"/>
      <path class="cls-3" d="M258.94,412.34s6.26-1.33,11.39,1.9"/>
    </g>
    <g>
      <circle class="cls-6" cx="426.52" cy="505.95" r="20.32"/>
      <circle class="cls-2" cx="426.52" cy="505.95" r="14.39"/>
      <path class="cls-6" d="M543.33,507.13c.02-.39,.03-.79,.03-1.18,0-11.22-9.1-20.32-20.32-20.32-11.22,0-20.32,9.1-20.32,20.32,0,.4,.01,.79,.03,1.18"/>
      <path class="cls-6" d="M504.49,514.24c3.17,7.09,10.29,12.03,18.56,12.03,8.27,0,15.38-4.94,18.56-12.03"/>
      <path class="cls-2" d="M512.44,514.24c2.46,3.14,6.3,5.16,10.6,5.16,4.15,0,7.86-1.88,10.33-4.83"/>
      <path class="cls-2" d="M536.45,507.19c.04-.41,.06-.83,.06-1.25,0-7.43-6.03-13.46-13.46-13.46s-13.46,6.03-13.46,13.46c0,.39,.02,.78,.05,1.16"/>
      <path class="cls-2" d="M453.3,500.24c-2.62-12.38-13.62-21.67-26.78-21.67-3.31,0-6.49,.59-9.43,1.67"/>
      <polyline class="cls-6" points="426.52 505.95 456.72 450.97 468.12 450.97"/>
      <path class="cls-2" d="M442.12,467.74c3.62,0,6.55-2.93,6.55-6.55,0-3.62-2.93-6.55-6.55-6.55v13.1Z"/>
      <path class="cls-6" d="M481.22,476.93h0c0-4.67,3.42-8.63,8.04-9.3l38.48-5.62c2.97-.43,5.64,1.87,5.64,4.87v12.19"/>
      <path class="cls-6" d="M481.22,476.4v-.12c0-4.93-2.81-9.44-7.23-11.61l-9.62-4.73c-3.56-1.75-7.8-1.43-11.05,.85h0c-3.74,2.62-5.45,7.3-4.28,11.72l4.27,5.5"/>
      <polyline class="cls-6" points="481.22 478.01 481.22 488.67 512.34 488.67"/>
      <path class="cls-6" d="M491.27,488.67l-9.03,18.74,1.92,3.13c1.4,2.3,3.9,3.7,6.59,3.7h64.64s0-7.11,0-7.11h-73.99c-4.16,0-8.07-1.98-10.54-5.32l-17.56-23.8h69.74c13.24,0,24.33,9.21,27.21,21.58"/>
    </g>
    <g class="cls-11">
      <g>
        <circle class="cls-6" cx="166.67" cy="505.95" r="20.32"/>
        <circle class="cls-6" cx="166.67" cy="505.95" r="14.39"/>
        <path class="cls-6" d="M49.86,507.13c-.02-.39-.03-.79-.03-1.18,0-11.22,9.1-20.32,20.32-20.32,11.22,0,20.32,9.1,20.32,20.32,0,.4-.01,.79-.03,1.18"/>
        <path class="cls-6" d="M88.7,514.24c-3.17,7.09-10.29,12.03-18.56,12.03s-15.38-4.94-18.56-12.03"/>
        <path class="cls-2" d="M80.75,514.24c-2.46,3.14-6.3,5.16-10.6,5.16s-7.86-1.88-10.33-4.83"/>
        <path class="cls-2" d="M56.74,507.19c-.04-.41-.06-.83-.06-1.25,0-7.43,6.03-13.46,13.46-13.46,7.43,0,13.46,6.03,13.46,13.46,0,.39-.02,.78-.05,1.16"/>
        <path class="cls-2" d="M139.89,500.24c2.62-12.38,13.62-21.67,26.78-21.67,3.31,0,6.49,.59,9.43,1.67"/>
        <polyline class="cls-6" points="166.67 505.95 136.47 450.97 125.07 450.97"/>
        <path class="cls-2" d="M151.07,467.74c-3.62,0-6.55-2.93-6.55-6.55s2.93-6.55,6.55-6.55v13.1Z"/>
        <path class="cls-6" d="M111.97,476.93h0c0-4.67-3.42-8.63-8.04-9.3l-38.48-5.62c-2.97-.43-5.64,1.87-5.64,4.87v12.19"/>
        <path class="cls-6" d="M111.97,476.4v-.12c0-4.93,2.81-9.44,7.23-11.61l9.62-4.73c3.56-1.75,7.8-1.43,11.05,.85h0c3.74,2.62,5.45,7.3,4.28,11.72l-4.27,5.5"/>
        <polyline class="cls-6" points="111.97 478.01 111.97 488.67 80.85 488.67"/>
        <path class="cls-2" d="M101.92,488.67l9.03,18.74-1.92,3.13c-1.4,2.3-3.9,3.7-6.59,3.7H37.8v-7.11H111.79c4.16,0,8.07-1.98,10.54-5.32l17.56-23.8H70.15c-13.24,0-24.33,9.21-27.21,21.58"/>
      </g>
    </g>
  </g>
</svg>