<?xml version="1.0" encoding="UTF-8"?>
<svg id="Layer_3" data-name="Layer 3" xmlns="http://www.w3.org/2000/svg" xmlns:xlink="http://www.w3.org/1999/xlink" viewBox="0 0 1590 768">
  <defs>
    <style>
      .cls-1 {
        fill: #fff;
      }

      .cls-2, .cls-3, .cls-4, .cls-5, .cls-6, .cls-7, .cls-8 {
        fill: none;
      }

      .cls-2, .cls-3, .cls-4, .cls-5, .cls-7, .cls-9, .cls-8 {
        stroke-linejoin: round;
      }

      .cls-2, .cls-4 {
        stroke-width: 2.5px;
      }

      .cls-2, .cls-4, .cls-7, .cls-8 {
        stroke-linecap: round;
      }

      .cls-2, .cls-5, .cls-7 {
        stroke: #fff;
      }

      .cls-3, .cls-5, .cls-7, .cls-8 {
        stroke-width: 2.01px;
      }

      .cls-3, .cls-9, .cls-8 {
        stroke: #a166ff;
      }

      .cls-4 {
        stroke: #9969e3;
      }

      .cls-10 {
        clip-path: url(#clippath);
      }

      .cls-11 {
        fill: #a166ff;
      }

      .cls-9 {
        fill: #232f3e;
        stroke-width: 3.52px;
      }
    </style>
    <clipPath id="clippath">
      <polygon class="cls-6" points="64.47 229.29 64.47 515.61 312.67 658.78 560.86 515.61 560.86 229.29 312.67 86.12 64.47 229.29"/>
    </clipPath>
  </defs>
  <g>
    <g>
      <path class="cls-11" d="M706.14,330.63h10.41v77.8c0,15.41-3.94,27.17-11.83,35.27s-19.3,12.16-34.24,12.17c-14.95,0-26.37-4.06-34.25-12.17-7.89-8.11-11.83-19.87-11.83-35.27v-77.8h10.41v79.74c0,11.51,3.06,20.36,9.19,26.53,6.13,6.17,14.96,9.29,26.48,9.33,11.52,0,20.35-3.11,26.48-9.33,6.13-6.22,9.19-15.07,9.17-26.53v-79.74Z"/>
      <path class="cls-11" d="M786.76,429.58c.03-1.52-.27-3.02-.86-4.42-.59-1.4-1.47-2.65-2.58-3.69-3.4-2.86-7.33-5.02-11.57-6.35l-16.07-6.01c-12.6-4.68-18.89-12.38-18.88-23.1-.1-3.39,.59-6.76,2.01-9.83,1.42-3.08,3.54-5.78,6.19-7.9,5.48-4.52,12.63-6.78,21.45-6.78,4.33,.02,8.64,.49,12.88,1.4,4.24,.88,8.39,2.18,12.37,3.88v8.29c-8.31-2.85-17.01-4.4-25.79-4.59-6.35,0-11.18,1.24-14.47,3.73-1.67,1.33-2.99,3.04-3.85,4.99-.86,1.95-1.24,4.08-1.1,6.21-.12,1.71,.13,3.43,.72,5.04,.59,1.61,1.52,3.07,2.72,4.3,2.3,2.18,6.81,4.56,13.51,7.15l14.13,5.28c6.58,2.49,11.38,5.52,14.39,9.09,3.05,3.75,4.65,8.48,4.5,13.31,.15,3.63-.57,7.24-2.09,10.54-1.52,3.3-3.8,6.19-6.66,8.43-5.79,4.65-13.69,6.98-23.7,6.98-9.95,.17-19.81-2-28.76-6.35v-8.29c9.43,3.55,19.4,5.44,29.47,5.6,7.18,0,12.65-1.44,16.43-4.31,1.88-1.5,3.37-3.43,4.34-5.63,.97-2.2,1.4-4.6,1.25-6.99Z"/>
      <path class="cls-11" d="M819.84,410.18c.11,12.35,2.82,21.46,8.11,27.33,5.29,5.88,13.47,8.82,24.54,8.83,10.04,.02,19.97-2.08,29.13-6.18v8.29c-9.18,4.91-19.49,7.35-29.9,7.06-14.02,0-24.55-3.97-31.6-11.91-7.05-7.94-10.58-19.73-10.6-35.36,0-14.81,3.56-26.31,10.67-34.48,7.11-8.18,17.08-12.26,29.9-12.25,10.71,0,18.92,3.05,24.61,9.17,5.69,6.11,8.55,14.87,8.58,26.29,.07,4.43-.28,8.86-1.07,13.22h-62.38Zm29.47-39.69c-18.6,0-28.42,10.52-29.47,31.57h53.67c.11-1.64,.17-3.58,.17-5.81,0-8.48-2.06-14.89-6.19-19.23-4.12-4.34-10.18-6.52-18.18-6.54Z"/>
      <path class="cls-11" d="M903.86,452.86v-88.8h8.84l1.05,12.88c3.65-4.3,8.09-7.86,13.08-10.49,4.57-2.11,9.55-3.16,14.58-3.08,2.42,.03,4.83,.2,7.23,.52v9c-3.07-.24-5.83-.35-8.3-.35-4.96-.1-9.88,.92-14.39,2.99-4.65,2.38-8.76,5.69-12.09,9.71v67.55l-10,.07Z"/>
      <path class="cls-11" d="M1065.75,445.12c8,.13,15.98-.94,23.66-3.17v-40.92h-31.43v-9.33h41.84v55.56c-11.2,5.24-23.46,7.83-35.83,7.58-38.96,0-58.43-20.87-58.43-62.6,0-20.46,4.94-36.08,14.82-46.84,9.88-10.77,24.2-16.14,42.98-16.13,11.16,0,22.19,2.32,32.4,6.81v9c-5.57-1.94-11.27-3.53-17.04-4.76-4.8-.94-9.67-1.42-14.56-1.42-16.2,0-28.2,4.12-36.01,12.36-7.81,8.24-11.7,21.12-11.66,38.63v4.41c0,17.29,4.03,30.08,12.09,38.37,8.06,8.29,20.45,12.45,37.17,12.47Z"/>
      <path class="cls-11" d="M1124.9,452.86v-88.8h8.82l1.06,12.88c3.65-4.3,8.09-7.86,13.08-10.49,4.56-2.11,9.54-3.17,14.56-3.08,2.42,.03,4.84,.2,7.23,.52v9c-3.06-.24-5.83-.35-8.29-.35-4.96-.1-9.88,.92-14.39,2.99-4.65,2.39-8.76,5.69-12.09,9.71v67.55l-9.98,.07Z"/>
      <path class="cls-11" d="M1218.45,455.55c-12.95,0-23.01-4.14-30.2-12.43-7.19-8.29-10.78-19.84-10.77-34.65,0-14.82,3.59-26.35,10.77-34.58,7.17-8.23,17.24-12.35,30.2-12.38,12.93,0,22.99,4.11,30.18,12.34,7.19,8.23,10.78,19.75,10.76,34.58,0,14.81-3.58,26.36-10.76,34.65s-17.24,12.45-30.18,12.47Zm0-9.17c20.36,0,30.53-12.64,30.53-37.92s-10.17-37.88-30.53-37.79c-20.37,0-30.56,12.58-30.56,37.75s10.19,37.81,30.56,37.92v.04Z"/>
      <path class="cls-11" d="M1342.05,452.86l-1.07-9.69c-11.18,8.25-22.75,12.38-34.7,12.38-8.48,0-14.99-2.3-19.51-6.89-4.52-4.59-6.79-11.29-6.8-20.09v-64.51h10.07v60.15c0,7.77,1.46,13.37,4.41,16.8,2.95,3.44,7.59,5.21,13.94,5.21,5.53,.03,11.02-.86,16.24-2.65,5.78-2.14,11.24-5.04,16.24-8.64v-70.87h10.08v88.72l-8.9,.07Z"/>
      <path class="cls-11" d="M1376.64,489.16v-125.09h8.82l.9,9.88c4.75-3.96,10.07-7.17,15.79-9.52,5.04-1.98,10.4-2.99,15.81-2.99,11.4,0,20.4,4.08,27,12.25,6.61,8.17,9.9,19.37,9.89,33.61,0,14.48-3.47,26-10.41,34.58-6.94,8.58-16.28,12.86-28.03,12.86-11.08-.04-21.73-4.3-29.77-11.91v46.34h-10Zm39.38-118.52c-9.78,0-19.56,3.77-29.33,11.3v51.66c4.23,3.73,8.99,6.8,14.13,9.09,4.58,1.94,9.51,2.93,14.49,2.91,9.64,0,16.91-3.14,21.8-9.43,4.9-6.29,7.34-15.66,7.33-28.14,0-24.89-9.47-37.35-28.42-37.36v-.04Z"/>
      <path class="cls-11" d="M1521.19,429.58c.03-1.52-.27-3.02-.86-4.42-.59-1.4-1.47-2.65-2.58-3.69-3.39-2.86-7.33-5.02-11.57-6.35l-16.07-6.01c-12.59-4.68-18.89-12.38-18.89-23.1-.09-3.39,.6-6.76,2.02-9.83,1.43-3.08,3.55-5.78,6.2-7.9,5.48-4.52,12.64-6.78,21.46-6.78,4.33,.02,8.64,.49,12.87,1.4,4.24,.87,8.38,2.17,12.35,3.88v8.29c-8.3-2.85-16.99-4.4-25.77-4.59-6.35,0-11.17,1.24-14.46,3.73-1.67,1.33-2.99,3.04-3.86,4.99-.86,1.95-1.23,4.08-1.09,6.21-.12,1.71,.12,3.43,.71,5.04,.6,1.61,1.52,3.08,2.73,4.3,2.29,2.18,6.79,4.56,13.51,7.15l14.13,5.28c6.57,2.49,11.37,5.52,14.39,9.09,3.05,3.75,4.65,8.48,4.5,13.31,.15,3.63-.57,7.24-2.09,10.54-1.52,3.3-3.8,6.19-6.66,8.43-5.8,4.65-13.71,6.98-23.71,6.98-9.96,.17-19.82-2.01-28.78-6.35v-8.29c9.43,3.55,19.41,5.44,29.49,5.6,7.17,0,12.65-1.44,16.43-4.31,1.88-1.5,3.37-3.43,4.35-5.62,.97-2.2,1.4-4.6,1.25-7Z"/>
    </g>
    <g>
      <path class="cls-1" d="M657.98,290.6l-3.36-10.85h-16.3l-3.23,10.85h-10.8l16.82-47.59h11.34l16.82,47.59h-11.29Zm-17.46-18.26h11.96l-6.05-19.92-5.91,19.92Z"/>
      <path class="cls-1" d="M707.07,290.6l-7.57-33.61-7.29,33.61h-11.21l-13.21-47.59h11.42l7.57,36.41,7.48-35.25h10.88l7.7,35.1,7.48-36.26h11.21l-13.08,47.59h-11.36Z"/>
      <path class="cls-1" d="M747.23,269.79c-3.37-1.07-6.41-3-8.8-5.6-2.06-2.79-2.99-6.25-2.6-9.7,.39-3.45,2.07-6.62,4.7-8.88,3.7-2.72,8.23-4.08,12.82-3.85,4.52,0,9,.84,13.21,2.46v7.84c-4-1.31-8.18-2.01-12.39-2.07-5.4,0-8.11,1.75-8.11,5.23-.02,.6,.1,1.19,.35,1.74,.25,.55,.61,1.03,1.07,1.41,1.59,1.17,3.36,2.05,5.25,2.61l5.08,1.87c3.45,1.04,6.58,2.91,9.12,5.45,1.88,2.29,2.84,5.18,2.71,8.14,.1,2.14-.31,4.26-1.19,6.21-.88,1.95-2.22,3.66-3.89,4.99-4.04,2.93-8.97,4.38-13.96,4.09-2.58,0-5.16-.25-7.7-.73-2.27-.36-4.48-.98-6.6-1.87v-7.82c2.41,.72,4.87,1.27,7.36,1.64,2.34,.39,4.71,.59,7.08,.62,2.18,.13,4.35-.38,6.24-1.48,.71-.45,1.28-1.07,1.67-1.81,.39-.74,.57-1.57,.53-2.41,.03-.62-.07-1.25-.3-1.83-.23-.58-.59-1.1-1.04-1.53-1.62-1.21-3.45-2.14-5.38-2.74l-5.23-2Z"/>
    </g>
    <g>
      <path class="cls-11" d="M653.77,552.81v-32.06l-29.17-43.63h12.19l14.92,22.82c2.75,4.27,5.32,8.54,7.69,12.8,2.27-3.96,5.03-8.42,8.26-13.37l14.66-22.25h11.67l-30.2,43.63v32.06h-10.02Z"/>
      <path class="cls-11" d="M729.72,546.04c-3.44,2.93-6.76,4.99-9.94,6.2-3.18,1.21-6.6,1.81-10.25,1.81-6.02,0-10.65-1.47-13.89-4.42-3.24-2.94-4.85-6.7-4.85-11.28,0-2.68,.61-5.14,1.83-7.36,1.22-2.22,2.82-4,4.8-5.34s4.21-2.36,6.69-3.05c1.82-.48,4.58-.95,8.26-1.39,7.5-.89,13.03-1.96,16.57-3.2,.03-1.27,.05-2.08,.05-2.43,0-3.79-.88-6.45-2.63-8-2.38-2.1-5.9-3.15-10.58-3.15-4.37,0-7.6,.77-9.68,2.3-2.08,1.53-3.62,4.24-4.62,8.13l-9.09-1.24c.83-3.89,2.19-7.03,4.08-9.42,1.89-2.39,4.63-4.23,8.21-5.52,3.58-1.29,7.73-1.94,12.44-1.94s8.49,.55,11.41,1.65c2.92,1.1,5.08,2.49,6.45,4.16,1.38,1.67,2.34,3.78,2.89,6.33,.31,1.58,.46,4.44,.46,8.57v12.39c0,8.64,.2,14.1,.59,16.39s1.18,4.48,2.35,6.58h-9.71c-.96-1.93-1.58-4.18-1.86-6.76Zm-.77-20.76c-3.37,1.38-8.43,2.55-15.18,3.51-3.82,.55-6.52,1.17-8.11,1.86s-2.81,1.7-3.67,3.02c-.86,1.33-1.29,2.8-1.29,4.42,0,2.48,.94,4.54,2.81,6.2s4.62,2.48,8.24,2.48,6.76-.78,9.55-2.35,4.84-3.71,6.14-6.43c1-2.1,1.5-5.2,1.5-9.29v-3.41Z"/>
      <path class="cls-11" d="M749.28,525.39c0-10.15,2.82-17.67,8.47-22.56,4.72-4.06,10.46-6.09,17.25-6.09,7.54,0,13.7,2.47,18.48,7.41,4.78,4.94,7.18,11.76,7.18,20.47,0,7.06-1.06,12.61-3.17,16.65-2.12,4.05-5.2,7.19-9.24,9.42-4.04,2.24-8.46,3.36-13.24,3.36-7.68,0-13.88-2.46-18.61-7.38-4.73-4.92-7.1-12.01-7.1-21.27Zm9.55,0c0,7.02,1.53,12.28,4.6,15.77,3.06,3.49,6.92,5.24,11.57,5.24s8.45-1.76,11.51-5.27c3.06-3.51,4.59-8.86,4.59-16.06,0-6.78-1.54-11.92-4.62-15.41-3.08-3.49-6.91-5.24-11.49-5.24s-8.5,1.74-11.57,5.21c-3.06,3.48-4.6,8.73-4.6,15.75Z"/>
      <path class="cls-11" d="M847.49,552.81v-8.05c-4.27,6.2-10.07,9.29-17.4,9.29-3.24,0-6.26-.62-9.06-1.86-2.81-1.24-4.89-2.8-6.25-4.67-1.36-1.88-2.32-4.17-2.87-6.89-.38-1.82-.57-4.72-.57-8.67v-33.97h9.29v30.41c0,4.85,.19,8.12,.57,9.81,.58,2.44,1.82,4.36,3.72,5.76,1.89,1.39,4.23,2.09,7.02,2.09s5.4-.71,7.85-2.14c2.44-1.43,4.17-3.37,5.19-5.83,1.01-2.46,1.52-6.03,1.52-10.71v-29.38h9.29v54.83h-8.31Z"/>
      <path class="cls-11" d="M870.36,552.81v-54.83h8.36v7.8c4.03-6.02,9.84-9.04,17.45-9.04,3.3,0,6.34,.59,9.11,1.78s4.84,2.75,6.22,4.67c1.38,1.93,2.34,4.22,2.89,6.87,.34,1.72,.52,4.73,.52,9.04v33.71h-9.29v-33.35c0-3.79-.36-6.62-1.08-8.49-.72-1.88-2.01-3.37-3.85-4.49-1.84-1.12-4-1.68-6.48-1.68-3.96,0-7.38,1.26-10.25,3.77s-4.31,7.28-4.31,14.3v29.95h-9.29Z"/>
      <path class="cls-11" d="M964.74,552.81v-6.92c-3.48,5.44-8.59,8.16-15.33,8.16-4.37,0-8.39-1.21-12.06-3.61-3.67-2.41-6.51-5.77-8.52-10.09-2.01-4.32-3.02-9.29-3.02-14.9s.91-10.44,2.74-14.9c1.82-4.46,4.56-7.87,8.21-10.25,3.65-2.38,7.73-3.56,12.24-3.56,3.3,0,6.25,.7,8.83,2.09,2.58,1.39,4.68,3.21,6.3,5.45v-27.16h9.24v75.69h-8.62Zm-29.38-27.36c0,7.02,1.48,12.27,4.44,15.75,2.96,3.48,6.45,5.21,10.48,5.21s7.51-1.66,10.35-4.98c2.84-3.32,4.26-8.39,4.26-15.21,0-7.5-1.45-13.01-4.34-16.52s-6.45-5.27-10.69-5.27-7.58,1.69-10.35,5.06c-2.77,3.37-4.16,8.69-4.16,15.95Z"/>
      <path class="cls-11" d="M1025.51,535.15l9.6,1.19c-1.51,5.61-4.32,9.96-8.42,13.06-4.1,3.1-9.33,4.65-15.7,4.65-8.02,0-14.38-2.47-19.08-7.41-4.7-4.94-7.05-11.87-7.05-20.78s2.38-16.38,7.12-21.48c4.75-5.09,10.91-7.64,18.48-7.64s13.32,2.5,17.97,7.49c4.65,4.99,6.97,12.01,6.97,21.07,0,.55-.02,1.38-.05,2.48h-40.89c.34,6.02,2.05,10.64,5.11,13.84s6.88,4.8,11.46,4.8c3.41,0,6.32-.89,8.73-2.68,2.41-1.79,4.32-4.65,5.73-8.57Zm-30.51-15.02h30.62c-.41-4.61-1.58-8.07-3.51-10.38-2.96-3.58-6.8-5.37-11.51-5.37-4.27,0-7.86,1.43-10.77,4.29-2.91,2.86-4.52,6.68-4.83,11.46Zm10.02-28.96l6.87-14.46h12.18l-11.36,14.46h-7.69Z"/>
    </g>
  </g>
  <g>
    <g>
      <path class="cls-9" d="M64.47,231.29v286.33l248.19,143.16,248.19-143.16V231.29L312.67,88.12,64.47,231.29Z"/>
      <path class="cls-3" d="M559.46,252.42c-1.83,3.42-2.93,7.18-3.25,11.04-3.82-3.4-8.55-5.63-13.6-6.41-5.06-.78-10.24-.08-14.91,2.01-4.67,2.09-8.64,5.49-11.41,9.79-2.78,4.29-4.26,9.3-4.25,14.41v1.31c-2.11-.97-4.42-1.41-6.73-1.29-2.32,.12-4.57,.81-6.55,2-1.99,1.19-3.66,2.85-4.86,4.83-1.2,1.98-1.9,4.23-2.04,6.54-3.75,.57-7.15,2.53-9.51,5.49-2.36,2.96-3.52,6.71-3.24,10.49,.28,3.78,1.98,7.31,4.76,9.89,2.78,2.58,6.43,4.02,10.22,4.02h65.38"/>
      <path class="cls-3" d="M66.79,499.47h49.02c2.84,0,5.58-1.08,7.66-3.02,2.08-1.93,3.36-4.58,3.57-7.42,.21-2.83-.66-5.64-2.43-7.86s-4.32-3.69-7.13-4.12c-.1-1.73-.63-3.42-1.53-4.9-.9-1.49-2.15-2.73-3.64-3.62-1.49-.89-3.18-1.41-4.91-1.5-1.74-.09-3.47,.24-5.05,.97v-.99c0-3.83-1.1-7.59-3.19-10.81-2.08-3.22-5.06-5.77-8.56-7.34-3.5-1.57-7.38-2.09-11.18-1.51-3.79,.59-7.34,2.26-10.2,4.81-.23-2.9-1.06-5.72-2.43-8.28"/>
      <path class="cls-5" d="M127.4,286.72h39.01c1.62-.07,3.21-.48,4.65-1.22,1.44-.74,2.71-1.78,3.71-3.06,1-1.28,1.71-2.75,2.09-4.33,.37-1.58,.4-3.22,.07-4.81-.32-1.59-.99-3.09-1.95-4.4-.96-1.31-2.19-2.39-3.61-3.18-1.42-.78-3-1.25-4.61-1.37-1.62-.12-3.24,.12-4.76,.69-.54-1.7-1.41-3.28-2.56-4.64-1.15-1.36-2.56-2.49-4.14-3.31-1.58-.82-3.31-1.32-5.09-1.47-1.78-.15-3.57,.05-5.27,.59-1.61,.5-3.1,1.31-4.41,2.37-.35-1.99-1.09-3.88-2.19-5.58-1.1-1.69-2.52-3.15-4.19-4.28-1.67-1.13-3.55-1.92-5.53-2.32-1.98-.39-4.02-.39-5.99,.02-1.98,.41-3.85,1.21-5.51,2.35-1.66,1.14-3.08,2.61-4.16,4.31s-1.82,3.6-2.15,5.59c-.33,1.99-.27,4.02,.2,5.99,0,.16,0,.31,0,.47-1.38,.49-2.64,1.24-3.74,2.2"/>
      <path class="cls-5" d="M562.69,414.53c-1.98,.39-3.86,1.18-5.53,2.32-1.67,1.13-3.09,2.59-4.19,4.28-1.1,1.69-1.84,3.59-2.19,5.58-1.31-1.06-2.8-1.87-4.41-2.37-1.7-.54-3.49-.74-5.27-.59-1.78,.15-3.51,.65-5.09,1.47-1.58,.82-2.99,1.94-4.14,3.31-1.15,1.36-2.02,2.94-2.56,4.64-1.52-.57-3.14-.81-4.76-.69-1.62,.12-3.19,.58-4.61,1.37-1.42,.78-2.65,1.87-3.61,3.18-.96,1.31-1.63,2.81-1.95,4.4-.32,1.59-.3,3.23,.07,4.81,.37,1.58,1.09,3.06,2.09,4.33,1,1.28,2.27,2.32,3.71,3.06,1.44,.74,3.03,1.16,4.65,1.22h35.06"/>
      <g>
        <path class="cls-8" d="M236.59,153.05v35.87"/>
        <path class="cls-8" d="M254.52,170.97h-35.88"/>
      </g>
      <path class="cls-8" d="M503.36,479.09v35.87"/>
      <path class="cls-8" d="M521.3,497.02h-35.88"/>
      <g>
        <path class="cls-7" d="M183.93,214.7v20.07"/>
        <path class="cls-7" d="M194,224.73h-20.12"/>
      </g>
      <g>
        <path class="cls-7" d="M137.11,525.87v20.07"/>
        <path class="cls-7" d="M147.19,535.9h-20.12"/>
      </g>
      <g>
        <path class="cls-8" d="M453.96,246.12v25.58"/>
        <path class="cls-8" d="M466.74,258.91h-25.58"/>
      </g>
      <g>
        <path class="cls-7" d="M381.04,164.93v34.78"/>
        <path class="cls-7" d="M398.45,182.32h-34.82"/>
      </g>
      <path class="cls-3" d="M64.14,241.29l.32,.19c3.78,2.22,6.96,5.34,9.24,9.08,2.28,3.74,3.6,7.99,3.84,12.37,4.03-1.43,8.35-1.81,12.56-1.1,4.21,.71,8.17,2.48,11.51,5.15v.03c.81-.16,1.65-.24,2.5-.24,7.22,0,13.08,5.86,13.08,13.08,0,.7-.05,1.38-.16,2.05,0,0,6.97,.29,10.05,4.82,1.33,2.19,2.02,4.7,2,7.26v.67c3.48,0,6.83,1.38,9.29,3.84,2.46,2.46,3.85,5.8,3.85,9.28s-1.38,6.82-3.85,9.28c-2.46,2.46-5.81,3.84-9.29,3.84H64.14"/>
    </g>
    <g class="cls-10">
      <g>
        <path class="cls-4" d="M459.06,536.81l-33.18,.66s-35.14-24.93-124.11-31.81"/>
        <path class="cls-4" d="M190.65,470.55s17.5,5.9,129.46,17.38c111.96,11.48,144.76,34.44,144.76,34.44"/>
        <path class="cls-4" d="M222.8,408.23s173.19,5.25,205.99,49.2"/>
        <path class="cls-4" d="M401.24,468.28s-26.6-22.89-126.79-39.83"/>
        <path class="cls-4" d="M338.07,340.44s-23.37-34.57-44.07-42.76"/>
        <path class="cls-4" d="M251.66,349.84s.95,5.41,22.78,7.62c21.83,2.22,105.3,10.95,120.97,39.06"/>
        <path class="cls-4" d="M331.85,388.93s-18.04-6.62-52.39-16.62"/>
        <path class="cls-4" d="M294.01,264.2s67.4,18.82,64.68,54.85"/>
        <path class="cls-4" d="M275.94,282.27c0,4.95,82.83,22.85,89.22,58.17"/>
        <path class="cls-4" d="M338.59,285.26s7.71-11.45-19.6-11.45"/>
        <path class="cls-4" d="M339.59,281.35s3.26-18.1-15.11-19.42c-18.37-1.31-25.61,3.79-25.61,3.79"/>
        <path class="cls-4" d="M257.85,321.3c.71-5.78,6.04-3.3,16.78-6.88,15.74-5.25,21.65-15.09,21.65-15.09"/>
        <path class="cls-4" d="M355.7,447.54s-16.34,6.76-23.85,7.51"/>
        <path class="cls-4" d="M279.46,429.31s-38.81,11.15-80.28,12.38"/>
        <path class="cls-4" d="M285.35,374.04s-22.57,7.58-56.65,6.64"/>
        <path class="cls-4" d="M350.75,511.76s-37.16,10.03-100.17,18.2"/>
        <path class="cls-4" d="M321.9,319.98s-6.91,11.12-14.69,13.14"/>
        <path class="cls-4" d="M169,508.6s5.66-4.37,38.9-9.63c0,0,9.57-1.63,21.39-3.78"/>
        <line class="cls-2" x1="459.62" y1="536.81" x2="463.18" y2="580.37"/>
        <line class="cls-4" x1="278.2" y1="567.65" x2="267.82" y2="613.29"/>
        <line class="cls-2" x1="348.86" y1="558.18" x2="278.2" y2="567.65"/>
        <polyline class="cls-2" points="386.32 595.1 463.18 580.37 426.89 547.31 360.73 556.36"/>
        <line class="cls-4" x1="374.53" y1="598.15" x2="383.62" y2="601.5"/>
        <polyline class="cls-4" points="168.94 593.89 168.94 601.86 174.56 602.36"/>
        <path class="cls-2" d="M159.82,542.06s2.72,14.77,15.38,26.75c0,0,8.19,2.86,20.22,2.86"/>
        <path class="cls-4" d="M228.31,554.18s-25.58-16.2-31.44-17.4c0,0-27.89-1.21-34.33-6.82"/>
        <path class="cls-2" d="M459.62,536.81s-39.51-20.99-127.02-28.21c-87.5-7.22-138.67-20.99-138.67-20.99l-3.28-17.06,8.53-28.87s127.92,9.84,175.16,20.34c47.23,10.5,75.44,20.99,79.38,30.18,3.94,9.18,11.15,30.18,11.15,30.18l-5.25,14.43Z"/>
        <path class="cls-4" d="M260.2,562.15v-27.96s-28.38-13.76-55.19-17.47"/>
        <path class="cls-2" d="M210.99,559.77l-17.71-9.84s-27.55,0-33.46-7.87c-.66-2.62,9.18-33.46,9.18-33.46,0,0,0,5.25,34.77,7.87,11.81,1.97,30.18,15.74,30.18,15.74l-3.28,20.99"/>
        <polyline class="cls-4" points="174.56 594.34 168.94 593.89 218.68 554.18 222.8 554.18 235.53 554.18 235.53 561.35 226.31 562.05 183.87 601.56 174.56 602.36 174.56 594.34 223.7 554.18"/>
        <line class="cls-2" x1="226.31" y1="562.05" x2="278.2" y2="567.65"/>
        <polyline class="cls-2" points="374.53 598.15 267.82 613.29 183.87 601.56"/>
        <polyline class="cls-4" points="350.07 550.34 355.7 550.34 389.14 599.81 383.62 601.5 350.07 550.34 348.86 558.18 374.53 598.15"/>
        <path class="cls-2" d="M425.34,475.82s-2.45-36.76-199.26-51.84l-3.28-15.74,5.9-27.55s63.58-1.98,119.4,11.81c55.76,13.78,75.44,26.24,75.17,49.2,0,0,5.53,10.5,5.53,15.74,0,0-.17,13.14-3.45,18.39Z"/>
        <path class="cls-2" d="M387.44,404.05s-5.88-11.56-56.4-21.4c-50.51-9.84-72.11-12.36-76.1-20.34-2.62-5.25-3.28-12.46-3.28-12.46l6.56-30.18s0,5.9,14.43,7.87,124.16,15.87,117.51,52.55c0,0,9.56,18.47,3.3,26.43"/>
        <path class="cls-2" d="M361.91,348.8s-2.66-18.63-52.52-43.56c-40.67-19.68-35.92-17.5-32.8-28.21,31.95-109.5,23.67-142.36,28.21-142.36,5.09,0-3.08,45.5,30.83,129.24,0,0-11.84-3.67-19.68-12.46-7.04-7.9-24.34-12.33-22.96,9.18,1.02,15.04,14.43,24.27,14.43,24.27,0,0,56.42,17.06,57.73,53.79v11.57"/>
        <path class="cls-4" d="M426.68,537.88l.2,9.43s-46.85-22.33-166.68-5.25"/>
      </g>
    </g>
  </g>
</svg>