<svg width="631" height="631" viewBox="0 0 631 631" fill="none" xmlns="http://www.w3.org/2000/svg">
<g clip-path="url(#clip0_2821_2)">
<path d="M542.329 265.336C542.329 260.567 540.436 255.994 537.069 252.619C533.7 249.245 529.128 247.345 524.361 247.336C529.125 247.336 533.697 245.443 537.066 242.074C540.436 238.704 542.329 234.134 542.329 229.369C542.338 234.137 544.238 238.707 547.61 242.076C550.986 245.444 555.561 247.336 560.328 247.336C555.558 247.345 550.983 249.244 547.61 252.618C544.238 255.991 542.338 260.565 542.329 265.336Z" stroke="white" stroke-width="3" stroke-linejoin="round"/>
<path d="M506.283 179.835C506.283 175.066 504.365 170.491 500.951 167.119C497.537 163.746 492.906 161.852 488.079 161.852C492.906 161.852 497.537 159.957 500.951 156.584C504.365 153.212 506.283 148.638 506.283 143.868C506.283 148.616 508.182 153.171 511.571 156.54C514.956 159.909 519.556 161.819 524.361 161.852C519.534 161.852 514.902 163.746 511.489 167.119C508.075 170.491 506.157 175.066 506.157 179.835H506.283Z" stroke="white" stroke-width="3" stroke-linejoin="round"/>
<path d="M103.016 448.029C77.529 431.762 60.0408 403.515 60.5882 371.896" stroke="white" stroke-width="3" stroke-linejoin="round"/>
<path d="M102.809 448.168C116.375 457.264 153.92 475.459 195.566 475.459" stroke="white" stroke-width="4"/>
<path d="M60.5886 371.895C60.5886 323.763 97.3892 284.267 144.44 279.889C144.379 278.521 144.227 277.183 144.227 275.815C144.227 242.247 171.477 215.035 205.055 215.035C221.356 215.035 236.138 221.481 247.026 231.91C265.761 182.136 313.693 146.593 370.05 146.593C442.678 146.593 501.56 205.457 501.56 278.034V278.095C541.127 290.956 569.717 328.082 569.717 371.895C569.717 398.208 559.423 422.117 542.638 439.807" stroke="white" stroke-width="4" stroke-linejoin="round"/>
<path d="M214.871 374.297C208.79 376.622 201.995 377.783 194.486 377.783C181.798 377.783 172.187 374.41 165.655 367.662C159.123 360.84 155.857 350.868 155.857 337.746C155.857 324.776 159.273 314.73 166.106 307.607C172.938 300.484 182.549 296.923 194.937 296.923C201.544 296.923 207.813 297.973 213.745 300.072V313.343C206.912 311.843 201.319 311.094 196.964 311.094C189.156 311.094 183.299 313.156 179.395 317.279C175.566 321.403 173.651 327.7 173.651 336.172V338.759C173.651 347.157 175.528 353.417 179.282 357.54C183.037 361.588 188.78 363.614 196.514 363.614C200.868 363.614 206.987 362.752 214.871 361.027V374.297Z" fill="white"/>
<path d="M251.612 375.199C248.459 376.474 245.08 377.111 241.476 377.111C231.34 377.111 226.272 371.448 226.272 360.128V293.1H242.715V358.777C242.715 360.879 243.053 362.377 243.729 363.276C244.48 364.1 245.681 364.513 247.333 364.513C248.384 364.513 249.81 364.403 251.612 364.175V375.199Z" fill="white"/>
<path d="M287.362 378.01C278.427 378.01 271.445 375.347 266.414 370.025C261.384 364.627 258.869 357.127 258.869 347.533C258.869 338.011 261.384 330.587 266.414 325.265C271.445 319.867 278.427 317.166 287.362 317.166C296.297 317.166 303.279 319.867 308.31 325.265C313.34 330.587 315.856 338.011 315.856 347.533C315.856 357.127 313.34 364.627 308.31 370.025C303.279 375.347 296.297 378.01 287.362 378.01ZM287.362 365.412C295.246 365.412 299.188 359.452 299.188 347.533C299.188 335.686 295.246 329.764 287.362 329.764C279.479 329.764 275.537 335.686 275.537 347.533C275.537 359.452 279.479 365.412 287.362 365.412Z" fill="white"/>
<path d="M366.958 376.322L365.38 370.248C358.698 375.423 351.716 378.01 344.434 378.01C339.326 378.01 335.348 376.508 332.496 373.511C329.644 370.438 328.215 366.238 328.215 360.916V318.854H344.658V356.303C344.658 362.377 347.287 365.412 352.543 365.412C356.446 365.412 360.276 364.213 364.03 361.815V318.854H380.474V376.322H366.958Z" fill="white"/>
<path d="M435.049 376.322L433.699 371.262C429.045 375.461 423.527 377.559 417.145 377.559C412.412 377.559 408.248 376.398 404.641 374.073C401.038 371.675 398.224 368.223 396.195 363.727C394.242 359.228 393.268 353.941 393.268 347.87C393.268 338.573 395.482 331.149 399.912 325.602C404.342 319.977 410.197 317.166 417.482 317.166C423.414 317.166 428.556 318.854 432.91 322.227V293.1H449.354V376.322H435.049ZM422.549 365.188C426.152 365.188 429.607 364.138 432.91 362.04V332.348C429.683 330.474 425.966 329.537 421.76 329.537C417.782 329.537 414.816 331.038 412.863 334.036C410.913 336.96 409.935 341.422 409.935 347.419C409.935 353.417 410.948 357.878 412.977 360.803C415.078 363.727 418.271 365.188 422.549 365.188Z" fill="white"/>
<path d="M285.286 478.576C279.205 480.901 272.41 482.062 264.902 482.062C252.213 482.062 242.603 478.689 236.071 471.941C229.539 465.117 226.272 455.147 226.272 442.025C226.272 429.055 229.689 419.009 236.521 411.885C243.354 404.761 252.964 401.203 265.352 401.203C271.96 401.203 278.229 402.25 284.16 404.351V417.621C277.328 416.123 271.734 415.372 267.38 415.372C259.571 415.372 253.715 417.435 249.811 421.559C245.981 425.682 244.067 431.98 244.067 440.451V443.038C244.067 451.433 245.944 457.696 249.698 461.82C253.452 465.868 259.196 467.893 266.929 467.893C271.284 467.893 277.403 467.029 285.286 465.306V478.576Z" fill="white"/>
<path d="M322.028 479.475C318.876 480.749 315.496 481.387 311.892 481.387C301.756 481.387 296.688 475.727 296.688 464.406V397.378H313.131V463.056C313.131 465.154 313.468 466.656 314.144 467.555C314.895 468.379 316.096 468.792 317.75 468.792C318.8 468.792 320.226 468.678 322.028 468.454V479.475Z" fill="white"/>
<path d="M371.605 480.601L370.028 474.528C363.346 479.699 356.364 482.286 349.079 482.286C343.974 482.286 339.995 480.787 337.14 477.79C334.288 474.714 332.862 470.515 332.862 465.192V423.133H349.306V460.583C349.306 466.656 351.934 469.691 357.187 469.691C361.093 469.691 364.923 468.492 368.674 466.091V423.133H385.118V480.601H371.605Z" fill="white"/>
<path d="M400.843 480.601V397.378H417.283V427.518C419.46 425.644 422.016 424.18 424.944 423.133C427.872 422.006 430.762 421.445 433.614 421.445C440.899 421.445 446.641 424.108 450.846 429.43C455.125 434.753 457.267 441.949 457.267 451.023C457.267 456.945 456.289 462.229 454.336 466.88C452.386 471.527 449.569 475.203 445.89 477.9C442.211 480.525 437.971 481.838 433.166 481.838C429.711 481.838 426.483 481.238 423.48 480.036C420.476 478.837 417.962 477.153 415.933 474.976L414.469 480.601H400.843ZM428.323 433.816C424.417 433.816 420.738 434.828 417.283 436.851V466.429C420.587 468.454 424.269 469.467 428.323 469.467C432.525 469.467 435.605 468.041 437.558 465.192C439.583 462.343 440.599 457.844 440.599 451.698C440.599 445.473 439.621 440.94 437.668 438.087C435.718 435.238 432.601 433.816 428.323 433.816Z" fill="white"/>
<path d="M494.572 464.744C494.572 463.242 494.12 462.081 493.218 461.258C492.392 460.431 490.666 459.532 488.038 458.557L479.254 455.071C474.673 453.272 471.37 451.061 469.341 448.436C467.316 445.811 466.303 442.476 466.303 438.425C466.303 433.327 468.328 429.241 472.383 426.168C476.512 423.019 481.993 421.445 488.826 421.445C495.133 421.445 500.951 422.682 506.283 425.155V436.065C500.576 434.339 495.247 433.478 490.29 433.478C487.211 433.478 484.958 433.853 483.532 434.601C482.106 435.352 481.393 436.551 481.393 438.201C481.393 439.476 481.807 440.526 482.633 441.35C483.532 442.101 485.372 443.038 488.151 444.161L496.711 447.647C501.364 449.521 504.668 451.698 506.621 454.172C508.649 456.645 509.662 459.87 509.662 463.842C509.662 469.391 507.523 473.89 503.242 477.339C499.036 480.711 493.48 482.399 486.574 482.399C478.841 482.399 472.007 480.863 466.076 477.79V466.88C473.509 469.205 480.305 470.366 486.46 470.366C491.868 470.366 494.572 468.492 494.572 464.744Z" fill="white"/>
<path d="M99.8712 265.304C99.8548 260.542 97.9678 255.98 94.6238 252.618C91.2799 249.256 86.7512 247.368 82.03 247.368C86.7619 247.368 91.2997 245.471 94.6456 242.096C97.9915 238.72 99.8712 234.142 99.8712 229.369C99.8671 231.731 100.325 234.071 101.218 236.254C102.111 238.438 103.423 240.422 105.077 242.094C106.731 243.766 108.696 245.092 110.859 245.997C113.022 246.902 115.34 247.368 117.682 247.368C112.958 247.368 108.428 249.261 105.088 252.63C101.748 256 99.8712 260.57 99.8712 265.336V265.304Z" stroke="white" stroke-width="3" stroke-linejoin="round"/>
<path d="M249.876 124.307C249.876 119.537 248.015 114.963 244.701 111.591C241.388 108.218 236.894 106.323 232.208 106.323C234.528 106.323 236.826 105.858 238.969 104.954C241.113 104.051 243.061 102.726 244.701 101.056C246.342 99.3861 247.643 97.4038 248.531 95.2218C249.419 93.0398 249.876 90.7014 249.876 88.3398C249.876 90.7014 250.333 93.0398 251.221 95.2218C252.109 97.4038 253.41 99.3861 255.051 101.056C256.691 102.726 258.639 104.051 260.783 104.954C262.926 105.858 265.224 106.323 267.544 106.323C262.858 106.323 258.364 108.218 255.051 111.591C251.737 114.963 249.876 119.537 249.876 124.307Z" stroke="white" stroke-width="3" stroke-linejoin="round"/>
<path d="M99.5558 265.304C99.5394 260.542 97.6524 255.98 94.3084 252.618C90.9644 249.256 86.4357 247.368 81.7146 247.368C86.4465 247.368 90.9843 245.471 94.3302 242.096C97.6761 238.72 99.5558 234.142 99.5558 229.369C99.5517 231.731 100.009 234.071 100.903 236.254C101.796 238.438 103.107 240.422 104.761 242.094C106.416 243.766 108.38 245.092 110.543 245.997C112.706 246.902 115.024 247.368 117.366 247.368C112.642 247.368 108.112 249.261 104.772 252.63C101.432 256 99.5558 260.57 99.5558 265.336V265.304Z" stroke="white" stroke-width="3" stroke-linejoin="round"/>
<path d="M181.223 164.817C181.223 165.984 181.349 166.931 181.57 167.625C181.823 168.319 182.138 169.076 182.58 169.897C182.738 170.149 182.801 170.401 182.801 170.622C182.801 170.938 182.611 171.253 182.201 171.569L180.214 172.894C179.93 173.083 179.646 173.178 179.393 173.178C179.078 173.178 178.762 173.02 178.447 172.736C178.005 172.263 177.627 171.758 177.311 171.253C176.996 170.717 176.68 170.117 176.333 169.392C173.872 172.294 170.78 173.746 167.057 173.746C164.407 173.746 162.293 172.988 160.747 171.474C159.201 169.96 158.413 167.94 158.413 165.416C158.413 162.735 159.359 160.558 161.284 158.917C163.208 157.277 165.764 156.456 169.013 156.456C170.086 156.456 171.19 156.551 172.358 156.709C173.525 156.866 174.724 157.119 175.986 157.403V155.1C175.986 152.702 175.481 151.03 174.503 150.052C173.493 149.074 171.79 148.6 169.36 148.6C168.256 148.6 167.12 148.726 165.953 149.01C164.786 149.294 163.65 149.641 162.546 150.083C162.041 150.304 161.662 150.43 161.441 150.493C161.221 150.556 161.063 150.588 160.937 150.588C160.495 150.588 160.274 150.272 160.274 149.61V148.064C160.274 147.559 160.337 147.181 160.495 146.96C160.653 146.739 160.937 146.518 161.378 146.297C162.483 145.729 163.808 145.256 165.354 144.877C166.9 144.467 168.54 144.278 170.275 144.278C174.03 144.278 176.775 145.13 178.542 146.833C180.277 148.537 181.16 151.124 181.16 154.595V164.817H181.223ZM168.414 169.613C169.455 169.613 170.528 169.423 171.664 169.045C172.799 168.666 173.809 167.972 174.661 167.026C175.166 166.426 175.544 165.763 175.734 165.006C175.923 164.249 176.049 163.334 176.049 162.261V160.936C175.134 160.715 174.156 160.526 173.146 160.4C172.137 160.274 171.159 160.211 170.181 160.211C168.067 160.211 166.521 160.621 165.48 161.473C164.439 162.325 163.934 163.523 163.934 165.101C163.934 166.584 164.312 167.688 165.101 168.445C165.858 169.234 166.963 169.613 168.414 169.613ZM193.749 173.02C193.181 173.02 192.802 172.925 192.55 172.705C192.297 172.515 192.076 172.073 191.887 171.474L184.473 147.086C184.284 146.455 184.189 146.045 184.189 145.824C184.189 145.319 184.441 145.035 184.946 145.035H188.038C188.637 145.035 189.048 145.13 189.269 145.351C189.521 145.54 189.71 145.982 189.9 146.581L195.2 167.467L200.122 146.581C200.279 145.95 200.469 145.54 200.721 145.351C200.974 145.161 201.415 145.035 201.983 145.035H204.507C205.107 145.035 205.517 145.13 205.769 145.351C206.022 145.54 206.242 145.982 206.369 146.581L211.354 167.72L216.812 146.581C217.001 145.95 217.222 145.54 217.443 145.351C217.695 145.161 218.105 145.035 218.673 145.035H221.607C222.112 145.035 222.396 145.288 222.396 145.824C222.396 145.982 222.364 146.139 222.333 146.329C222.301 146.518 222.238 146.77 222.112 147.117L214.509 171.506C214.319 172.137 214.098 172.547 213.846 172.736C213.594 172.925 213.183 173.052 212.647 173.052H209.934C209.334 173.052 208.924 172.957 208.672 172.736C208.419 172.515 208.198 172.105 208.072 171.474L203.182 151.124L198.323 171.443C198.166 172.074 197.976 172.484 197.724 172.705C197.472 172.925 197.03 173.02 196.462 173.02H193.749ZM234.29 173.872C232.65 173.872 231.009 173.683 229.432 173.304C227.854 172.925 226.624 172.515 225.803 172.042C225.299 171.758 224.952 171.442 224.825 171.159C224.699 170.875 224.636 170.559 224.636 170.275V168.666C224.636 168.004 224.888 167.688 225.362 167.688C225.551 167.688 225.74 167.72 225.93 167.783C226.119 167.846 226.403 167.972 226.718 168.098C227.791 168.571 228.958 168.95 230.189 169.202C231.451 169.455 232.681 169.581 233.943 169.581C235.931 169.581 237.477 169.234 238.55 168.54C239.622 167.846 240.19 166.836 240.19 165.543C240.19 164.659 239.906 163.934 239.338 163.334C238.77 162.735 237.698 162.198 236.152 161.694L231.577 160.274C229.274 159.548 227.57 158.475 226.529 157.056C225.488 155.667 224.952 154.122 224.952 152.481C224.952 151.156 225.236 149.988 225.803 148.979C226.371 147.969 227.129 147.086 228.075 146.392C229.022 145.666 230.094 145.13 231.356 144.751C232.618 144.373 233.943 144.215 235.332 144.215C236.026 144.215 236.751 144.246 237.445 144.341C238.171 144.436 238.834 144.562 239.496 144.688C240.127 144.846 240.727 145.004 241.294 145.193C241.862 145.382 242.304 145.571 242.62 145.761C243.061 146.013 243.377 146.266 243.566 146.55C243.755 146.802 243.85 147.149 243.85 147.591V149.074C243.85 149.736 243.598 150.083 243.124 150.083C242.872 150.083 242.462 149.957 241.925 149.705C240.127 148.884 238.108 148.474 235.868 148.474C234.069 148.474 232.65 148.758 231.672 149.357C230.694 149.957 230.189 150.872 230.189 152.165C230.189 153.049 230.504 153.806 231.135 154.405C231.766 155.005 232.934 155.604 234.606 156.141L239.086 157.56C241.358 158.286 242.998 159.296 243.976 160.589C244.954 161.883 245.428 163.366 245.428 165.006C245.428 166.363 245.144 167.593 244.607 168.666C244.039 169.739 243.282 170.685 242.304 171.443C241.326 172.231 240.159 172.799 238.802 173.209C237.382 173.651 235.899 173.872 234.29 173.872Z" fill="white"/>
<path d="M240.253 189.205C229.873 196.872 214.792 200.942 201.825 200.942C183.653 200.942 167.278 194.222 154.91 183.053C153.932 182.17 154.816 180.971 155.983 181.665C169.36 189.426 185.861 194.127 202.93 194.127C214.445 194.127 227.097 191.729 238.739 186.807C240.474 186.019 241.957 187.943 240.253 189.205Z" fill="#FF9900"/>
<path d="M244.576 184.283C243.25 182.58 235.805 183.463 232.429 183.873C231.419 184 231.261 183.116 232.176 182.454C238.108 178.289 247.857 179.488 248.993 180.876C250.128 182.296 248.677 192.045 243.124 196.714C242.272 197.44 241.452 197.061 241.831 196.115C243.093 192.991 245.901 185.956 244.576 184.283Z" fill="#FF9900"/>
</g>
<defs>
<clipPath id="clip0_2821_2">
<rect width="631" height="631" fill="white"/>
</clipPath>
</defs>
</svg>
