<svg width="1590" height="768" viewBox="0 0 1590 768" fill="none" xmlns="http://www.w3.org/2000/svg">
<path d="M706.139 330.631H716.548V408.43C716.548 423.839 712.605 435.595 704.719 443.698C696.833 451.801 685.421 455.859 670.483 455.871C655.532 455.871 644.114 451.813 636.228 443.698C628.342 435.583 624.398 423.827 624.398 408.43V330.631H634.808V410.372C634.808 421.885 637.872 430.728 644.002 436.902C650.132 443.076 658.959 446.187 670.483 446.237C682.007 446.237 690.834 443.125 696.963 436.902C703.093 430.679 706.152 421.835 706.139 410.372V330.631Z" fill="#A166FF"/>
<path d="M786.758 429.583C786.784 428.068 786.491 426.564 785.899 425.168C785.306 423.772 784.428 422.516 783.32 421.48C779.924 418.618 775.992 416.46 771.752 415.133L755.681 409.121C743.085 404.441 736.793 396.742 736.806 386.026C736.707 382.637 737.397 379.271 738.82 376.194C740.244 373.116 742.362 370.41 745.01 368.289C750.492 363.771 757.643 361.512 766.463 361.512C770.792 361.535 775.107 362.004 779.339 362.912C783.584 363.787 787.728 365.088 791.711 366.795V375.085C783.402 372.236 774.703 370.687 765.922 370.492C759.568 370.492 754.746 371.737 751.457 374.226C749.787 375.555 748.464 377.268 747.602 379.219C746.739 381.17 746.363 383.3 746.505 385.428C746.388 387.138 746.634 388.854 747.226 390.463C747.819 392.071 748.745 393.537 749.943 394.763C752.248 396.942 756.752 399.325 763.455 401.914L777.583 407.198C784.161 409.687 788.957 412.718 791.972 416.29C795.026 420.043 796.624 424.768 796.476 429.602C796.623 433.229 795.907 436.84 794.386 440.137C792.866 443.435 790.585 446.325 787.73 448.571C781.937 453.226 774.038 455.554 764.034 455.554C754.081 455.726 744.228 453.551 735.273 449.206V440.916C744.701 444.464 754.671 446.359 764.744 446.517C771.92 446.517 777.396 445.08 781.171 442.204C783.05 440.705 784.538 438.774 785.511 436.577C786.484 434.38 786.912 431.981 786.758 429.583Z" fill="#A166FF"/>
<path d="M819.836 410.185C819.948 422.532 822.652 431.643 827.947 437.518C833.241 443.393 841.42 446.337 852.484 446.349C862.523 446.37 872.453 444.264 881.618 440.169V448.459C872.436 453.373 862.129 455.806 851.717 455.516C837.702 455.516 827.168 451.546 820.116 443.605C813.065 435.664 809.533 423.877 809.52 408.243C809.52 393.432 813.077 381.937 820.191 373.759C827.305 365.582 837.272 361.499 850.092 361.512C860.806 361.512 869.01 364.567 874.704 370.679C880.397 376.79 883.256 385.553 883.281 396.966C883.354 401.397 882.997 405.824 882.216 410.185H819.836ZM849.307 370.492C830.706 370.492 820.883 381.016 819.836 402.063H873.508C873.62 400.421 873.676 398.479 873.676 396.257C873.676 387.781 871.614 381.371 867.49 377.027C863.366 372.683 857.305 370.505 849.307 370.492Z" fill="#A166FF"/>
<path d="M903.857 452.865V364.069H912.696L913.743 376.952C917.395 372.655 921.835 369.094 926.824 366.459C931.389 364.348 936.371 363.295 941.401 363.379C943.82 363.405 946.235 363.579 948.633 363.901V372.9C945.568 372.658 942.802 372.546 940.335 372.546C935.375 372.445 930.456 373.466 925.946 375.533C921.298 377.916 917.184 381.22 913.855 385.241V452.79L903.857 452.865Z" fill="#A166FF"/>
<path d="M1065.75 445.117C1073.75 445.245 1081.72 444.175 1089.41 441.943V401.018H1057.98V391.683H1099.82V447.245C1088.62 452.487 1076.36 455.08 1063.99 454.826C1025.03 454.826 1005.56 433.958 1005.56 392.224C1005.56 371.762 1010.5 356.147 1020.38 345.381C1030.26 334.614 1044.58 329.237 1063.36 329.25C1074.52 329.249 1085.55 331.57 1095.76 336.064V345.063C1090.19 343.123 1084.49 341.533 1078.72 340.302C1073.92 339.359 1069.05 338.884 1064.16 338.883C1047.96 338.883 1035.96 343.003 1028.15 351.243C1020.34 359.483 1016.45 372.359 1016.49 389.872V394.278C1016.49 411.567 1020.52 424.356 1028.58 432.645C1036.64 440.935 1049.03 445.092 1065.75 445.117Z" fill="#A166FF"/>
<path d="M1124.9 452.865V364.069H1133.72L1134.78 376.952C1138.43 372.651 1142.87 369.089 1147.86 366.459C1152.42 364.346 1157.4 363.293 1162.42 363.379C1164.84 363.405 1167.26 363.579 1169.65 363.901V372.9C1166.59 372.658 1163.82 372.546 1161.36 372.546C1156.4 372.449 1151.48 373.47 1146.97 375.533C1142.32 377.921 1138.21 381.224 1134.88 385.241V452.79L1124.9 452.865Z" fill="#A166FF"/>
<path d="M1218.45 455.554C1205.5 455.554 1195.44 451.409 1188.25 443.119C1181.06 434.83 1177.47 423.279 1177.48 408.467C1177.48 393.643 1181.07 382.117 1188.25 373.89C1195.42 365.663 1205.49 361.537 1218.45 361.512C1231.38 361.512 1241.44 365.625 1248.63 373.853C1255.82 382.08 1259.41 393.606 1259.39 408.43C1259.39 423.242 1255.8 434.792 1248.63 443.082C1241.45 451.372 1231.39 455.529 1218.45 455.554ZM1218.45 446.387C1238.81 446.387 1248.98 433.747 1248.98 408.467C1248.98 383.188 1238.81 370.592 1218.45 370.679C1198.08 370.679 1187.89 383.263 1187.89 408.43C1187.89 433.597 1198.08 446.237 1218.45 446.349V446.387Z" fill="#A166FF"/>
<path d="M1342.05 452.865L1340.98 443.175C1329.8 451.428 1318.23 455.554 1306.28 455.554C1297.8 455.554 1291.29 453.257 1286.77 448.664C1282.25 444.072 1279.98 437.375 1279.97 428.575V364.07H1290.04V424.225C1290.04 431.992 1291.5 437.593 1294.45 441.028C1297.4 444.464 1302.04 446.237 1308.39 446.237C1313.92 446.271 1319.41 445.375 1324.63 443.586C1330.41 441.45 1335.87 438.543 1340.87 434.942V364.07H1350.94V452.791L1342.05 452.865Z" fill="#A166FF"/>
<path d="M1376.64 489.16V364.07H1385.46L1386.36 373.946C1391.11 369.988 1396.43 366.777 1402.15 364.424C1407.18 362.446 1412.55 361.432 1417.96 361.437C1429.36 361.437 1438.36 365.52 1444.96 373.685C1451.57 381.85 1454.86 393.052 1454.85 407.291C1454.85 421.767 1451.38 433.293 1444.44 441.868C1437.5 450.444 1428.16 454.732 1416.41 454.732C1405.33 454.69 1394.68 450.43 1386.64 442.821V489.16H1376.64ZM1416.02 370.641C1406.24 370.641 1396.46 374.407 1386.69 381.937V433.597C1390.92 437.326 1395.68 440.392 1400.82 442.69C1405.4 444.629 1410.33 445.62 1415.31 445.602C1424.95 445.602 1432.22 442.46 1437.11 436.174C1442.01 429.888 1444.45 420.51 1444.44 408.038C1444.44 383.144 1434.97 370.691 1416.02 370.679V370.641Z" fill="#A166FF"/>
<path d="M1521.19 429.583C1521.22 428.068 1520.92 426.564 1520.33 425.168C1519.74 423.772 1518.86 422.516 1517.75 421.48C1514.36 418.618 1510.42 416.46 1506.18 415.133L1490.11 409.121C1477.52 404.441 1471.22 396.742 1471.22 386.026C1471.12 382.635 1471.82 379.269 1473.24 376.192C1474.67 373.114 1476.79 370.409 1479.44 368.289C1484.92 363.771 1492.08 361.512 1500.9 361.512C1505.22 361.535 1509.54 362.004 1513.77 362.912C1518.01 363.784 1522.15 365.085 1526.12 366.795V375.085C1517.82 372.235 1509.13 370.686 1500.35 370.492C1494 370.492 1489.18 371.737 1485.89 374.226C1484.22 375.555 1482.9 377.268 1482.03 379.219C1481.17 381.17 1480.8 383.3 1480.94 385.428C1480.82 387.139 1481.06 388.856 1481.65 390.465C1482.24 392.075 1483.17 393.54 1484.38 394.763C1486.67 396.942 1491.17 399.325 1497.89 401.914L1512.02 407.198C1518.59 409.687 1523.39 412.718 1526.4 416.29C1529.46 420.043 1531.06 424.768 1530.91 429.602C1531.06 433.229 1530.34 436.84 1528.82 440.137C1527.3 443.435 1525.02 446.325 1522.16 448.571C1516.36 453.226 1508.45 455.554 1498.45 455.554C1488.49 455.72 1478.63 453.546 1469.67 449.206V440.916C1479.1 444.462 1489.08 446.357 1499.16 446.517C1506.33 446.517 1511.81 445.08 1515.58 442.204C1517.47 440.707 1518.96 438.777 1519.94 436.58C1520.91 434.383 1521.34 431.983 1521.19 429.583Z" fill="#A166FF"/>
<path d="M657.981 290.602L654.617 279.755H638.321L635.088 290.602H624.286L641.105 243.012H652.449L669.268 290.602H657.981ZM640.526 272.343H652.486L646.431 252.422L640.526 272.343Z" fill="#232F3E"/>
<path d="M707.074 290.602L699.505 256.996L692.217 290.602H681.004L667.792 243.012H679.21L686.779 279.419L694.254 244.169H705.13L712.829 279.269L720.305 243.012H731.517L718.436 290.602H707.074Z" fill="#232F3E"/>
<path d="M747.234 269.785C743.861 268.716 740.827 266.785 738.432 264.184C736.371 261.395 735.441 257.93 735.829 254.485C736.217 251.04 737.895 247.868 740.525 245.607C744.225 242.883 748.755 241.524 753.345 241.761C757.863 241.764 762.342 242.6 766.557 244.225V252.067C762.555 250.758 758.378 250.059 754.167 249.994C748.766 249.994 746.056 251.749 746.056 255.222C746.039 255.821 746.157 256.416 746.403 256.963C746.649 257.509 747.016 257.993 747.477 258.377C749.062 259.547 750.839 260.432 752.728 260.991L757.811 262.858C761.256 263.893 764.39 265.766 766.931 268.31C768.81 270.596 769.775 273.495 769.64 276.45C769.74 278.586 769.332 280.715 768.448 282.662C767.564 284.61 766.231 286.32 764.557 287.652C760.516 290.584 755.584 292.028 750.597 291.741C748.014 291.739 745.436 291.495 742.898 291.013C740.633 290.655 738.418 290.029 736.301 289.146V281.323C738.715 282.039 741.175 282.588 743.664 282.966C746.006 283.354 748.374 283.56 750.747 283.582C752.928 283.716 755.099 283.203 756.989 282.107C757.696 281.66 758.272 281.035 758.66 280.294C759.047 279.553 759.231 278.723 759.194 277.888C759.226 277.264 759.122 276.64 758.889 276.06C758.657 275.48 758.302 274.957 757.848 274.527C756.224 273.313 754.404 272.384 752.466 271.783L747.234 269.785Z" fill="#232F3E"/>
<path d="M627 553.776V479H652.614C658.396 479 662.808 479.357 665.852 480.071C670.112 481.057 673.747 482.843 676.756 485.427C680.679 488.759 683.604 493.027 685.531 498.23C687.492 503.398 688.473 509.315 688.473 515.98C688.473 521.659 687.813 526.691 686.495 531.078C685.176 535.464 683.485 539.103 681.423 541.993C679.36 544.85 677.094 547.111 674.626 548.777C672.192 550.409 669.233 551.651 665.75 552.501C662.301 553.351 658.328 553.776 653.831 553.776H627ZM636.84 544.952H652.715C657.618 544.952 661.456 544.493 664.228 543.574C667.035 542.656 669.267 541.364 670.924 539.698C673.257 537.352 675.066 534.206 676.351 530.262C677.669 526.283 678.329 521.472 678.329 515.827C678.329 508.006 677.044 502.004 674.474 497.821C671.938 493.605 668.844 490.783 665.192 489.354C662.555 488.334 658.311 487.824 652.461 487.824H636.84V544.952Z" fill="#A166FF"/>
<path d="M697.501 526.691C697.501 516.66 700.273 509.23 705.819 504.401C710.451 500.389 716.098 498.383 722.759 498.383C730.164 498.383 736.217 500.831 740.917 505.728C745.617 510.59 747.967 517.323 747.967 525.926C747.967 532.897 746.919 538.389 744.823 542.401C742.76 546.38 739.734 549.474 735.744 551.685C731.788 553.895 727.459 555 722.759 555C715.219 555 709.116 552.569 704.449 547.706C699.817 542.843 697.501 535.838 697.501 526.691ZM706.884 526.691C706.884 533.628 708.389 538.831 711.398 542.299C714.407 545.734 718.195 547.451 722.759 547.451C727.29 547.451 731.061 545.717 734.07 542.248C737.079 538.78 738.584 533.492 738.584 526.385C738.584 519.686 737.062 514.62 734.019 511.185C731.01 507.717 727.257 505.983 722.759 505.983C718.195 505.983 714.407 507.7 711.398 511.134C708.389 514.569 706.884 519.754 706.884 526.691Z" fill="#A166FF"/>
<path d="M794.021 553.776V545.819C789.828 551.94 784.131 555 776.928 555C773.75 555 770.774 554.388 768.002 553.164C765.263 551.94 763.217 550.409 761.864 548.573C760.546 546.703 759.616 544.425 759.075 541.738C758.703 539.936 758.517 537.08 758.517 533.169V499.607H767.647V529.65C767.647 534.444 767.833 537.675 768.204 539.341C768.779 541.755 769.997 543.66 771.856 545.054C773.716 546.414 776.015 547.094 778.754 547.094C781.493 547.094 784.063 546.397 786.464 545.003C788.864 543.574 790.555 541.653 791.536 539.239C792.55 536.791 793.057 533.254 793.057 528.63V499.607H802.187V553.776H794.021Z" fill="#A166FF"/>
<path d="M851.69 547.094C848.308 549.984 845.045 552.025 841.901 553.215C838.79 554.405 835.442 555 831.858 555C825.941 555 821.393 553.555 818.214 550.664C815.036 547.74 813.447 544.017 813.447 539.494C813.447 536.842 814.038 534.427 815.222 532.251C816.439 530.041 818.012 528.272 819.939 526.946C821.9 525.62 824.098 524.617 826.532 523.937C828.325 523.461 831.03 523.002 834.648 522.56C842.019 521.676 847.446 520.621 850.929 519.397C850.963 518.139 850.98 517.34 850.98 517C850.98 513.26 850.117 510.624 848.393 509.094C846.06 507.02 842.594 505.983 837.995 505.983C833.701 505.983 830.522 506.748 828.46 508.278C826.431 509.774 824.926 512.443 823.946 516.286L815.019 515.062C815.831 511.219 817.166 508.125 819.026 505.779C820.886 503.398 823.574 501.579 827.09 500.321C830.607 499.029 834.682 498.383 839.314 498.383C843.913 498.383 847.649 498.927 850.523 500.015C853.397 501.103 855.511 502.48 856.863 504.146C858.216 505.779 859.162 507.853 859.703 510.369C860.008 511.933 860.16 514.756 860.16 518.836V531.078C860.16 539.613 860.346 545.02 860.718 547.298C861.124 549.542 861.901 551.702 863.051 553.776H853.516C852.569 551.872 851.96 549.644 851.69 547.094ZM850.929 526.589C847.615 527.949 842.645 529.106 836.017 530.058C832.264 530.602 829.61 531.214 828.054 531.894C826.499 532.574 825.298 533.577 824.453 534.903C823.608 536.196 823.185 537.641 823.185 539.239C823.185 541.687 824.098 543.728 825.924 545.36C827.784 546.992 830.489 547.808 834.039 547.808C837.556 547.808 840.683 547.043 843.422 545.513C846.161 543.949 848.173 541.823 849.458 539.137C850.439 537.063 850.929 534.002 850.929 529.956V526.589Z" fill="#A166FF"/>
<path d="M874.159 553.776V479H883.288V553.776H874.159Z" fill="#A166FF"/>
<path d="M932.639 547.094C929.257 549.984 925.994 552.025 922.85 553.215C919.739 554.405 916.391 555 912.807 555C906.89 555 902.342 553.555 899.164 550.664C895.985 547.74 894.396 544.017 894.396 539.494C894.396 536.842 894.988 534.427 896.171 532.251C897.388 530.041 898.961 528.272 900.888 526.946C902.849 525.62 905.047 524.617 907.482 523.937C909.274 523.461 911.979 523.002 915.597 522.56C922.968 521.676 928.395 520.621 931.878 519.397C931.912 518.139 931.929 517.34 931.929 517C931.929 513.26 931.066 510.624 929.342 509.094C927.009 507.02 923.543 505.983 918.944 505.983C914.65 505.983 911.472 506.748 909.409 508.278C907.38 509.774 905.875 512.443 904.895 516.286L895.968 515.062C896.78 511.219 898.115 508.125 899.975 505.779C901.835 503.398 904.523 501.579 908.04 500.321C911.556 499.029 915.631 498.383 920.263 498.383C924.862 498.383 928.598 498.927 931.472 500.015C934.346 501.103 936.46 502.48 937.812 504.146C939.165 505.779 940.111 507.853 940.652 510.369C940.957 511.933 941.109 514.756 941.109 518.836V531.078C941.109 539.613 941.295 545.02 941.667 547.298C942.073 549.542 942.85 551.702 944 553.776H934.465C933.518 551.872 932.909 549.644 932.639 547.094ZM931.878 526.589C928.564 527.949 923.594 529.106 916.966 530.058C913.213 530.602 910.559 531.214 909.003 531.894C907.448 532.574 906.247 533.577 905.402 534.903C904.557 536.196 904.134 537.641 904.134 539.239C904.134 541.687 905.047 543.728 906.873 545.36C908.733 546.992 911.438 547.808 914.988 547.808C918.505 547.808 921.633 547.043 924.371 545.513C927.11 543.949 929.122 541.823 930.407 539.137C931.388 537.063 931.878 534.002 931.878 529.956V526.589Z" fill="#A166FF"/>
<path d="M64.1367 231.94V518.267L312.33 661.43L560.524 518.267V231.94L312.33 88.7769L64.1367 231.94Z" fill="#232F3E"/>
<path d="M64.4731 231.287V517.614L312.667 660.777L560.86 517.614V231.287L312.667 88.1235L64.4731 231.287Z" stroke="#A166FF" stroke-width="3.52" stroke-linejoin="round"/>
<path d="M293.923 475.456L275.496 477.136L270.694 478.854H255.781L245.446 465.206L247.278 460.595L258.864 461.883L269.572 462.499L290.465 458.69L294.446 460.651" stroke="#A166FF" stroke-width="2.01" stroke-linejoin="round"/>
<path d="M338.138 370.137L332.55 370.978L377.513 426.652L385.942 457.122L378.055 468.418L324.589 473.253" stroke="white" stroke-width="2.01" stroke-linecap="round" stroke-linejoin="round"/>
<path d="M322.646 453.35L343.614 440.991L355.275 445.826L356.172 442.596L324.608 412.5L320.646 443.679V445.658L322.646 483.559L320.646 514.551L322.646 520.47H292.913V512.89L299.193 504.731L294.782 485.426L295.885 458.447L297.754 443.063L295.548 438.06V431.768L292.11 426.913V438.116L288.484 438.433L290.222 392.934L291.942 389.797L288.484 384.905L289.437 377.717L290.372 375.365L283.775 366.03L280.15 364.984L267.442 350.552L250.417 356.881L253.557 365.04L267.218 376.242L280.299 376.56C280.299 376.56 286.279 379.155 286.13 384.999C285.98 390.843 276.786 391.925 273.254 390.6C269.411 389.512 265.465 388.823 261.48 388.546L247.969 380.238L240.494 374.431L238.139 373.965L224.796 353.259V346.986L231.711 340.713L264.527 327.644L272.693 329.511L281.009 326.225L286.971 316.498L286.186 306.304L288.055 304.567" stroke="white" stroke-width="2.01" stroke-linecap="round" stroke-linejoin="round"/>
<path d="M297.436 302.738C306.384 302.738 313.638 295.49 313.638 286.551C313.638 277.611 306.384 270.364 297.436 270.364C288.487 270.364 281.233 277.611 281.233 286.551C281.233 295.49 288.487 302.738 297.436 302.738Z" stroke="#A166FF" stroke-width="2.01" stroke-linejoin="round"/>
<path d="M277.197 277.141L282.766 279.699" stroke="#A166FF" stroke-width="2.01" stroke-linejoin="round"/>
<path d="M275.179 288.922L281.252 288.212" stroke="#A166FF" stroke-width="2.01" stroke-linejoin="round"/>
<path d="M272.263 297.884L283.514 294.803" stroke="#A166FF" stroke-width="2.01" stroke-linejoin="round"/>
<path d="M312.125 293.365L320.758 299.396" stroke="#A166FF" stroke-width="2.01" stroke-linejoin="round"/>
<path d="M319.17 286.551H313.638" stroke="#A166FF" stroke-width="2.01" stroke-linejoin="round"/>
<path d="M312.125 279.699L319.17 277.664" stroke="#A166FF" stroke-width="2.01" stroke-linejoin="round"/>
<path d="M284.28 277.141C283.659 276.931 282.998 276.869 282.349 276.96C281.7 277.051 281.081 277.292 280.542 277.664C279.122 278.896 276.562 288.754 276.562 288.754V296.689L286.784 304.474" stroke="#A166FF" stroke-width="2.01" stroke-linejoin="round"/>
<path d="M316.404 278.429L318.217 286.551L319.17 298.276" stroke="#A166FF" stroke-width="2.01" stroke-linejoin="round"/>
<path d="M293.306 253.299V243.814V212.168H297.436V243.814V253.299" stroke="#A166FF" stroke-linejoin="round"/>
<path d="M297.436 263.624V270.363L293.306 270.905V263.773" stroke="#A166FF" stroke-width="2.01" stroke-linejoin="round"/>
<path d="M295.773 243.74C310.398 243.74 322.253 238.089 322.253 231.119C322.253 224.148 310.398 218.498 295.773 218.498C281.148 218.498 269.292 224.148 269.292 231.119C269.292 238.089 281.148 243.74 295.773 243.74Z" stroke="#A166FF" stroke-linejoin="round"/>
<path d="M296.146 233.789C308.862 233.789 319.17 228.874 319.17 222.811C319.17 216.748 308.862 211.833 296.146 211.833C283.431 211.833 273.123 216.748 273.123 222.811C273.123 228.874 283.431 233.789 296.146 233.789Z" stroke="#A166FF" stroke-linejoin="round"/>
<path d="M295.38 252.515C308.096 252.515 318.404 247.6 318.404 241.537C318.404 235.474 308.096 230.559 295.38 230.559C282.665 230.559 272.357 235.474 272.357 241.537C272.357 247.6 282.665 252.515 295.38 252.515Z" stroke="#A166FF" stroke-linejoin="round"/>
<path d="M296.146 220.29C303.67 220.29 309.77 217.381 309.77 213.793C309.77 210.205 303.67 207.296 296.146 207.296C288.622 207.296 282.523 210.205 282.523 213.793C282.523 217.381 288.622 220.29 296.146 220.29Z" stroke="#A166FF" stroke-linejoin="round"/>
<path d="M283.401 253.336C282.917 252.966 282.518 252.496 282.231 251.958C281.944 251.42 281.776 250.827 281.738 250.218C281.738 246.97 286.765 244.281 293.306 243.814C293.979 243.814 294.67 243.814 295.38 243.814C296.09 243.814 296.763 243.814 297.436 243.814C303.995 244.281 309.004 246.97 309.004 250.218C308.973 250.819 308.811 251.406 308.53 251.938C308.25 252.469 307.856 252.934 307.378 253.299" stroke="#A166FF" stroke-linejoin="round"/>
<path d="M392.053 520.377H237.392V562.235H392.053V520.377Z" stroke="white" stroke-width="2.01" stroke-linecap="round" stroke-linejoin="round"/>
<path d="M344.884 374.45C348.786 374.45 351.948 371.29 351.948 367.393C351.948 363.495 348.786 360.335 344.884 360.335C340.983 360.335 337.82 363.495 337.82 367.393C337.82 371.29 340.983 374.45 344.884 374.45Z" stroke="white" stroke-width="2.01" stroke-linecap="round" stroke-linejoin="round"/>
<path d="M262.751 340.116C262.751 340.116 274.506 355.78 291.157 356.62C307.808 357.46 325.841 345.418 329.654 337.95C333.146 330.68 334.445 322.551 333.391 314.556" stroke="#A166FF" stroke-width="2.01" stroke-linejoin="round"/>
<path d="M291.119 252.31C291.119 252.31 267.797 231.399 277.926 216.127" stroke="#A166FF" stroke-linejoin="round"/>
<path d="M313.003 215.343C313.003 215.343 320.478 231.175 298.389 252.31" stroke="#A166FF" stroke-linejoin="round"/>
<path d="M297.436 214.147C297.436 214.147 313.32 220.421 314.255 236.832C314.525 241.511 313.142 246.136 310.349 249.901" stroke="#A166FF" stroke-linejoin="round"/>
<path d="M293.399 214.857C291.913 216.151 290.732 217.758 289.942 219.562C289.251 221.84 283.158 226.694 281.832 229.438C280.505 232.183 277.627 242.284 280.262 249.976" stroke="#A166FF" stroke-linejoin="round"/>
<path d="M308.387 304.25L308.107 316.255L328.233 304.399L331.859 306.36L344.006 282.07L306.294 265.043L302.949 260.991L300.837 262.242L280.168 262.952L284.223 254.569H308.107L329.616 256.529L365.104 271.465L360.638 294.766L337.035 333.282V351.15L332.008 366.086L338.568 364.686" stroke="white" stroke-width="2.01" stroke-linecap="round" stroke-linejoin="round"/>
<path d="M139.71 453.556C139.71 449.514 136.435 446.237 132.394 446.237C128.353 446.237 125.078 449.514 125.078 453.556V465.412C125.078 469.454 128.353 472.73 132.394 472.73C136.435 472.73 139.71 469.454 139.71 465.412V453.556Z" stroke="#A166FF" stroke-linejoin="round"/>
<path d="M130.815 455.33L145.186 467.895H157.744" stroke="#A166FF" stroke-linejoin="round"/>
<path d="M156.959 460.296H146.214L139.71 453.388" stroke="#A166FF" stroke-linejoin="round"/>
<path d="M165.201 464.291L171.592 462.088L184.075 508.988" stroke="#A166FF" stroke-linejoin="round"/>
<path d="M125.078 463.339V479.825L145.859 485.93L141.243 508.67H155.334C155.334 508.67 156.455 503.816 152.474 503.275H150.718L154.773 481.02L139.71 472.114V465.43" stroke="#A166FF" stroke-linejoin="round"/>
<path d="M148.326 477.192C149.989 475.755 151.937 474.686 154.044 474.056C156.473 473.701 162.491 473.44 162.491 473.44C164.283 473.675 165.956 474.465 167.275 475.699C168.751 477.566 169.966 479.003 169.275 481.972C168.583 484.941 155.483 515.877 155.483 515.877H136.795L128.273 510.052" stroke="#A166FF" stroke-linejoin="round"/>
<path d="M128.292 506.916H108.876C108.876 506.916 105.138 508.222 105.138 510.93C105.138 513.637 108.876 514.309 108.876 514.309H128.292" stroke="#A166FF" stroke-linejoin="round"/>
<path d="M153.708 486.882H167.48" stroke="#A166FF" stroke-linejoin="round"/>
<path d="M145.765 486.882H116.668C113.602 485.368 110.124 484.896 106.764 485.538C100.559 486.472 96.0183 492.465 96.0183 492.465" stroke="#A166FF" stroke-linejoin="round"/>
<path d="M143.803 496.087H130.049" stroke="#A166FF" stroke-linejoin="round"/>
<path d="M107.829 485.426C107.829 485.426 110.165 478.798 114.033 478.518C117.751 478.563 121.453 479.001 125.078 479.825" stroke="#A166FF" stroke-linejoin="round"/>
<path d="M115.472 486.322L121.564 479.134" stroke="#A166FF" stroke-linejoin="round"/>
<path d="M124.872 486.882L129.32 481.057" stroke="#A166FF" stroke-linejoin="round"/>
<path d="M168.191 476.838L175.516 476.651C175.516 476.651 178.114 473.16 180.375 472.73H185.757V481.449H176.787L167.705 486.378" stroke="#A166FF" stroke-linejoin="round"/>
<path d="M112.071 506.916L122.742 486.882L139.71 508.652H141.916" stroke="#A166FF" stroke-linejoin="round"/>
<path d="M103.325 486.583V481.935H96.0183V485.538" stroke="#A166FF" stroke-linejoin="round"/>
<path d="M136.066 446.237V440.617" stroke="#A166FF" stroke-linejoin="round"/>
<path d="M128.722 446.237V440.617" stroke="#A166FF" stroke-linejoin="round"/>
<path d="M143.28 440.617H126.05C126.05 440.617 122.312 435.558 122.723 431.656C123.134 427.754 124.087 421.705 130.815 420.79C137.543 419.875 141.729 422.097 142.701 422.937C143.672 423.777 146.046 433.411 145.672 436.323C145.58 437.162 145.321 437.974 144.91 438.712C144.499 439.449 143.945 440.097 143.28 440.617Z" stroke="#A166FF" stroke-linejoin="round"/>
<path d="M143.934 425.943H134.627L136.066 433.336H145.522" stroke="#A166FF" stroke-linejoin="round"/>
<path d="M163.743 496.087H158.641L160.585 486.882" stroke="#A166FF" stroke-linejoin="round"/>
<path d="M156.978 460.296H164.21C164.622 460.296 165.016 460.459 165.307 460.75C165.598 461.04 165.761 461.435 165.761 461.846C165.761 463.45 165.123 464.989 163.988 466.123C162.852 467.257 161.312 467.895 159.706 467.895H156.978V460.296Z" stroke="#A166FF" stroke-linejoin="round"/>
<path d="M112.501 525.1C121.449 525.1 128.703 517.853 128.703 508.913C128.703 499.973 121.449 492.726 112.501 492.726C103.553 492.726 96.2986 499.973 96.2986 508.913C96.2986 517.853 103.553 525.1 112.501 525.1Z" stroke="#A166FF" stroke-linejoin="round"/>
<path d="M184.075 525.1C193.024 525.1 200.278 517.853 200.278 508.913C200.278 499.973 193.024 492.726 184.075 492.726C175.127 492.726 167.873 499.973 167.873 508.913C167.873 517.853 175.127 525.1 184.075 525.1Z" stroke="#A166FF" stroke-linejoin="round"/>
<path d="M184.075 515.728C187.843 515.728 190.897 512.677 190.897 508.913C190.897 505.15 187.843 502.099 184.075 502.099C180.308 502.099 177.254 505.15 177.254 508.913C177.254 512.677 180.308 515.728 184.075 515.728Z" stroke="#A166FF" stroke-linejoin="round"/>
<path d="M539.967 249.248C538.357 252.26 537.384 255.571 537.108 258.975C533.743 255.977 529.582 254.016 525.126 253.328C520.671 252.64 516.111 253.255 511.998 255.099C507.885 256.942 504.393 259.936 501.945 263.718C499.496 267.5 498.196 271.909 498.2 276.413C498.2 276.786 498.2 277.178 498.2 277.57C496.345 276.715 494.31 276.326 492.271 276.436C490.232 276.545 488.251 277.151 486.499 278.2C484.747 279.249 483.279 280.709 482.221 282.454C481.162 284.199 480.547 286.176 480.427 288.212C477.125 288.712 474.134 290.439 472.052 293.048C469.97 295.657 468.951 298.956 469.199 302.283C469.447 305.611 470.944 308.722 473.39 310.994C475.835 313.266 479.05 314.532 482.39 314.537H533.744" fill="#232F3E"/>
<path d="M539.967 249.248C538.357 252.26 537.384 255.571 537.108 258.975C533.743 255.977 529.582 254.016 525.126 253.328C520.671 252.64 516.111 253.255 511.998 255.099C507.885 256.942 504.393 259.936 501.945 263.718C499.496 267.5 498.196 271.909 498.2 276.413C498.2 276.786 498.2 277.178 498.2 277.57C496.345 276.715 494.31 276.326 492.271 276.436C490.232 276.545 488.251 277.151 486.499 278.2C484.747 279.249 483.279 280.709 482.221 282.454C481.162 284.199 480.547 286.176 480.427 288.212C477.125 288.712 474.134 290.439 472.052 293.048C469.97 295.657 468.951 298.956 469.199 302.283C469.447 305.611 470.944 308.722 473.39 310.994C475.835 313.266 479.05 314.532 482.39 314.537H533.744" stroke="#A166FF" stroke-width="2.01" stroke-linejoin="round"/>
<path d="M545.891 241.91C544.229 243.311 542.759 244.924 541.518 246.708L545.891 241.91Z" fill="#232F3E"/>
<path d="M545.891 241.91C544.229 243.311 542.759 244.924 541.518 246.708" stroke="#A166FF" stroke-width="2.01" stroke-linejoin="round"/>
<path d="M480.409 288.978C480.406 286.293 481.266 283.678 482.862 281.518C484.457 279.358 486.704 277.766 489.272 276.976C491.841 276.186 494.595 276.24 497.13 277.13C499.665 278.02 501.848 279.699 503.357 281.92" fill="#232F3E"/>
<path d="M480.409 288.978C480.406 286.293 481.266 283.678 482.862 281.518C484.457 279.358 486.704 277.766 489.272 276.976C491.841 276.186 494.595 276.24 497.13 277.13C499.665 278.02 501.848 279.699 503.357 281.92" stroke="#A166FF" stroke-width="2.01" stroke-linejoin="round"/>
<path d="M547.554 240.566C551.351 237.874 555.822 236.29 560.468 235.992H560.804" fill="#232F3E"/>
<path d="M547.554 240.566C551.351 237.874 555.822 236.29 560.468 235.992H560.804" stroke="#A166FF" stroke-width="2.01" stroke-linejoin="round"/>
<path d="M560.86 315.882H560.523H542.191" stroke="#A166FF" stroke-width="2.01" stroke-linejoin="round"/>
<path d="M64.1367 241.294L64.4544 241.481C68.2368 243.701 71.4107 246.822 73.6932 250.565C75.9756 254.308 77.2958 258.557 77.5359 262.933C81.561 261.503 85.8852 261.124 90.098 261.833C94.3107 262.542 98.2721 264.315 101.606 266.984" fill="#232F3E"/>
<path d="M64.1367 241.294L64.4544 241.481C68.2368 243.701 71.4107 246.822 73.6932 250.565C75.9756 254.308 77.2958 258.557 77.5359 262.933C81.561 261.503 85.8852 261.124 90.098 261.833C94.3107 262.542 98.2721 264.315 101.606 266.984" stroke="#A166FF" stroke-width="2.01" stroke-linejoin="round"/>
<path d="M125.209 284.292C123.285 282.224 120.786 280.78 118.032 280.147L125.209 284.292Z" fill="#232F3E"/>
<path d="M125.209 284.292C123.285 282.224 120.786 280.78 118.032 280.147" stroke="#A166FF" stroke-width="2.01" stroke-linejoin="round"/>
<path d="M127.077 286.719C128.404 288.908 129.097 291.422 129.077 293.981C129.077 294.206 129.077 294.43 129.077 294.654C132.561 294.654 135.903 296.036 138.367 298.498C140.83 300.959 142.215 304.298 142.215 307.779C142.215 311.26 140.83 314.598 138.367 317.06C135.903 319.521 132.561 320.904 129.077 320.904H64.1367" fill="#232F3E"/>
<path d="M127.077 286.719C128.404 288.908 129.097 291.422 129.077 293.981C129.077 294.206 129.077 294.43 129.077 294.654C132.561 294.654 135.903 296.036 138.367 298.498C140.83 300.959 142.215 304.298 142.215 307.779C142.215 311.26 140.83 314.598 138.367 317.06C135.903 319.521 132.561 320.904 129.077 320.904H64.1367" stroke="#A166FF" stroke-width="2.01" stroke-linejoin="round"/>
<path d="M131.077 284.292H166.135C167.757 284.225 169.345 283.808 170.79 283.068C172.234 282.329 173.501 281.285 174.502 280.008C175.503 278.732 176.215 277.254 176.589 275.675C176.962 274.097 176.988 272.457 176.664 270.867C176.341 269.278 175.676 267.778 174.716 266.471C173.755 265.163 172.522 264.08 171.102 263.295C169.681 262.511 168.107 262.044 166.488 261.926C164.869 261.809 163.244 262.044 161.725 262.616C161.185 260.916 160.316 259.34 159.166 257.977C158.016 256.613 156.609 255.489 155.025 254.669C153.44 253.849 151.71 253.349 149.932 253.197C148.154 253.045 146.363 253.245 144.663 253.785C143.055 254.288 141.559 255.093 140.252 256.156C139.904 254.169 139.16 252.274 138.064 250.58C136.968 248.886 135.544 247.43 133.874 246.297C132.205 245.163 130.325 244.376 128.345 243.982C126.366 243.588 124.327 243.595 122.351 244.002C120.374 244.41 118.499 245.21 116.837 246.354C115.176 247.499 113.761 248.965 112.677 250.666C111.593 252.367 110.862 254.268 110.526 256.256C110.191 258.245 110.259 260.28 110.726 262.242C110.717 262.398 110.717 262.553 110.726 262.709C109.35 263.197 108.081 263.945 106.988 264.912" stroke="white" stroke-width="2.01" stroke-linejoin="round"/>
<path d="M135.188 266.648C135.188 263.048 136.619 259.596 139.167 257.05C141.715 254.505 145.171 253.075 148.774 253.075" stroke="white" stroke-width="2.01" stroke-linejoin="round"/>
<path d="M443.425 472.096C444.705 472.096 445.743 471.059 445.743 469.78C445.743 468.502 444.705 467.465 443.425 467.465C442.146 467.465 441.108 468.502 441.108 469.78C441.108 471.059 442.146 472.096 443.425 472.096Z" stroke="white" stroke-linejoin="round"/>
<path d="M489.136 529.936C494.544 529.936 498.928 525.556 498.928 520.153C498.928 514.75 494.544 510.369 489.136 510.369C483.728 510.369 479.344 514.75 479.344 520.153C479.344 525.556 483.728 529.936 489.136 529.936Z" stroke="white" stroke-linejoin="round"/>
<path d="M490.594 520.153C490.594 520.441 490.508 520.722 490.348 520.962C490.188 521.201 489.96 521.388 489.694 521.498C489.427 521.608 489.134 521.637 488.852 521.581C488.569 521.525 488.309 521.386 488.105 521.182C487.901 520.979 487.762 520.719 487.706 520.437C487.65 520.154 487.679 519.861 487.789 519.595C487.9 519.329 488.086 519.102 488.326 518.942C488.566 518.782 488.848 518.696 489.136 518.696C489.522 518.696 489.893 518.85 490.167 519.123C490.44 519.396 490.594 519.766 490.594 520.153Z" stroke="white" stroke-linejoin="round"/>
<path d="M489.865 527.751C488.829 527.751 487.804 527.548 486.847 527.152C485.89 526.756 485.021 526.175 484.288 525.444C483.556 524.712 482.975 523.844 482.579 522.888C482.182 521.932 481.979 520.907 481.979 519.873" stroke="white" stroke-linejoin="round"/>
<path d="M424.196 529.936C429.604 529.936 433.988 525.556 433.988 520.153C433.988 514.75 429.604 510.369 424.196 510.369C418.787 510.369 414.403 514.75 414.403 520.153C414.403 525.556 418.787 529.936 424.196 529.936Z" stroke="white" stroke-linejoin="round"/>
<path d="M424.196 523.812C426.218 523.812 427.858 522.174 427.858 520.153C427.858 518.132 426.218 516.493 424.196 516.493C422.173 516.493 420.533 518.132 420.533 520.153C420.533 522.174 422.173 523.812 424.196 523.812Z" stroke="white" stroke-linejoin="round"/>
<path d="M425.653 520.153C425.653 520.441 425.568 520.722 425.408 520.962C425.248 521.201 425.02 521.388 424.754 521.498C424.487 521.608 424.194 521.637 423.911 521.581C423.629 521.525 423.369 521.386 423.165 521.182C422.961 520.979 422.822 520.719 422.766 520.437C422.71 520.154 422.739 519.861 422.849 519.595C422.959 519.329 423.146 519.102 423.386 518.942C423.626 518.782 423.907 518.696 424.196 518.696C424.582 518.696 424.953 518.85 425.226 519.123C425.5 519.396 425.653 519.766 425.653 520.153Z" stroke="white" stroke-linejoin="round"/>
<path d="M424.924 527.751C423.889 527.751 422.863 527.548 421.906 527.152C420.95 526.756 420.08 526.175 419.348 525.444C418.616 524.712 418.035 523.844 417.638 522.888C417.242 521.932 417.038 520.907 417.038 519.873" stroke="white" stroke-linejoin="round"/>
<path d="M424.382 521.31H424.196" stroke="white" stroke-linejoin="round"/>
<path d="M509.02 508.652V511.359C509.017 511.736 508.884 512.101 508.642 512.391C508.4 512.68 508.064 512.876 507.693 512.946C506.319 509.658 503.813 506.97 500.629 505.366H505.731C506.603 505.366 507.44 505.712 508.056 506.328C508.673 506.944 509.02 507.78 509.02 508.652Z" stroke="white" stroke-linejoin="round"/>
<path d="M436.006 478.518L439.744 471.143L443.425 469.78" stroke="white" stroke-linejoin="round"/>
<path d="M423.186 507.102C422.495 506.607 422.029 505.858 421.89 505.019C421.752 504.18 421.953 503.321 422.448 502.63C422.944 501.94 423.694 501.474 424.533 501.336C425.373 501.197 426.233 501.398 426.924 501.893L423.186 507.102Z" stroke="white" stroke-linejoin="round"/>
<path d="M434.436 478.518V484.866C434.137 484.865 433.841 484.814 433.558 484.716C432.928 484.503 432.382 484.095 431.999 483.551C431.616 483.008 431.416 482.357 431.428 481.692C431.402 481.283 431.461 480.872 431.601 480.487C431.741 480.101 431.959 479.749 432.241 479.451C432.523 479.153 432.864 478.917 433.242 478.756C433.619 478.596 434.026 478.515 434.436 478.518Z" stroke="white" stroke-linejoin="round"/>
<path d="M509.393 520.078C509.411 520.51 509.341 520.942 509.187 521.347C509.034 521.752 508.8 522.121 508.5 522.434C508.199 522.746 507.839 522.994 507.44 523.163C507.041 523.333 506.612 523.42 506.179 523.42H503.357C502.814 520.477 501.59 517.702 499.783 515.316C497.976 512.931 495.635 511 492.948 509.679C488.164 507.531 481.324 506.859 477.306 510.817C477.082 511.023 476.875 511.248 476.69 511.49L475.269 508.577H475.101L473.027 501.109H497.751C497.81 501.995 498.11 502.849 498.616 503.579C499.123 504.309 499.819 504.888 500.629 505.254C503.813 506.858 506.318 509.546 507.693 512.834C508.717 515.118 509.294 517.577 509.393 520.078Z" stroke="white" stroke-linejoin="round"/>
<path d="M497.751 501.221H473.027L471.999 497.487H494.424C495.297 497.487 496.133 497.833 496.75 498.45C497.367 499.066 497.713 499.902 497.713 500.773V501.146L497.751 501.221Z" stroke="white" stroke-linejoin="round"/>
<path d="M434.437 478.518V484.866C434.137 484.865 433.841 484.814 433.558 484.717C433.549 484.655 433.549 484.592 433.558 484.53V478.798V478.667C433.842 478.577 434.138 478.526 434.437 478.518Z" stroke="white" stroke-linejoin="round"/>
<path d="M438.324 523.065L433.838 521.814L427.84 520.153L425.485 519.499L423.429 518.92L421.075 518.267L415.076 516.587H414.796C414.376 516.48 413.981 516.291 413.635 516.031C413.288 515.771 412.997 515.445 412.778 515.072C412.559 514.698 412.416 514.285 412.358 513.856C412.301 513.427 412.329 512.991 412.441 512.572C412.529 512.269 412.661 511.979 412.833 511.714C413.159 511.203 413.527 510.722 413.936 510.276C414.025 510.15 414.125 510.031 414.235 509.921C414.967 509.11 415.81 508.406 416.739 507.83C417.484 507.393 418.274 507.037 419.094 506.766L420.028 506.467L421.505 506.113H421.729H422.065L425.691 501.613L431.428 494.481C431.485 494.42 431.56 494.378 431.642 494.361C431.724 494.343 431.809 494.352 431.887 494.384C431.964 494.417 432.029 494.472 432.074 494.543C432.119 494.613 432.141 494.696 432.138 494.78C431.708 500.026 425.765 506.449 425.765 506.449C426.51 506.601 427.241 506.813 427.952 507.083C434.567 509.231 438.324 515.466 438.324 523.065Z" stroke="white" stroke-linejoin="round"/>
<path d="M442.08 485.874V486.098C441.961 486.034 441.836 485.984 441.706 485.949L442.08 485.874Z" stroke="white" stroke-linejoin="round"/>
<path d="M472.99 518.566C472.99 518.897 472.858 519.216 472.623 519.45C472.388 519.685 472.07 519.817 471.738 519.817C471.405 519.817 471.087 519.685 470.852 519.45C470.617 519.216 470.485 518.897 470.485 518.566C470.476 518.264 470.583 517.969 470.784 517.744C470.901 517.605 471.047 517.493 471.212 517.415C471.376 517.338 471.556 517.297 471.738 517.296H471.85C472.165 517.324 472.458 517.471 472.67 517.707C472.881 517.942 472.996 518.249 472.99 518.566Z" stroke="white" stroke-linejoin="round"/>
<path d="M425.952 506.281C425.287 506.142 424.612 506.054 423.934 506.019C423.411 506.019 422.869 506.019 422.271 506.019H421.766" stroke="white" stroke-linejoin="round"/>
<path d="M495.546 492.539V495.975C495.546 496.183 495.505 496.389 495.425 496.582C495.345 496.775 495.228 496.949 495.081 497.097C494.933 497.244 494.758 497.361 494.565 497.441C494.373 497.521 494.166 497.562 493.957 497.562H471.999L471.233 494.817H475.568C476.584 494.803 477.577 494.519 478.446 493.996C479.586 493.585 479.941 492.894 480.838 491.737L481.025 491.531C481.167 491.374 481.34 491.249 481.533 491.162C481.726 491.075 481.935 491.029 482.147 491.027H494.126C494.503 491.071 494.853 491.247 495.113 491.523C495.373 491.8 495.526 492.16 495.546 492.539Z" stroke="white" stroke-linejoin="round"/>
<path d="M497.975 501.221H497.751" stroke="white" stroke-linejoin="round"/>
<path d="M473.027 501.221H466.804" stroke="white" stroke-linejoin="round"/>
<path d="M432.325 494.612C431.895 499.858 425.952 506.281 425.952 506.281C425.344 506.094 424.718 505.975 424.083 505.926C423.494 505.859 422.898 505.859 422.308 505.926L425.934 501.426L431.671 494.294C431.731 494.25 431.802 494.223 431.877 494.217C431.951 494.21 432.026 494.223 432.094 494.256C432.161 494.289 432.218 494.339 432.259 494.402C432.299 494.464 432.322 494.537 432.325 494.612Z" stroke="white" stroke-linejoin="round"/>
<path d="M472.99 518.566C472.99 518.897 472.858 519.216 472.623 519.45C472.388 519.685 472.07 519.817 471.738 519.817C471.405 519.817 471.087 519.685 470.852 519.45C470.617 519.216 470.485 518.897 470.485 518.566C470.476 518.264 470.583 517.969 470.784 517.744C470.901 517.605 471.047 517.493 471.212 517.415C471.376 517.338 471.556 517.297 471.738 517.296H471.85C472.165 517.324 472.458 517.471 472.67 517.707C472.881 517.942 472.996 518.249 472.99 518.566Z" stroke="white" stroke-linejoin="round"/>
<path d="M476.82 523.457H465.028H441.818C440.647 523.417 439.479 523.299 438.324 523.102C438.324 515.504 434.586 509.268 428.139 506.953C427.428 506.682 426.697 506.47 425.952 506.318C425.952 506.318 431.895 499.895 432.325 494.649C432.328 494.565 432.306 494.483 432.261 494.412C432.216 494.341 432.151 494.286 432.073 494.253C431.996 494.221 431.911 494.213 431.829 494.23C431.747 494.247 431.672 494.289 431.615 494.35L437.221 487.386C437.365 487.184 437.443 486.943 437.445 486.695C437.464 486.584 437.464 486.471 437.445 486.359C437.376 486.116 437.229 485.902 437.026 485.751C436.824 485.599 436.577 485.518 436.324 485.519H434.455C434.24 485.519 434.031 485.445 433.864 485.309C433.697 485.173 433.583 484.983 433.539 484.772C433.822 484.87 434.119 484.921 434.418 484.922V478.574C434.094 478.575 433.773 478.625 433.465 478.723C433.499 478.519 433.604 478.332 433.761 478.196C433.917 478.06 434.117 477.982 434.324 477.977H436.193C436.211 477.968 436.23 477.964 436.249 477.964C436.269 477.964 436.288 477.968 436.305 477.977C436.353 477.99 436.395 478.016 436.428 478.052C436.461 478.089 436.483 478.134 436.492 478.182C436.619 479.29 437.136 480.317 437.951 481.079C438.765 481.842 439.825 482.291 440.94 482.345C441.205 482.383 441.453 482.5 441.65 482.681C442.285 482.569 443.014 482.476 443.65 482.401V481.916C443.629 481.739 443.643 481.56 443.692 481.389C443.741 481.218 443.824 481.058 443.935 480.919C444.046 480.781 444.184 480.665 444.341 480.58C444.497 480.494 444.668 480.441 444.846 480.422H444.995C445.235 480.424 445.47 480.489 445.676 480.61C445.883 480.731 446.054 480.905 446.172 481.113C445.79 481.177 445.425 481.321 445.103 481.537C444.781 481.753 444.508 482.035 444.304 482.364C443.954 482.919 443.821 483.584 443.93 484.231C444.002 484.762 444.237 485.258 444.603 485.65C444.854 485.932 445.162 486.158 445.506 486.312C445.851 486.467 446.224 486.546 446.602 486.546H446.827C446.75 486.852 446.569 487.121 446.316 487.309C446.062 487.497 445.752 487.591 445.437 487.575C445.122 487.56 444.822 487.436 444.588 487.225C444.354 487.013 444.201 486.727 444.154 486.415V485.725C443.5 485.725 442.753 485.911 442.285 486.005H441.912C442.042 486.04 442.167 486.09 442.285 486.154C442.266 486.812 442.08 487.455 441.743 488.021L441.127 489.011L434.268 500.213C433.729 501.324 433.449 502.544 433.449 503.779C433.449 505.014 433.729 506.233 434.268 507.345C435.988 510.276 441.743 518.286 445.294 520.209C445.216 520.45 445.178 520.702 445.182 520.955H445.462V521.852C445.46 522.047 445.496 522.241 445.569 522.422C445.642 522.603 445.751 522.768 445.888 522.907C446.025 523.046 446.189 523.156 446.369 523.231C446.55 523.306 446.743 523.345 446.939 523.345H459.235C459.581 523.354 459.925 523.293 460.247 523.164C460.568 523.036 460.86 522.843 461.104 522.598C461.487 522.221 461.737 521.73 461.814 521.198H462.151V520.619H463.16C463.997 520.46 464.793 520.13 465.496 519.648C465.754 519.751 466.041 519.751 466.299 519.648L471.065 517.688C470.863 517.913 470.756 518.208 470.766 518.51C470.767 518.752 470.838 518.989 470.971 519.191C471.105 519.394 471.294 519.554 471.516 519.651C471.739 519.748 471.984 519.778 472.224 519.738C472.463 519.699 472.686 519.59 472.864 519.426C473.043 519.262 473.17 519.05 473.231 518.815C473.291 518.58 473.281 518.333 473.204 518.103C473.126 517.874 472.983 517.672 472.792 517.522C472.602 517.372 472.372 517.28 472.13 517.259L474.989 516.082C474.76 517.371 474.804 518.694 475.12 519.964C475.435 521.235 476.015 522.425 476.82 523.457Z" stroke="white" stroke-linejoin="round"/>
<path d="M442.902 487.442C442.902 487.858 442.737 488.257 442.442 488.551C442.148 488.846 441.749 489.011 441.332 489.011H440.977L441.594 488.021C441.93 487.455 442.117 486.812 442.136 486.154C442.361 486.288 442.549 486.476 442.683 486.701C442.817 486.926 442.892 487.181 442.902 487.442Z" stroke="white" stroke-linejoin="round"/>
<path d="M422.346 505.963C418.328 506.673 414.441 508.204 412.366 512.629" stroke="white" stroke-linejoin="round"/>
<path d="M475.157 455.46V453.183" stroke="white" stroke-linejoin="round"/>
<path d="M467.458 456.935V453.668" stroke="white" stroke-linejoin="round"/>
<path d="M470.728 433.84C468.939 433.812 467.21 434.482 465.907 435.707C465.345 436.235 464.894 436.87 464.58 437.574C464.054 438.747 463.799 440.023 463.833 441.308C463.669 442.068 463.365 442.789 462.936 443.437C462.45 444.146 461.478 445.304 461.478 445.304C461.384 445.487 461.341 445.692 461.353 445.897C461.365 446.102 461.432 446.301 461.546 446.472C461.66 446.643 461.818 446.781 462.003 446.871C462.188 446.961 462.394 447 462.599 446.984H463.833V448.086C463.814 448.372 463.814 448.658 463.833 448.944C464.004 449.97 464.417 450.94 465.038 451.774C465.658 452.608 466.469 453.283 467.402 453.743C468.753 454.443 470.286 454.714 471.795 454.52C473.304 454.327 474.719 453.678 475.849 452.66C476.64 451.931 477.243 451.021 477.606 450.009C477.811 449.407 477.918 448.777 477.923 448.142V440.431C477.841 438.682 477.085 437.034 475.814 435.829C474.543 434.625 472.854 433.959 471.102 433.971H470.672" stroke="white" stroke-linejoin="round"/>
<path d="M479.829 472.712L478.839 472.488C476.839 472.954 476.316 475.512 476.185 476.912L470.355 475.661L465.776 474.691C465.531 474.64 465.296 474.545 465.085 474.411L463.721 478.611L461.964 478.873V486.434H472.803V486.248V486.154L472.504 485.295L472.093 484.044L471.999 483.783L471.102 481.095C470.963 480.684 470.924 480.246 470.987 479.817C471.051 479.387 471.215 478.979 471.467 478.626C471.718 478.273 472.05 477.984 472.435 477.783C472.82 477.583 473.247 477.476 473.681 477.473H476.223H478.671L480.315 477.827H480.82H481.324V471.106L479.829 472.712ZM472.354 460.427C471.67 460.215 470.93 460.28 470.294 460.608C469.658 460.936 469.176 461.502 468.953 462.182L467.084 467.988L466.468 469.855H466.711L471.775 470.938L473.233 466.457L474.111 463.75C474.305 463.086 474.239 462.374 473.927 461.757C473.614 461.14 473.079 460.664 472.429 460.427H472.354Z" stroke="white" stroke-linejoin="round"/>
<path d="M474.541 442.13C474.62 442.248 474.689 442.373 474.746 442.503C474.803 442.698 474.841 442.898 474.858 443.101C474.876 443.855 474.839 444.611 474.746 445.36C474.746 445.603 474.84 445.939 474.746 446.107C474.653 446.275 474.186 446.405 474.335 446.667C475.039 448.049 476.156 449.178 477.531 449.897H477.68" stroke="white" stroke-linejoin="round"/>
<path d="M464.58 437.537C466.785 437.537 469.289 437.537 470.71 437.649C471.016 437.641 471.322 437.694 471.608 437.805C471.894 437.915 472.156 438.081 472.378 438.293C472.6 438.504 472.778 438.757 472.903 439.038C473.027 439.318 473.094 439.62 473.102 439.927" stroke="white" stroke-linejoin="round"/>
<path d="M474.541 446.387C475.755 446.387 477.381 446.032 477.381 444.165C477.381 442.298 475.755 441.943 474.541 441.943" stroke="white" stroke-linejoin="round"/>
<path d="M475.961 444.351C475.98 444.196 475.965 444.039 475.918 443.89C475.871 443.741 475.792 443.603 475.688 443.487C475.584 443.37 475.456 443.277 475.313 443.214C475.17 443.15 475.015 443.118 474.858 443.119H474.316" stroke="white" stroke-linejoin="round"/>
<path d="M474.541 439.236V444.351C474.536 444.543 474.458 444.726 474.322 444.861C474.186 444.997 474.004 445.075 473.812 445.08C473.622 445.075 473.441 444.996 473.309 444.86C473.176 444.724 473.102 444.541 473.102 444.351V439.255C473.102 439.065 473.176 438.882 473.309 438.746C473.441 438.61 473.622 438.531 473.812 438.526C474.001 438.531 474.181 438.606 474.316 438.738C474.451 438.87 474.531 439.047 474.541 439.236Z" stroke="white" stroke-linejoin="round"/>
<path d="M481.25 466.214V471.05L479.829 472.712L478.839 472.488L471.85 471.013L473.307 466.532L474.186 463.825C474.367 463.152 474.281 462.436 473.947 461.825C473.613 461.214 473.056 460.755 472.392 460.543C471.728 460.332 471.008 460.384 470.381 460.689C469.755 460.994 469.27 461.529 469.028 462.182L467.159 467.988L466.542 469.855C465.987 469.787 465.424 469.914 464.952 470.215C464.48 470.516 464.128 470.972 463.955 471.504C463.783 472.036 463.801 472.612 464.007 473.132C464.214 473.652 464.594 474.084 465.085 474.355L463.721 478.555L461.964 478.817V466.158C461.967 463.637 462.96 461.217 464.73 459.418C465.521 458.639 466.445 458.007 467.458 457.551C468.749 456.919 470.169 456.593 471.607 456.599C472.822 456.6 474.026 456.828 475.157 457.271C475.809 457.537 476.435 457.862 477.026 458.242C477.532 458.593 478.008 458.987 478.447 459.418C480.245 461.223 481.253 463.668 481.25 466.214Z" stroke="white" stroke-linejoin="round"/>
<path d="M477.008 457.645V458.224C476.416 457.843 475.79 457.518 475.139 457.253C474.007 456.81 472.803 456.582 471.588 456.581C470.15 456.575 468.731 456.901 467.439 457.533C466.426 457.988 465.502 458.62 464.711 459.4V459.288L462.842 461.155L462.338 460.389L461.87 459.68C461.925 459.035 462.213 458.432 462.681 457.985C463.149 457.538 463.765 457.278 464.412 457.253H464.991V457.589C465.181 457.357 465.445 457.199 465.739 457.141L467.402 456.786L474.316 455.33C474.637 455.263 474.969 455.268 475.287 455.346C475.605 455.424 475.901 455.573 476.154 455.781C476.407 455.989 476.61 456.251 476.748 456.547C476.886 456.844 476.956 457.168 476.951 457.495L477.008 457.645Z" stroke="white" stroke-linejoin="round"/>
<path d="M472.747 486.248L464.449 486.397L461.964 486.434V484.212H462.711H462.73L467.701 484.119L472.018 484.044L472.429 485.295L472.728 486.154L472.747 486.248Z" stroke="white" stroke-linejoin="round"/>
<path d="M465.047 484.175V486.322" stroke="white" stroke-linejoin="round"/>
<path d="M461.889 521.235H461.59C461.512 521.767 461.263 522.259 460.88 522.636C460.636 522.881 460.344 523.073 460.023 523.202C459.701 523.33 459.357 523.392 459.011 523.382H446.714C446.519 523.382 446.325 523.344 446.145 523.268C445.965 523.193 445.801 523.083 445.664 522.944C445.527 522.805 445.418 522.64 445.345 522.459C445.272 522.278 445.236 522.084 445.238 521.889V520.899H444.958C444.954 520.646 444.992 520.394 445.07 520.153C445.145 519.86 445.289 519.59 445.491 519.366C445.692 519.142 445.946 518.97 446.229 518.864C447.2 518.51 449.05 518.379 450.882 517.968C451.119 518.089 451.382 518.153 451.648 518.155H460.543C460.755 518.157 460.965 518.117 461.161 518.036C461.356 517.956 461.534 517.838 461.683 517.688V517.595L461.777 520.582L461.889 521.235Z" stroke="white" stroke-linejoin="round"/>
<path d="M472.822 486.434H461.964V486.397L464.487 486.341L465.047 486.322L472.429 486.154H472.728L472.747 486.248L472.822 486.434Z" stroke="white" stroke-linejoin="round"/>
<path d="M468.785 484.101V486.042" stroke="white" stroke-linejoin="round"/>
<path d="M472.429 486.173V486.154V485.295" stroke="white" stroke-linejoin="round"/>
<path d="M470.728 433.84C470.796 433.858 470.867 433.858 470.934 433.84C471.007 433.858 471.084 433.858 471.158 433.84" stroke="white" stroke-linejoin="round"/>
<path d="M456.357 497.898L460.226 515.037H460.562C460.988 515.037 461.397 515.206 461.699 515.507C462 515.809 462.169 516.217 462.169 516.643C462.167 517.021 462.027 517.386 461.777 517.67V517.763C461.628 517.913 461.45 518.031 461.254 518.111C461.058 518.191 460.848 518.232 460.637 518.23H451.741C451.475 518.228 451.213 518.164 450.975 518.043C450.723 517.906 450.511 517.704 450.363 517.458C450.215 517.211 450.136 516.93 450.134 516.643C450.134 516.43 450.176 516.219 450.26 516.023C450.344 515.828 450.466 515.651 450.62 515.504C450.853 515.269 451.154 515.112 451.48 515.056L446.64 494.164C446.435 493.271 446.43 492.345 446.628 491.451C446.825 490.556 447.218 489.717 447.78 488.994C448.341 488.27 449.057 487.68 449.874 487.267C450.692 486.853 451.592 486.626 452.508 486.602L461.852 486.397H464.3C463.769 487.085 463.38 487.872 463.155 488.712C462.931 489.552 462.875 490.427 462.992 491.289L464.001 495.023L458.394 495.135C458.071 495.165 457.758 495.262 457.476 495.422C457.193 495.581 456.948 495.799 456.755 496.06C456.563 496.321 456.428 496.619 456.359 496.936C456.291 497.253 456.29 497.581 456.357 497.898Z" stroke="white" stroke-linejoin="round"/>
<path d="M500.928 444.351C501.121 443.05 500.933 441.721 500.386 440.524C499.904 439.627 499.187 438.878 498.312 438.358C497.892 438.04 497.434 437.776 496.947 437.574C495.391 436.905 493.657 436.767 492.014 437.182C491.104 437.523 490.294 438.086 489.658 438.82C489.021 439.554 488.579 440.435 488.37 441.383M514.663 438.881C514.563 438.886 514.468 438.929 514.398 439.002C514.328 439.075 514.29 439.172 514.29 439.273C514.29 439.372 514.329 439.467 514.399 439.537C514.469 439.607 514.564 439.647 514.663 439.647C514.763 439.647 514.858 439.607 514.928 439.537C514.998 439.467 515.037 439.372 515.037 439.273C515.037 439.172 514.999 439.075 514.929 439.002C514.859 438.929 514.764 438.886 514.663 438.881Z" stroke="white" stroke-linejoin="round"/>
<path d="M513.654 437.91C511.972 438.638 510.403 439.945 508.478 439.777C506.821 439.471 505.307 438.64 504.161 437.406C499.396 433.243 491.397 432.645 487.921 438.75C487.301 439.841 486.916 441.048 486.791 442.295C486.665 443.543 486.802 444.803 487.192 445.994L488.164 441.98C488.164 441.738 488.314 441.476 488.407 441.252C488.616 440.304 489.059 439.423 489.695 438.69C490.332 437.956 491.141 437.393 492.051 437.051C493.694 436.636 495.428 436.774 496.985 437.443C497.471 437.646 497.93 437.909 498.349 438.228C499.225 438.748 499.942 439.497 500.423 440.393C500.97 441.59 501.158 442.919 500.965 444.221V444.594V444.744C500.976 444.793 500.976 444.844 500.965 444.893C500.971 444.98 500.971 445.067 500.965 445.154V445.528C501.114 445.507 501.265 445.507 501.414 445.528C501.815 445.528 502.2 445.687 502.484 445.971C502.768 446.254 502.928 446.639 502.928 447.04C502.928 447.443 502.769 447.829 502.485 448.116C502.202 448.403 501.817 448.566 501.414 448.571C501.212 448.572 501.013 448.533 500.827 448.456C500.641 448.379 500.472 448.266 500.33 448.123L500.162 448.888L499.994 449.448C500.931 450.504 502.082 451.35 503.371 451.929C504.659 452.509 506.056 452.808 507.469 452.809C508.921 452.815 510.354 452.482 511.655 451.838C512.981 451.008 514.423 450.379 515.934 449.971C517.289 449.91 518.637 450.186 519.859 450.774C520.608 451 521.396 451.067 522.172 450.97C522.949 450.873 523.696 450.615 524.367 450.213C525.038 449.81 525.617 449.271 526.066 448.632C526.516 447.992 526.827 447.265 526.979 446.499C527.67 440.823 519.111 435.502 513.654 437.91ZM514.663 439.647C514.564 439.647 514.469 439.607 514.399 439.537C514.329 439.467 514.29 439.372 514.29 439.273C514.29 439.224 514.299 439.176 514.318 439.13C514.337 439.085 514.365 439.044 514.399 439.009C514.434 438.974 514.475 438.947 514.52 438.928C514.566 438.909 514.614 438.9 514.663 438.9C514.713 438.9 514.761 438.909 514.807 438.928C514.852 438.947 514.893 438.974 514.928 439.009C514.962 439.044 514.99 439.085 515.009 439.13C515.028 439.176 515.037 439.224 515.037 439.273C515.037 439.372 514.998 439.467 514.928 439.537C514.858 439.607 514.763 439.647 514.663 439.647Z" stroke="white" stroke-linejoin="round"/>
<path d="M495.359 453.817V458.597H490.724V453.481C491.126 453.672 491.545 453.822 491.976 453.929C493.093 454.202 494.263 454.163 495.359 453.817Z" stroke="white" stroke-linejoin="round"/>
<path d="M502.573 447.301C502.573 447.704 502.414 448.091 502.13 448.377C501.847 448.664 501.462 448.827 501.059 448.832C500.857 448.833 500.658 448.794 500.472 448.717C500.286 448.64 500.117 448.527 499.975 448.384L499.807 449.15L499.639 449.71C499.304 450.685 498.741 451.567 497.997 452.281C497.252 452.996 496.348 453.522 495.359 453.817C494.263 454.163 493.093 454.202 491.977 453.929C491.545 453.822 491.126 453.672 490.724 453.481C489.365 452.833 488.271 451.736 487.628 450.375C486.984 449.015 486.83 447.474 487.192 446.013L488.164 441.999C488.164 441.756 488.314 441.495 488.407 441.271C488.89 439.989 489.767 438.892 490.912 438.138C492.056 437.383 493.41 437.01 494.78 437.07C495.502 437.17 496.21 437.352 496.891 437.611C497.38 437.802 497.85 438.04 498.293 438.321C499.116 438.923 499.784 439.71 500.246 440.618C500.707 441.526 500.947 442.53 500.947 443.549C500.947 443.791 500.947 444.053 500.947 444.314V444.687V444.837C500.957 444.886 500.957 444.937 500.947 444.986C500.952 445.073 500.952 445.161 500.947 445.248V445.621C501.096 445.601 501.246 445.601 501.395 445.621C501.767 445.702 502.094 445.92 502.313 446.231C502.531 446.543 502.624 446.925 502.573 447.301Z" stroke="white" stroke-linejoin="round"/>
<path d="M498.312 438.358C497.868 438.077 497.399 437.84 496.91 437.649C496.229 437.39 495.52 437.208 494.798 437.107C495.207 437.128 495.614 437.184 496.013 437.275C496.331 437.355 496.643 437.455 496.947 437.574C497.434 437.776 497.892 438.04 498.312 438.358Z" stroke="white" stroke-linejoin="round"/>
<path d="M494.78 437.107H494.761H494.78Z" stroke="white" stroke-linejoin="round"/>
<path d="M500.928 444.352C500.928 444.09 500.928 443.829 500.928 443.586C500.928 442.568 500.688 441.564 500.227 440.655C499.766 439.747 499.097 438.96 498.274 438.358C499.15 438.879 499.867 439.627 500.348 440.524C500.908 441.717 501.109 443.047 500.928 444.352Z" stroke="white" stroke-linejoin="round"/>
<path d="M496.985 437.5C496.304 437.24 495.595 437.059 494.873 436.958C493.503 436.898 492.149 437.271 491.005 438.026C489.86 438.78 488.984 439.877 488.5 441.159C488.709 440.211 489.152 439.33 489.789 438.596C490.425 437.863 491.235 437.299 492.145 436.958C493.774 436.611 495.473 436.801 496.985 437.5Z" stroke="white" stroke-linejoin="round"/>
<path d="M504.18 439.329C505.319 440.575 506.835 441.414 508.497 441.719C510.365 441.831 511.991 440.524 513.673 439.852" stroke="white" stroke-linejoin="round"/>
<path d="M515.037 439.273C515.037 439.372 514.998 439.467 514.928 439.537C514.858 439.607 514.763 439.647 514.664 439.647C514.564 439.647 514.469 439.607 514.399 439.537C514.329 439.467 514.29 439.372 514.29 439.273C514.29 439.224 514.299 439.176 514.318 439.13C514.337 439.085 514.365 439.044 514.399 439.009C514.434 438.975 514.475 438.947 514.52 438.928C514.566 438.91 514.614 438.9 514.664 438.9C514.713 438.9 514.761 438.91 514.807 438.928C514.852 438.947 514.893 438.975 514.928 439.009C514.963 439.044 514.99 439.085 515.009 439.13C515.028 439.176 515.037 439.224 515.037 439.273Z" stroke="white" stroke-linejoin="round"/>
<path d="M472.803 486.434H464.393C464.443 486.355 464.499 486.28 464.561 486.21L464.954 485.8C465.699 485.067 466.609 484.523 467.607 484.213C468.212 484.019 468.842 483.919 469.476 483.914H471.831L471.924 484.175L472.335 485.426L472.634 486.285V486.378L472.803 486.434Z" stroke="white" stroke-linejoin="round"/>
<path d="M476.148 512.946L475.606 513.17L470.28 515.429L475.681 513.207C475.83 512.927 475.98 512.647 476.166 512.367C476.18 512.56 476.174 512.754 476.148 512.946Z" stroke="white" stroke-linejoin="round"/>
<path d="M481.044 491.419H491.49C492.402 491.422 493.309 491.29 494.182 491.027" stroke="white" stroke-linejoin="round"/>
<path d="M490.724 456.17C491.509 455.918 492.329 455.792 493.154 455.796C493.9 455.783 494.644 455.883 495.359 456.095" stroke="white" stroke-linejoin="round"/>
<path d="M494.985 460.203C494.835 459.897 494.626 459.624 494.369 459.4C493.885 458.994 493.263 458.791 492.632 458.832C492.002 458.874 491.412 459.158 490.986 459.624C491.215 459.352 491.501 459.134 491.824 458.985C492.147 458.837 492.499 458.762 492.855 458.765C493.479 458.766 494.077 459.014 494.518 459.456C494.721 459.672 494.879 459.926 494.985 460.203Z" stroke="white" stroke-linejoin="round"/>
<path d="M500.704 476.987H485.51" stroke="white" stroke-linejoin="round"/>
<path d="M500.405 474.467H485.211" stroke="white" stroke-linejoin="round"/>
<path d="M499.246 474.765V476.688" stroke="white" stroke-linejoin="round"/>
<path d="M496.2 474.765V476.688" stroke="white" stroke-linejoin="round"/>
<path d="M490.033 474.765V476.688" stroke="white" stroke-linejoin="round"/>
<path d="M487.398 474.765V476.688" stroke="white" stroke-linejoin="round"/>
<path d="M476.372 515.467L474.709 516.139L471.85 517.315H471.738C471.556 517.316 471.376 517.357 471.212 517.434C471.047 517.511 470.901 517.624 470.784 517.763L466.019 519.723C465.761 519.826 465.473 519.826 465.215 519.723C465.091 519.673 464.978 519.598 464.885 519.501C464.791 519.405 464.719 519.29 464.673 519.163L464.206 518.043L468.374 516.269L470.242 515.485L475.569 513.226L476.11 513.002L476.895 512.666L477.213 513.432C477.364 513.814 477.36 514.239 477.203 514.618C477.046 514.998 476.749 515.302 476.372 515.467Z" stroke="white" stroke-linejoin="round"/>
<path d="M471.737 517.296H471.85L470.784 517.726C470.903 517.59 471.049 517.481 471.214 517.407C471.378 517.333 471.557 517.295 471.737 517.296Z" stroke="white" stroke-linejoin="round"/>
<path d="M476.933 512.61V512.629L476.148 512.965L475.606 513.189L470.28 515.429L468.374 516.232L464.206 518.006L464.15 517.856L468.467 516.083L470.224 515.373L475.624 513.151L476.148 512.946L476.933 512.61Z" stroke="white" stroke-linejoin="round"/>
<path d="M500.834 482.009C500.845 484.041 500.193 486.021 498.975 487.649C497.758 489.276 496.042 490.462 494.088 491.027H482.147C481.754 491.017 481.373 491.157 481.081 491.419H480.782C480.282 492.447 479.489 493.304 478.502 493.884C477.633 494.407 476.64 494.691 475.625 494.705H471.289L472.055 497.45L473.083 501.184L475.157 508.652L476.166 512.274C475.98 512.554 475.83 512.834 475.681 513.114L470.224 515.298L468.467 516.008L464.15 517.782V517.931L463.889 518.043C463.889 518.043 462.861 516.512 465.757 515.093L466.038 514.944C466.521 514.696 466.962 514.375 467.346 513.992C467.699 513.631 467.966 513.195 468.125 512.716C468.283 512.237 468.33 511.728 468.262 511.228H468.448L463.982 494.985L462.973 491.251C462.856 490.39 462.912 489.514 463.136 488.674C463.361 487.835 463.75 487.048 464.281 486.36H472.803L473.289 487.835C473.475 488.379 473.828 488.852 474.297 489.187C474.766 489.522 475.328 489.702 475.905 489.702H484.669C485.276 489.697 485.864 489.494 486.344 489.123C486.823 488.752 487.167 488.234 487.323 487.648L488.426 483.447L489.155 480.665C489.261 480.255 489.272 479.826 489.185 479.412C489.098 478.997 488.916 478.608 488.654 478.275C488.391 477.942 488.055 477.675 487.672 477.494C487.289 477.312 486.869 477.222 486.445 477.23H485.473C485.482 477.162 485.482 477.093 485.473 477.025V473.44L491.266 466.644L494.611 462.723C494.87 462.402 495.05 462.025 495.135 461.622C495.229 461.124 495.171 460.61 494.966 460.147C494.849 459.867 494.678 459.613 494.462 459.4C494.021 458.958 493.423 458.71 492.799 458.709C492.443 458.706 492.091 458.781 491.768 458.929C491.445 459.078 491.159 459.296 490.93 459.568L485.51 465.953V464.31C485.364 462.555 485.794 460.801 486.734 459.312C487.675 457.823 489.076 456.681 490.724 456.058V458.485H495.359V455.983C497.583 456.618 500.704 458.522 500.704 464.31V475.699L500.834 482.009Z" stroke="white" stroke-linejoin="round"/>
<path d="M477.176 512.517L476.933 512.629L476.148 512.965L475.606 513.189L470.28 515.448L468.411 516.232L464.244 518.006V517.856L468.561 516.083L470.317 515.373L475.718 513.151C475.867 512.871 476.017 512.591 476.204 512.311L475.195 508.689H475.363L476.783 511.602L477.176 512.517Z" stroke="white" stroke-linejoin="round"/>
<path d="M466.038 514.757L466.542 515.821" stroke="white" stroke-linejoin="round"/>
<path d="M467.439 513.973L467.962 515.037" stroke="white" stroke-linejoin="round"/>
<path d="M484.595 477.342C484.466 476.681 484.219 476.048 483.866 475.475" stroke="white" stroke-linejoin="round"/>
<path d="M481.25 472.992C481.06 472.878 480.86 472.784 480.652 472.712" stroke="white" stroke-linejoin="round"/>
<path d="M478.839 472.487C476.839 472.954 476.316 475.512 476.185 476.912L470.355 475.661L465.776 474.691C465.531 474.64 465.296 474.545 465.085 474.411C464.594 474.14 464.213 473.708 464.007 473.188C463.801 472.668 463.783 472.092 463.955 471.56C464.128 471.028 464.48 470.572 464.952 470.271C465.424 469.97 465.986 469.843 466.542 469.911H466.785L471.85 470.994L478.839 472.487Z" stroke="white" stroke-linejoin="round"/>
<path d="M495.228 461.155V461.771C495.143 462.174 494.964 462.552 494.705 462.872L491.304 466.756L485.51 473.552L483.885 475.419C483.237 474.376 482.329 473.521 481.25 472.936V471.069L485.51 466.084L490.93 459.699C491.356 459.232 491.946 458.949 492.576 458.907C493.206 458.865 493.829 459.069 494.312 459.474C494.569 459.698 494.779 459.971 494.929 460.277C495.092 460.544 495.194 460.844 495.228 461.155Z" stroke="white" stroke-linejoin="round"/>
<path d="M483.885 475.475L482.595 476.969C482.464 477.124 482.313 477.262 482.147 477.379C481.876 477.566 481.571 477.699 481.25 477.771H480.745H480.241L478.596 477.417L476.185 476.913C476.316 475.512 476.839 472.954 478.839 472.488L479.829 472.712L481.25 471.05V472.917C482.338 473.523 483.248 474.405 483.885 475.475Z" stroke="white" stroke-linejoin="round"/>
<path d="M495.228 461.734V461.155C495.232 460.86 495.175 460.567 495.06 460.296C495.257 460.748 495.315 461.248 495.228 461.734Z" stroke="white" stroke-linejoin="round"/>
<path d="M486.463 477.323H484.595H482.147C481.875 477.51 481.571 477.643 481.25 477.715H480.745H480.24L478.596 477.361H476.148H473.606C473.172 477.364 472.745 477.471 472.36 477.671C471.975 477.872 471.643 478.161 471.392 478.514C471.14 478.868 470.976 479.276 470.912 479.705C470.849 480.134 470.888 480.572 471.027 480.983L471.924 483.671L472.018 483.933L472.429 485.183L472.728 486.042V486.136V486.322L473.214 487.797C473.401 488.342 473.753 488.815 474.222 489.15C474.692 489.484 475.254 489.664 475.83 489.664H484.595C485.201 489.66 485.79 489.457 486.269 489.086C486.749 488.714 487.093 488.196 487.248 487.611L488.351 483.41L489.08 480.628C489.162 480.234 489.157 479.828 489.064 479.437C488.972 479.046 488.795 478.679 488.545 478.364C488.296 478.049 487.98 477.792 487.62 477.613C487.26 477.433 486.866 477.334 486.463 477.323Z" stroke="white" stroke-linejoin="round"/>
<path d="M482.147 477.379C481.875 477.566 481.571 477.699 481.25 477.771H480.745H480.24L478.596 477.416H482.147V477.379Z" stroke="white" stroke-linejoin="round"/>
<path d="M478.839 472.488C479.142 472.439 479.451 472.439 479.755 472.488" stroke="white" stroke-linejoin="round"/>
<path d="M476.185 476.912C476.185 477.118 476.185 477.304 476.185 477.454C476.185 477.603 476.185 477.827 476.185 477.827" stroke="white" stroke-linejoin="round"/>
<path d="M470.355 475.662L468.336 481.879C468.184 482.364 467.898 482.796 467.511 483.126C467.125 483.456 466.653 483.671 466.15 483.746L462.73 484.231H461.982V478.798L463.739 478.537L465.103 474.336C465.315 474.47 465.549 474.565 465.795 474.616L470.355 475.662Z" stroke="white" stroke-linejoin="round"/>
<path d="M474.186 463.825L473.307 466.532L471.85 471.013L466.785 469.93H466.542L467.159 468.063L469.028 462.256C469.27 461.603 469.755 461.069 470.381 460.764C471.008 460.459 471.728 460.406 472.392 460.618C473.056 460.829 473.613 461.288 473.947 461.9C474.281 462.511 474.366 463.227 474.186 463.899V463.825Z" stroke="white" stroke-linejoin="round"/>
<path d="M461.964 478.873V484.306L447.014 486.416C446.964 486.425 446.913 486.425 446.864 486.416H446.64C446.262 486.416 445.888 486.336 445.544 486.182C445.199 486.027 444.891 485.801 444.64 485.519C444.275 485.127 444.04 484.632 443.967 484.101C443.858 483.453 443.991 482.789 444.341 482.233C444.546 481.904 444.818 481.622 445.141 481.407C445.463 481.191 445.827 481.046 446.21 480.983L461.964 478.873Z" stroke="white" stroke-linejoin="round"/>
<path d="M484.483 520.451H491.023" stroke="white" stroke-linejoin="round"/>
<path d="M500.274 501.146H505.245" stroke="white" stroke-linejoin="round"/>
<path d="M507.506 501.24H516.028" stroke="white" stroke-linejoin="round"/>
<path d="M503.002 496.049H512.01" stroke="white" stroke-linejoin="round"/>
<path d="M513.243 505.291H524.531" stroke="white" stroke-linejoin="round"/>
<path d="M495.434 492.539H506.291" stroke="white" stroke-linejoin="round"/>
<path d="M434.306 526.314H443.855" stroke="white" stroke-linejoin="round"/>
<path d="M441.519 528.517H461.889" stroke="white" stroke-linejoin="round"/>
<path d="M499.975 526.314H522.326" stroke="white" stroke-linejoin="round"/>
<path d="M442.192 476.091H447.163" stroke="white" stroke-linejoin="round"/>
<path d="M418.44 485.669H429.727" stroke="white" stroke-linejoin="round"/>
<path d="M427.167 463.656H435.446" stroke="white" stroke-linejoin="round"/>
<path d="M432.68 458.952H455.031" stroke="white" stroke-linejoin="round"/>
<path d="M493.359 499.055C493.359 499.134 493.328 499.211 493.272 499.267C493.216 499.323 493.14 499.354 493.06 499.354C492.981 499.354 492.905 499.323 492.849 499.267C492.793 499.211 492.761 499.134 492.761 499.055C492.761 498.976 492.793 498.9 492.849 498.844C492.905 498.788 492.981 498.757 493.06 498.757C493.14 498.757 493.216 498.788 493.272 498.844C493.328 498.9 493.359 498.976 493.359 499.055Z" stroke="white" stroke-linejoin="round"/>
<path d="M248.754 160.471V188.308" stroke="#A166FF" stroke-width="2.01" stroke-linecap="round" stroke-linejoin="round"/>
<path d="M262.676 174.38H234.832" stroke="#A166FF" stroke-width="2.01" stroke-linecap="round" stroke-linejoin="round"/>
<path d="M180.057 211.086V225.91" stroke="white" stroke-width="2.01" stroke-linecap="round" stroke-linejoin="round"/>
<path d="M187.495 218.498H172.638" stroke="white" stroke-width="2.01" stroke-linecap="round" stroke-linejoin="round"/>
<path d="M463.048 224.734V250.312" stroke="#A166FF" stroke-width="2.01" stroke-linecap="round" stroke-linejoin="round"/>
<path d="M475.83 237.523H450.247" stroke="#A166FF" stroke-width="2.01" stroke-linecap="round" stroke-linejoin="round"/>
<path d="M385.942 156.979V182.669" stroke="white" stroke-width="2.01" stroke-linecap="round" stroke-linejoin="round"/>
<path d="M398.799 169.824H373.084" stroke="white" stroke-width="2.01" stroke-linecap="round" stroke-linejoin="round"/>
</svg>
